SplineFontDB: 3.0
FontName: Sarai
FullName: Sarai
FamilyName: Sarai
Weight: Book
Copyright: (c) Sarai 2007\nThis font is released under GNU GPL v2.0
Version: 1.0
ItalicAngle: 0
UnderlinePosition: -73
UnderlineWidth: 120
Ascent: 800
Descent: 200
sfntRevision: 0x00010000
LayerCount: 2
Layer: 0 1 "Back"  1
Layer: 1 1 "Fore"  0
XUID: [1021 354 1953302183 13797561]
FSType: 0
OS2Version: 1
OS2_WeightWidthSlopeOnly: 0
OS2_UseTypoMetrics: 1
CreationTime: 1064794950
ModificationTime: 1178559529
PfmFamily: 81
TTFWeight: 400
TTFWidth: 5
LineGap: 0
VLineGap: 0
Panose: 0 0 4 0 0 0 0 0 0 0
OS2TypoAscent: 0
OS2TypoAOffset: 1
OS2TypoDescent: -50
OS2TypoDOffset: 1
OS2TypoLinegap: 0
OS2WinAscent: -1943
OS2WinAOffset: 1
OS2WinDescent: -766
OS2WinDOffset: 1
HheadAscent: -1943
HheadAOffset: 1
HheadDescent: 766
HheadDOffset: 1
OS2SubXSize: 700
OS2SubYSize: 650
OS2SubXOff: 0
OS2SubYOff: 143
OS2SupXSize: 700
OS2SupYSize: 650
OS2SupXOff: 0
OS2SupYOff: 453
OS2StrikeYSize: 50
OS2StrikeYPos: 259
OS2Vendor: 'FF  '
OS2CodePages: 00000001.00000000
OS2UnicodeRanges: 80008003.00002040.00000000.00000000
Lookup: 1 0 0 "Single Substitution lookup 0"  {"Single Substitution lookup 0 subtable"  } []
Lookup: 1 0 0 "Single Substitution lookup 1"  {"Single Substitution lookup 1 subtable"  } []
Lookup: 1 0 0 "Single Substitution lookup 2"  {"Single Substitution lookup 2 subtable"  } []
Lookup: 1 0 0 "Single Substitution lookup 3"  {"Single Substitution lookup 3 subtable"  } []
Lookup: 1 0 0 "Single Substitution lookup 4"  {"Single Substitution lookup 4 subtable"  } []
Lookup: 1 0 0 "Single Substitution lookup 5"  {"Single Substitution lookup 5 subtable"  } []
Lookup: 1 0 0 "Single Substitution lookup 6"  {"Single Substitution lookup 6 subtable"  } []
Lookup: 1 0 0 "Single Substitution lookup 7"  {"Single Substitution lookup 7 subtable"  } []
Lookup: 4 0 0 "'nukt' Nukta Forms in Devanagari lookup 8"  {"'nukt' Nukta Forms in Devanagari lookup 8 subtable"  } ['nukt' ('deva' <'dflt' > ) ]

StartChar: .notdef
Encoding: 65536 -1 0
Width: 500
GlyphClass: 2
Flags: W
LayerCount: 2
Fore
SplineSet
63 0 m 1,0,-1
 63 800 l 1,1,-1
 438 800 l 1,2,-1
 438 0 l 1,3,-1
 63 0 l 1,0,-1
125 63 m 1,4,-1
 375 63 l 1,5,-1
 375 738 l 1,6,-1
 125 738 l 1,7,-1
 125 63 l 1,4,-1
EndSplineSet
EndChar

StartChar: exclam
Encoding: 33 33 4
Width: 314
GlyphClass: 2
Flags: W
LayerCount: 2
Fore
SplineSet
287 581 m 1,0,-1
 283 169 l 1,1,-1
 236 197 l 1,2,-1
 224 618 l 1,3,-1
 287 581 l 1,0,-1
304 48 m 256,4,5
 304 28 304 28 291 14.5 c 128,-1,6
 278 1 278 1 259 1 c 256,7,8
 240 1 240 1 227.5 15 c 128,-1,9
 215 29 215 29 215 48 c 256,10,11
 215 67 215 67 227.5 81 c 128,-1,12
 240 95 240 95 259 95 c 256,13,14
 278 95 278 95 291 81.5 c 128,-1,15
 304 68 304 68 304 48 c 256,4,5
EndSplineSet
EndChar

StartChar: quotedbl
Encoding: 34 34 5
Width: 439
GlyphClass: 2
Flags: W
LayerCount: 2
Fore
SplineSet
413 620 m 0,0,1
 413 592 413 592 345 417 c 1,2,-1
 316 454 l 1,3,4
 341 534 341 534 341 553 c 0,5,6
 341 569 341 569 326 584 c 1,7,-1
 298 606 l 1,8,-1
 346 703 l 1,9,-1
 384 667 l 1,10,11
 413 636 413 636 413 620 c 0,0,1
263 620 m 0,12,13
 263 592 263 592 195 417 c 1,14,-1
 166 454 l 1,15,16
 191 534 191 534 191 553 c 0,17,18
 191 569 191 569 176 584 c 1,19,-1
 148 606 l 1,20,-1
 196 703 l 1,21,-1
 234 667 l 1,22,23
 263 636 263 636 263 620 c 0,12,13
EndSplineSet
EndChar

StartChar: numbersign
Encoding: 35 35 6
Width: 442
GlyphClass: 2
Flags: W
LayerCount: 2
Fore
SplineSet
422 169 m 1,0,-1
 314 169 l 1,1,-1
 277 -12 l 1,2,-1
 245 -12 l 1,3,-1
 281 169 l 1,4,-1
 146 169 l 1,5,-1
 108 -12 l 1,6,-1
 76 -12 l 1,7,-1
 112 169 l 1,8,-1
 45 169 l 1,9,-1
 45 202 l 1,10,-1
 120 202 l 1,11,-1
 146 338 l 1,12,-1
 45 338 l 1,13,-1
 45 369 l 1,14,-1
 154 369 l 1,15,-1
 190 550 l 1,16,-1
 224 550 l 1,17,-1
 187 369 l 1,18,-1
 321 369 l 1,19,-1
 360 550 l 1,20,-1
 392 550 l 1,21,-1
 354 369 l 1,22,-1
 422 369 l 1,23,-1
 422 338 l 1,24,-1
 348 338 l 1,25,-1
 321 202 l 1,26,-1
 422 202 l 1,27,-1
 422 169 l 1,0,-1
316 338 m 1,28,-1
 181 338 l 1,29,-1
 152 202 l 1,30,-1
 288 202 l 1,31,-1
 316 338 l 1,28,-1
EndSplineSet
EndChar

StartChar: percent
Encoding: 37 37 7
Width: 494
GlyphClass: 2
Flags: W
LayerCount: 2
Fore
SplineSet
494 159 m 0,0,1
 494 106 494 106 475 65 c 0,2,3
 450 12 450 12 402 12 c 0,4,5
 323 12 323 12 323 138 c 0,6,7
 323 192 323 192 343 231 c 0,8,9
 368 281 368 281 417 281 c 0,10,11
 494 281 494 281 494 159 c 0,0,1
458 111 m 0,12,13
 458 233 458 233 390 233 c 0,14,15
 358 233 358 233 358 177 c 0,16,17
 358 59 358 59 425 59 c 0,18,19
 458 59 458 59 458 111 c 0,12,13
427 504 m 1,20,-1
 156 12 l 1,21,-1
 121 12 l 1,22,-1
 392 504 l 1,23,-1
 427 504 l 1,20,-1
226 383 m 0,24,25
 226 330 226 330 206 289 c 0,26,27
 181 235 181 235 134 235 c 0,28,29
 91 235 91 235 70 280 c 0,30,31
 55 313 55 313 55 362 c 0,32,33
 55 417 55 417 75 455 c 0,34,35
 100 504 100 504 150 504 c 0,36,37
 226 504 226 504 226 383 c 0,24,25
191 334 m 0,38,39
 191 457 191 457 122 457 c 0,40,41
 90 457 90 457 90 400 c 0,42,43
 90 283 90 283 157 283 c 0,44,45
 191 283 191 283 191 334 c 0,38,39
EndSplineSet
EndChar

StartChar: ampersand
Encoding: 38 38 8
Width: 600
GlyphClass: 2
Flags: W
LayerCount: 2
Fore
SplineSet
577 92 m 1,0,1
 552 -12 552 -12 461 -12 c 0,2,3
 397 -12 397 -12 328 62 c 1,4,5
 240 -12 240 -12 164 -12 c 0,6,7
 109 -12 109 -12 71 16 c 0,8,9
 28 47 28 47 28 100 c 0,10,11
 28 198 28 198 184 285 c 1,12,13
 154 352 154 352 154 398 c 0,14,15
 154 455 154 455 190.5 488.5 c 128,-1,16
 227 522 227 522 285 522 c 0,17,18
 329 522 329 522 357.5 497.5 c 128,-1,19
 386 473 386 473 386 430 c 0,20,21
 386 382 386 382 345 346 c 0,22,23
 321 325 321 325 262 294 c 1,24,25
 320 197 320 197 363 139 c 1,26,27
 429 217 429 217 429 272 c 0,28,29
 429 311 429 311 394 315 c 1,30,-1
 394 329 l 1,31,-1
 551 329 l 1,32,-1
 551 315 l 1,33,34
 518 312 518 312 503 301 c 0,35,36
 494 294 494 294 439 200 c 0,37,38
 413 156 413 156 380 117 c 1,39,40
 437 46 437 46 493 46 c 0,41,42
 548 46 548 46 563 102 c 1,43,-1
 577 92 l 1,0,1
342 432 m 0,44,45
 342 458 342 458 326.5 476.5 c 128,-1,46
 311 495 311 495 285 495 c 0,47,48
 256 495 256 495 237 475.5 c 128,-1,49
 218 456 218 456 218 427 c 0,50,51
 218 390 218 390 249 319 c 1,52,53
 342 368 342 368 342 432 c 0,44,45
309 84 m 1,54,55
 234 182 234 182 197 260 c 1,56,57
 106 209 106 209 106 135 c 0,58,59
 106 91 106 91 132.5 62.5 c 128,-1,60
 159 34 159 34 203 34 c 0,61,62
 231 34 231 34 260 50 c 0,63,64
 271 56 271 56 309 84 c 1,54,55
EndSplineSet
EndChar

StartChar: quotesingle
Encoding: 39 39 9
Width: 282
GlyphClass: 2
Flags: W
LayerCount: 2
Fore
SplineSet
288 628 m 0,0,1
 288 592 288 592 258 521 c 0,2,3
 235 469 235 469 212 416 c 1,4,-1
 181 450 l 1,5,6
 190 478 190 478 198 505 c 0,7,8
 208 539 208 539 208 562 c 0,9,10
 208 578 208 578 183 596 c 128,-1,11
 158 614 158 614 158 642 c 0,12,13
 158 665 158 665 172.5 687.5 c 128,-1,14
 187 710 187 710 209 710 c 0,15,16
 230 710 230 710 259 680 c 128,-1,17
 288 650 288 650 288 628 c 0,0,1
EndSplineSet
EndChar

StartChar: parenleft
Encoding: 40 40 10
Width: 417
GlyphClass: 2
Flags: W
LayerCount: 2
Fore
SplineSet
295 -83 m 1,0,-1
 277 -103 l 1,1,2
 79 50 79 50 79 265 c 0,3,4
 79 475 79 475 277 633 c 1,5,-1
 295 613 l 1,6,7
 139 481 139 481 139 265 c 256,8,9
 139 49 139 49 295 -83 c 1,0,-1
EndSplineSet
EndChar

StartChar: parenright
Encoding: 41 41 11
Width: 417
GlyphClass: 2
Flags: W
LayerCount: 2
Fore
SplineSet
333 265 m 0,0,1
 333 51 333 51 134 -103 c 1,2,-1
 116 -83 l 1,3,4
 273 50 273 50 273 265 c 256,5,6
 273 480 273 480 116 613 c 1,7,-1
 134 633 l 1,8,9
 333 475 333 475 333 265 c 0,0,1
EndSplineSet
EndChar

StartChar: asterisk
Encoding: 42 42 12
Width: 417
GlyphClass: 2
Flags: W
LayerCount: 2
Fore
SplineSet
416 448 m 1,0,-1
 376 412 l 1,1,-1
 284 480 l 1,2,-1
 298 339 l 1,3,-1
 245 356 l 1,4,-1
 259 479 l 1,5,-1
 151 396 l 1,6,-1
 140 451 l 1,7,-1
 246 500 l 1,8,-1
 117 551 l 1,9,-1
 162 592 l 1,10,-1
 256 519 l 1,11,-1
 238 663 l 1,12,-1
 293 638 l 1,13,-1
 280 521 l 1,14,-1
 387 609 l 1,15,-1
 395 551 l 1,16,-1
 291 503 l 1,17,-1
 416 448 l 1,0,-1
EndSplineSet
EndChar

StartChar: plus
Encoding: 43 43 13
Width: 417
GlyphClass: 2
Flags: W
LayerCount: 2
Fore
SplineSet
362 241 m 1,0,-1
 224 241 l 1,1,-1
 224 92 l 1,2,-1
 193 92 l 1,3,-1
 193 241 l 1,4,-1
 55 241 l 1,5,-1
 55 275 l 1,6,-1
 193 275 l 1,7,-1
 193 424 l 1,8,-1
 224 424 l 1,9,-1
 224 275 l 1,10,-1
 362 275 l 1,11,-1
 362 241 l 1,0,-1
EndSplineSet
EndChar

StartChar: comma
Encoding: 44 44 14
Width: 209
GlyphClass: 2
Flags: W
LayerCount: 2
Fore
SplineSet
149 33 m 0,0,1
 149 -3 149 -3 48 -126 c 1,2,-1
 38 -98 l 1,3,4
 55 -80 55 -80 73 -52 c 0,5,6
 95 -18 95 -18 95 -2 c 0,7,8
 95 11 95 11 59 63 c 1,9,-1
 104 115 l 1,10,11
 149 73 149 73 149 33 c 0,0,1
EndSplineSet
EndChar

StartChar: hyphen
Encoding: 45 45 15
Width: 408
GlyphClass: 2
Flags: W
LayerCount: 2
Fore
SplineSet
364 235 m 1,0,-1
 73 235 l 1,1,-1
 44 291 l 1,2,-1
 335 291 l 1,3,-1
 364 235 l 1,0,-1
EndSplineSet
EndChar

StartChar: period
Encoding: 46 46 16
Width: 209
GlyphClass: 2
Flags: W
LayerCount: 2
Fore
SplineSet
154 60 m 256,0,1
 154 40 154 40 141 26.5 c 128,-1,2
 128 13 128 13 109 13 c 256,3,4
 90 13 90 13 77.5 27 c 128,-1,5
 65 41 65 41 65 60 c 256,6,7
 65 79 65 79 77.5 93 c 128,-1,8
 90 107 90 107 109 107 c 256,9,10
 128 107 128 107 141 93.5 c 128,-1,11
 154 80 154 80 154 60 c 256,0,1
EndSplineSet
EndChar

StartChar: slash
Encoding: 47 47 17
Width: 244
GlyphClass: 2
Flags: W
LayerCount: 2
Fore
SplineSet
236 517 m 1,0,-1
 48 0 l 1,1,-1
 17 13 l 1,2,-1
 206 530 l 1,3,-1
 236 517 l 1,0,-1
EndSplineSet
EndChar

StartChar: zero
Encoding: 48 48 18
Width: 367
GlyphClass: 2
Flags: W
LayerCount: 2
Fore
SplineSet
348 290 m 0,0,1
 348 185 348 185 315 111 c 0,2,3
 271 12 271 12 179 12 c 0,4,5
 104 12 104 12 63 95 c 1,6,7
 32 161 32 161 32 245 c 0,8,9
 32 346 32 346 66 428 c 0,10,11
 110 536 110 536 197 536 c 0,12,13
 282 536 282 536 320 450 c 0,14,15
 348 388 348 388 348 290 c 0,0,1
299 238 m 0,16,17
 299 321 299 321 277 384 c 0,18,19
 246 473 246 473 178 473 c 0,20,21
 80 473 80 473 80 300 c 0,22,23
 80 217 80 217 104 158 c 1,24,25
 136 75 136 75 207 75 c 0,26,27
 299 75 299 75 299 238 c 0,16,17
EndSplineSet
EndChar

StartChar: one
Encoding: 49 49 19
Width: 367
GlyphClass: 2
Flags: W
LayerCount: 2
Fore
SplineSet
263 10 m 1,0,-1
 209 -4 l 1,1,2
 209 31 209 31 210 101 c 128,-1,3
 211 171 211 171 211 206 c 2,4,-1
 211 343 l 2,5,6
 211 437 211 437 208 466 c 1,7,-1
 78 394 l 1,8,-1
 64 428 l 1,9,-1
 227 522 l 1,10,-1
 263 493 l 1,11,-1
 263 10 l 1,0,-1
EndSplineSet
EndChar

StartChar: two
Encoding: 50 50 20
Width: 367
GlyphClass: 2
Flags: W
LayerCount: 2
Fore
SplineSet
330 66 m 1,0,-1
 317 10 l 1,1,-1
 29 6 l 1,2,-1
 36 43 l 1,3,4
 115 126 115 126 154 171 c 0,5,6
 232 264 232 264 247 313 c 0,7,8
 255 339 255 339 255 365 c 0,9,10
 255 407 255 407 225 436 c 128,-1,11
 195 465 195 465 152 465 c 0,12,13
 104 465 104 465 54 409 c 1,14,-1
 41 417 l 1,15,-1
 68 486 l 1,16,17
 104 522 104 522 182 522 c 0,18,19
 233 522 233 522 274 479.5 c 128,-1,20
 315 437 315 437 315 386 c 0,21,22
 315 311 315 311 240 211 c 0,23,24
 199 155 199 155 108 64 c 1,25,-1
 330 66 l 1,0,-1
EndSplineSet
EndChar

StartChar: three
Encoding: 51 51 21
Width: 367
GlyphClass: 2
Flags: W
LayerCount: 2
Fore
SplineSet
340 180 m 0,0,1
 340 110 340 110 276.5 54 c 128,-1,2
 213 -2 213 -2 142 -2 c 0,3,4
 117 -2 117 -2 81.5 10 c 128,-1,5
 46 22 46 22 28 38 c 1,6,-1
 54 107 l 1,7,8
 116 55 116 55 183 55 c 0,9,10
 221 55 221 55 256.5 85 c 128,-1,11
 292 115 292 115 292 152 c 0,12,13
 292 191 292 191 259 220 c 0,14,15
 231 244 231 244 188 254 c 1,16,17
 154 237 154 237 126 237 c 0,18,19
 112 237 112 237 112 251 c 0,20,21
 112 262 112 262 130 305 c 1,22,23
 163 308 163 308 206 308 c 1,24,25
 250 352 250 352 250 388 c 0,26,27
 250 421 250 421 222.5 443 c 128,-1,28
 195 465 195 465 161 465 c 0,29,30
 104 465 104 465 63 427 c 1,31,-1
 52 432 l 1,32,-1
 77 497 l 1,33,34
 132 522 132 522 172 522 c 0,35,36
 227 522 227 522 261 494 c 1,37,38
 299 465 299 465 299 411 c 0,39,40
 299 359 299 359 241 301 c 1,41,42
 340 268 340 268 340 180 c 0,0,1
EndSplineSet
EndChar

StartChar: four
Encoding: 52 52 22
Width: 367
GlyphClass: 2
Flags: W
LayerCount: 2
Fore
SplineSet
354 188 m 1,0,-1
 341 136 l 1,1,-1
 287 136 l 1,2,-1
 288 7 l 1,3,-1
 235 -13 l 1,4,-1
 234 136 l 1,5,-1
 12 134 l 1,6,-1
 25 213 l 1,7,-1
 222 496 l 1,8,-1
 290 521 l 1,9,-1
 287 188 l 1,10,-1
 354 188 l 1,0,-1
232 453 m 1,11,-1
 48 188 l 1,12,-1
 232 188 l 1,13,-1
 232 453 l 1,11,-1
EndSplineSet
EndChar

StartChar: five
Encoding: 53 53 23
Width: 367
GlyphClass: 2
Flags: W
LayerCount: 2
Fore
SplineSet
336 197 m 0,0,1
 336 132 336 132 275 72 c 128,-1,2
 214 12 214 12 149 12 c 0,3,4
 124 12 124 12 88 23 c 0,5,6
 49 34 49 34 32 49 c 1,7,-1
 55 110 l 1,8,9
 120 69 120 69 171 69 c 0,10,11
 212 69 212 69 249.5 97 c 128,-1,12
 287 125 287 125 287 165 c 0,13,14
 287 264 287 264 65 282 c 1,15,-1
 98 522 l 1,16,-1
 313 522 l 1,17,-1
 299 465 l 1,18,-1
 127 465 l 1,19,-1
 110 340 l 1,20,21
 336 309 336 309 336 197 c 0,0,1
EndSplineSet
EndChar

StartChar: six
Encoding: 54 54 24
Width: 367
GlyphClass: 2
Flags: W
LayerCount: 2
Fore
SplineSet
341 177 m 0,0,1
 341 110 341 110 291 51 c 128,-1,2
 241 -8 241 -8 175 -8 c 0,3,4
 108 -8 108 -8 65 53 c 1,5,6
 25 108 25 108 25 177 c 0,7,8
 25 253 25 253 75 350 c 0,9,10
 118 434 118 434 179 500 c 1,11,-1
 272 523 l 1,12,-1
 276 504 l 1,13,14
 208 464 208 464 157 399 c 1,15,16
 100 329 100 329 87 258 c 1,17,-1
 90 254 l 1,18,19
 156 320 156 320 215 320 c 0,20,21
 267 320 267 320 304 275 c 128,-1,22
 341 230 341 230 341 177 c 0,0,1
293 143 m 0,23,24
 293 191 293 191 259 227 c 128,-1,25
 225 263 225 263 177 263 c 0,26,27
 121 263 121 263 79 204 c 1,28,29
 82 137 82 137 111 96 c 0,30,31
 144 49 144 49 208 49 c 0,32,33
 293 49 293 49 293 143 c 0,23,24
EndSplineSet
EndChar

StartChar: seven
Encoding: 55 55 25
Width: 367
GlyphClass: 2
Flags: W
LayerCount: 2
Fore
SplineSet
345 522 m 1,0,1
 342 512 342 512 336 492 c 1,2,-1
 143 29 l 1,3,-1
 79 6 l 1,4,-1
 66 11 l 1,5,6
 137 146 137 146 226 336 c 0,7,8
 246 379 246 379 281 465 c 1,9,-1
 24 465 l 1,10,-1
 40 522 l 1,11,-1
 345 522 l 1,0,1
EndSplineSet
EndChar

StartChar: eight
Encoding: 56 56 26
Width: 367
GlyphClass: 2
Flags: W
LayerCount: 2
Fore
SplineSet
336 144 m 0,0,1
 336 86 336 86 287 42.5 c 128,-1,2
 238 -1 238 -1 180 -1 c 0,3,4
 120 -1 120 -1 75.5 37.5 c 128,-1,5
 31 76 31 76 31 136 c 0,6,7
 31 227 31 227 131 266 c 1,8,9
 38 314 38 314 38 387 c 0,10,11
 38 437 38 437 83 480 c 128,-1,12
 128 523 128 523 178 523 c 0,13,14
 238 523 238 523 278 489 c 1,15,16
 319 452 319 452 319 393 c 0,17,18
 319 318 319 318 242 276 c 1,19,20
 336 231 336 231 336 144 c 0,0,1
270 375 m 0,21,22
 270 415 270 415 236 448.5 c 128,-1,23
 202 482 202 482 161 482 c 0,24,25
 127 482 127 482 106.5 461.5 c 128,-1,26
 86 441 86 441 86 407 c 0,27,28
 86 351 86 351 221 284 c 1,29,30
 270 329 270 329 270 375 c 0,21,22
281 126 m 0,31,32
 281 196 281 196 154 252 c 1,33,34
 85 224 85 224 85 153 c 0,35,36
 85 116 85 116 120.5 78 c 128,-1,37
 156 40 156 40 193 40 c 0,38,39
 281 40 281 40 281 126 c 0,31,32
EndSplineSet
EndChar

StartChar: nine
Encoding: 57 57 27
Width: 367
GlyphClass: 2
Flags: W
LayerCount: 2
Fore
SplineSet
341 336 m 0,0,1
 341 260 341 260 292 163 c 0,2,3
 248 77 248 77 187 14 c 1,4,-1
 94 -9 l 1,5,-1
 91 8 l 1,6,7
 158 48 158 48 210 113 c 0,8,9
 267 184 267 184 280 255 c 1,10,-1
 276 259 l 1,11,12
 210 193 210 193 152 193 c 0,13,14
 100 193 100 193 62.5 238 c 128,-1,15
 25 283 25 283 25 336 c 0,16,17
 25 403 25 403 75.5 462 c 128,-1,18
 126 521 126 521 192 521 c 256,19,20
 258 521 258 521 302 460 c 0,21,22
 341 405 341 405 341 336 c 0,0,1
287 309 m 1,23,24
 284 376 284 376 256 416 c 0,25,26
 222 464 222 464 159 464 c 0,27,28
 74 464 74 464 74 370 c 0,29,30
 74 322 74 322 108 286 c 128,-1,31
 142 250 142 250 190 250 c 0,32,33
 247 250 247 250 287 309 c 1,23,24
EndSplineSet
EndChar

StartChar: colon
Encoding: 58 58 28
Width: 261
GlyphClass: 2
Flags: W
LayerCount: 2
Fore
SplineSet
181 306 m 256,0,1
 181 286 181 286 168 272.5 c 128,-1,2
 155 259 155 259 136 259 c 256,3,4
 117 259 117 259 104.5 273 c 128,-1,5
 92 287 92 287 92 306 c 256,6,7
 92 325 92 325 104.5 339.5 c 128,-1,8
 117 354 117 354 136 354 c 256,9,10
 155 354 155 354 168 340 c 128,-1,11
 181 326 181 326 181 306 c 256,0,1
181 50 m 256,12,13
 181 30 181 30 168 16.5 c 128,-1,14
 155 3 155 3 136 3 c 256,15,16
 117 3 117 3 104.5 17 c 128,-1,17
 92 31 92 31 92 50 c 256,18,19
 92 69 92 69 104.5 83.5 c 128,-1,20
 117 98 117 98 136 98 c 256,21,22
 155 98 155 98 168 84 c 128,-1,23
 181 70 181 70 181 50 c 256,12,13
EndSplineSet
EndChar

StartChar: semicolon
Encoding: 59 59 29
Width: 209
GlyphClass: 2
Flags: W
LayerCount: 2
Fore
SplineSet
181 296 m 256,0,1
 181 276 181 276 168 262.5 c 128,-1,2
 155 249 155 249 136 249 c 256,3,4
 117 249 117 249 104.5 263 c 128,-1,5
 92 277 92 277 92 296 c 256,6,7
 92 315 92 315 104.5 329.5 c 128,-1,8
 117 344 117 344 136 344 c 256,9,10
 155 344 155 344 168 330 c 128,-1,11
 181 316 181 316 181 296 c 256,0,1
204 32 m 0,12,13
 204 -4 204 -4 104 -126 c 1,14,-1
 93 -99 l 1,15,16
 151 -36 151 -36 151 -3 c 0,17,18
 151 3 151 3 115 62 c 1,19,-1
 159 114 l 1,20,21
 204 72 204 72 204 32 c 0,12,13
EndSplineSet
EndChar

StartChar: less
Encoding: 60 60 30
Width: 295
GlyphClass: 2
Flags: W
LayerCount: 2
Fore
SplineSet
232 14 m 1,0,-1
 -1 202 l 1,1,-1
 -1 279 l 1,2,-1
 228 461 l 1,3,-1
 228 387 l 1,4,-1
 48 237 l 1,5,-1
 232 84 l 1,6,-1
 232 14 l 1,0,-1
EndSplineSet
EndChar

StartChar: equal
Encoding: 61 61 31
Width: 417
GlyphClass: 2
Flags: W
LayerCount: 2
Fore
SplineSet
365 296 m 1,0,-1
 58 296 l 1,1,-1
 58 330 l 1,2,-1
 365 330 l 1,3,-1
 365 296 l 1,0,-1
365 186 m 1,4,-1
 58 186 l 1,5,-1
 58 220 l 1,6,-1
 365 220 l 1,7,-1
 365 186 l 1,4,-1
EndSplineSet
EndChar

StartChar: greater
Encoding: 62 62 32
Width: 295
GlyphClass: 2
Flags: W
LayerCount: 2
Fore
SplineSet
295 190 m 1,0,-1
 62 2 l 1,1,-1
 62 72 l 1,2,-1
 247 225 l 1,3,-1
 62 375 l 1,4,-1
 62 450 l 1,5,-1
 295 267 l 1,6,-1
 295 190 l 1,0,-1
EndSplineSet
EndChar

StartChar: question
Encoding: 63 63 33
Width: 488
GlyphClass: 2
Flags: W
LayerCount: 2
Fore
SplineSet
489 464 m 0,0,1
 489 433 489 433 481 409 c 0,2,3
 463 358 463 358 311 166 c 1,4,-1
 269 203 l 1,5,6
 449 409 449 409 449 489 c 0,7,8
 449 532 449 532 421.5 561.5 c 128,-1,9
 394 591 394 591 351 591 c 0,10,11
 304 591 304 591 252 555 c 1,12,-1
 216 602 l 1,13,14
 275 644 275 644 346 644 c 0,15,16
 405 644 405 644 449 582 c 0,17,18
 489 525 489 525 489 464 c 0,0,1
375 57 m 1,19,-1
 321 1 l 1,20,-1
 267 57 l 1,21,-1
 321 113 l 1,22,-1
 375 57 l 1,19,-1
EndSplineSet
EndChar

StartChar: at
Encoding: 64 64 34
Width: 711
GlyphClass: 2
Flags: W
LayerCount: 2
Fore
SplineSet
693 71 m 1,0,1
 657 -38 657 -38 568.5 -102 c 128,-1,2
 480 -166 480 -166 366 -166 c 0,3,4
 224 -166 224 -166 130.5 -71 c 128,-1,5
 37 24 37 24 37 167 c 0,6,7
 37 321 37 321 138.5 428 c 128,-1,8
 240 535 240 535 393 535 c 0,9,10
 512 535 512 535 587 465 c 128,-1,11
 662 395 662 395 662 277 c 0,12,13
 662 177 662 177 609 98 c 0,14,15
 548 9 548 9 453 9 c 0,16,17
 391 9 391 9 391 65 c 0,18,19
 391 83 391 83 395 103 c 1,20,21
 319 8 319 8 256 8 c 0,22,23
 223 8 223 8 202 38 c 0,24,25
 184 65 184 65 184 100 c 0,26,27
 184 178 184 178 249 269 c 0,28,29
 319 366 319 366 394 366 c 0,30,31
 442 366 442 366 457 326 c 1,32,-1
 466 355 l 1,33,-1
 534 364 l 1,34,35
 456 130 456 130 456 70 c 0,36,37
 456 45 456 45 478 45 c 0,38,39
 494 45 494 45 511 54 c 0,40,41
 570 85 570 85 602 151 c 0,42,43
 631 211 631 211 631 284 c 0,44,45
 631 385 631 385 564 446 c 128,-1,46
 497 507 497 507 395 507 c 0,47,48
 258 507 258 507 167 399 c 0,49,50
 81 298 81 298 81 158 c 0,51,52
 81 30 81 30 160.5 -52 c 128,-1,53
 240 -134 240 -134 367 -134 c 0,54,55
 470 -134 470 -134 546 -80 c 128,-1,56
 622 -26 622 -26 662 71 c 1,57,-1
 693 71 l 1,0,1
440 290 m 0,58,59
 440 339 440 339 397 339 c 0,60,61
 349 339 349 339 298 248 c 1,62,63
 253 165 253 165 253 111 c 0,64,65
 253 64 253 64 290 64 c 0,66,67
 347 64 347 64 396 150 c 0,68,69
 440 227 440 227 440 290 c 0,58,59
EndSplineSet
EndChar

StartChar: A
Encoding: 65 65 35
Width: 568
GlyphClass: 2
Flags: W
LayerCount: 2
Fore
SplineSet
559 0 m 1,0,-1
 357 0 l 1,1,-1
 357 9 l 1,2,3
 410 14 410 14 410 44 c 0,4,5
 410 64 410 64 395 99 c 2,6,-1
 362 176 l 1,7,-1
 155 176 l 1,8,-1
 119 92 l 2,9,10
 106 62 106 62 106 45 c 0,11,12
 106 31 106 31 117 21.5 c 128,-1,13
 128 12 128 12 167 9 c 1,14,-1
 167 0 l 1,15,-1
 6 0 l 1,16,-1
 6 10 l 1,17,18
 34 15 34 15 45 22.5 c 128,-1,19
 56 30 56 30 69 54 c 128,-1,20
 82 78 82 78 92 102 c 2,21,-1
 277 533 l 1,22,-1
 287 533 l 1,23,-1
 469 97 l 2,24,25
 491 44 491 44 510 28 c 1,26,27
 526 12 526 12 559 9 c 1,28,-1
 559 0 l 1,0,-1
353 200 m 1,29,-1
 261 421 l 1,30,-1
 165 200 l 1,31,-1
 353 200 l 1,29,-1
EndSplineSet
EndChar

StartChar: B
Encoding: 66 66 36
Width: 525
GlyphClass: 2
Flags: W
LayerCount: 2
Fore
SplineSet
482 141 m 0,0,1
 482 100 482 100 455.5 65.5 c 128,-1,2
 429 31 429 31 389 15.5 c 128,-1,3
 349 0 349 0 259 0 c 2,4,-1
 13 0 l 1,5,-1
 13 9 l 1,6,-1
 30 9 l 2,7,8
 66 9 66 9 80 31 c 0,9,10
 89 45 89 45 89 91 c 2,11,-1
 89 430 l 2,12,13
 89 481 89 481 77 493 c 1,14,15
 63 511 63 511 30 511 c 2,16,-1
 13 511 l 1,17,-1
 13 521 l 1,18,-1
 238 521 l 2,19,20
 299 521 299 521 339 511 c 0,21,22
 457 482 457 482 457 383 c 0,23,24
 457 320 457 320 404 287 c 0,25,26
 385 275 385 275 355 265 c 1,27,28
 419 252 419 252 445 227 c 0,29,30
 482 191 482 191 482 141 c 0,0,1
381 386 m 0,31,32
 381 443 381 443 332 474 c 0,33,34
 291 500 291 500 231 500 c 0,35,36
 192 500 192 500 159 491 c 1,37,-1
 159 285 l 1,38,39
 187 279 187 279 234 279 c 0,40,41
 336 279 336 279 366 330 c 0,42,43
 381 356 381 356 381 386 c 0,31,32
397 135 m 0,44,45
 397 209 397 209 324 241 c 0,46,47
 287 257 287 257 230 257 c 2,48,-1
 207 257 l 2,49,50
 194 257 194 257 189 256 c 1,51,52
 172 256 172 256 159 253 c 1,53,-1
 159 33 l 1,54,55
 211 22 211 22 250 22 c 0,56,57
 309 22 309 22 350 48 c 0,58,59
 397 79 397 79 397 135 c 0,44,45
EndSplineSet
EndChar

StartChar: C
Encoding: 67 67 37
Width: 525
GlyphClass: 2
Flags: W
LayerCount: 2
Fore
SplineSet
496 120 m 1,0,1
 418 -12 418 -12 282 -12 c 0,2,3
 152 -12 152 -12 81 84 c 0,4,5
 28 156 28 156 28 252 c 0,6,7
 28 331 28 331 63 396 c 128,-1,8
 98 461 98 461 160 497 c 128,-1,9
 222 533 222 533 294 533 c 0,10,11
 354 533 354 533 405 505 c 0,12,13
 422 496 422 496 430 496 c 0,14,15
 439 496 439 496 449 504.5 c 128,-1,16
 459 513 459 513 464 533 c 1,17,-1
 473 533 l 1,18,-1
 485 359 l 1,19,-1
 478 359 l 1,20,21
 432 510 432 510 300 510 c 0,22,23
 183 510 183 510 136 397 c 0,24,25
 112 340 112 340 112 251 c 0,26,27
 112 100 112 100 205 45 c 0,28,29
 252 17 252 17 311 17 c 0,30,31
 371 17 371 17 414 46 c 0,32,33
 448 69 448 69 488 125 c 1,34,-1
 496 120 l 1,0,1
EndSplineSet
EndChar

StartChar: D
Encoding: 68 68 38
Width: 568
GlyphClass: 2
Flags: W
LayerCount: 2
Fore
SplineSet
538 263 m 0,0,1
 538 134 538 134 455 65 c 0,2,3
 378 0 378 0 246 0 c 2,4,-1
 13 0 l 1,5,-1
 13 9 l 1,6,-1
 31 9 l 2,7,8
 65 9 65 9 80 32 c 0,9,10
 89 46 89 46 89 91 c 2,11,-1
 89 430 l 2,12,13
 89 480 89 480 78 493 c 0,14,15
 63 511 63 511 31 511 c 2,16,-1
 13 511 l 1,17,-1
 13 521 l 1,18,-1
 225 521 l 2,19,20
 325 521 325 521 381 502 c 0,21,22
 458 476 458 476 501 406 c 0,23,24
 538 345 538 345 538 263 c 0,0,1
455 259 m 0,25,26
 455 363 455 363 400 427 c 0,27,28
 342 496 342 496 240 496 c 0,29,30
 206 496 206 496 158 484 c 1,31,-1
 158 33 l 1,32,33
 215 22 215 22 244 22 c 0,34,35
 343 22 343 22 401 92 c 0,36,37
 455 158 455 158 455 259 c 0,25,26
EndSplineSet
EndChar

StartChar: E
Encoding: 69 69 39
Width: 480
GlyphClass: 2
Flags: W
LayerCount: 2
Fore
SplineSet
461 127 m 1,0,-1
 418 0 l 1,1,-1
 16 0 l 1,2,-1
 16 9 l 1,3,-1
 32 9 l 2,4,5
 49 9 49 9 69 18 c 1,6,7
 86 30 86 30 90 50 c 0,8,9
 91 56 91 56 91 90 c 2,10,-1
 91 432 l 2,11,12
 91 485 91 485 81 495 c 0,13,14
 66 511 66 511 32 511 c 2,15,-1
 16 511 l 1,16,-1
 16 521 l 1,17,-1
 417 521 l 1,18,-1
 423 411 l 1,19,-1
 412 411 l 1,20,21
 405 451 405 451 394 466 c 1,22,23
 376 497 376 497 308 497 c 2,24,-1
 161 497 l 1,25,-1
 161 284 l 1,26,-1
 279 284 l 2,27,28
 324 284 324 284 343 300 c 128,-1,29
 362 316 362 316 364 361 c 1,30,-1
 374 361 l 1,31,-1
 374 183 l 1,32,-1
 364 183 l 1,33,34
 359 221 359 221 353 230 c 1,35,36
 339 261 339 261 279 261 c 2,37,-1
 161 261 l 1,38,-1
 161 85 l 2,39,40
 161 49 161 49 163.5 43.5 c 128,-1,41
 166 38 166 38 169 35 c 2,42,-1
 176 28 l 1,43,44
 183 24 183 24 207 24 c 2,45,-1
 296 24 l 2,46,47
 339 24 339 24 362 30 c 0,48,49
 394 38 394 38 426 84 c 0,50,51
 438 102 438 102 451 127 c 1,52,-1
 461 127 l 1,0,-1
EndSplineSet
EndChar

StartChar: F
Encoding: 70 70 40
Width: 437
GlyphClass: 2
Flags: W
LayerCount: 2
Fore
SplineSet
405 410 m 1,0,-1
 396 410 l 1,1,2
 385 449 385 449 373 463 c 0,3,4
 344 497 344 497 277 497 c 2,5,-1
 158 497 l 1,6,-1
 158 285 l 1,7,-1
 256 285 l 2,8,9
 293 285 293 285 309 303 c 0,10,11
 322 319 322 319 327 357 c 1,12,-1
 337 357 l 1,13,-1
 337 185 l 1,14,-1
 328 185 l 1,15,16
 327 201 327 201 319 228 c 1,17,18
 304 258 304 258 256 258 c 2,19,-1
 158 258 l 1,20,-1
 158 91 l 2,21,22
 158 58 158 58 159 51 c 0,23,24
 163 29 163 29 179.5 19 c 128,-1,25
 196 9 196 9 217 9 c 2,26,-1
 234 9 l 1,27,-1
 234 0 l 1,28,-1
 13 0 l 1,29,-1
 13 9 l 1,30,-1
 29 9 l 2,31,32
 63 9 63 9 78 29 c 0,33,34
 88 42 88 42 88 91 c 2,35,-1
 88 430 l 2,36,37
 88 467 88 467 83 484 c 1,38,39
 71 511 71 511 29 511 c 2,40,-1
 13 511 l 1,41,-1
 13 521 l 1,42,-1
 400 521 l 1,43,-1
 405 410 l 1,0,-1
EndSplineSet
EndChar

StartChar: G
Encoding: 71 71 41
Width: 568
GlyphClass: 2
Flags: W
LayerCount: 2
Fore
SplineSet
557 272 m 1,0,-1
 550 272 l 2,1,2
 515 272 515 272 504 247 c 0,3,4
 498 232 498 232 498 193 c 2,5,-1
 498 34 l 1,6,7
 451 9 451 9 412 -1 c 0,8,9
 367 -12 367 -12 316 -12 c 0,10,11
 166 -12 166 -12 86 85 c 0,12,13
 28 156 28 156 28 252 c 0,14,15
 28 326 28 326 66 393.5 c 128,-1,16
 104 461 104 461 168 499 c 0,17,18
 225 533 225 533 303 533 c 0,19,20
 344 533 344 533 384 521 c 1,21,-1
 419 508 l 2,22,23
 445 499 445 499 451 499 c 0,24,25
 460 499 460 499 466 508.5 c 128,-1,26
 472 518 472 518 473 533 c 1,27,-1
 482 533 l 1,28,-1
 495 372 l 1,29,-1
 486 372 l 1,30,31
 440 511 440 511 311 511 c 0,32,33
 214 511 214 511 160 436 c 0,34,35
 112 370 112 370 112 269 c 0,36,37
 112 193 112 193 141.5 130 c 128,-1,38
 171 67 171 67 219.5 38 c 128,-1,39
 268 9 268 9 316 9 c 0,40,41
 375 9 375 9 427 40 c 1,42,-1
 427 193 l 2,43,44
 427 224 427 224 425 234 c 0,45,46
 420 256 420 256 401 266 c 0,47,48
 390 272 390 272 358 272 c 1,49,-1
 358 282 l 1,50,-1
 557 282 l 1,51,-1
 557 272 l 1,0,-1
EndSplineSet
EndChar

StartChar: H
Encoding: 72 72 42
Width: 568
GlyphClass: 2
Flags: W
LayerCount: 2
Fore
SplineSet
549 0 m 1,0,-1
 330 0 l 1,1,-1
 330 9 l 1,2,-1
 346 9 l 2,3,4
 380 9 380 9 395 29 c 0,5,6
 405 42 405 42 405 91 c 2,7,-1
 405 253 l 1,8,-1
 157 253 l 1,9,-1
 157 91 l 2,10,11
 157 58 157 58 158 50 c 0,12,13
 163 28 163 28 179.5 18.5 c 128,-1,14
 196 9 196 9 216 9 c 2,15,-1
 232 9 l 1,16,-1
 232 0 l 1,17,-1
 13 0 l 1,18,-1
 13 9 l 1,19,-1
 29 9 l 2,20,21
 63 9 63 9 78 29 c 0,22,23
 88 42 88 42 88 91 c 2,24,-1
 88 430 l 2,25,26
 88 462 88 462 87 470 c 0,27,28
 83 493 83 493 66.5 502 c 128,-1,29
 50 511 50 511 29 511 c 2,30,-1
 13 511 l 1,31,-1
 13 521 l 1,32,-1
 232 521 l 1,33,-1
 232 511 l 1,34,-1
 216 511 l 2,35,36
 197 511 197 511 180 502 c 0,37,38
 157 490 157 490 157 430 c 2,39,-1
 157 277 l 1,40,-1
 405 277 l 1,41,-1
 405 430 l 2,42,43
 405 462 405 462 404 470 c 0,44,45
 400 493 400 493 383 502 c 128,-1,46
 366 511 366 511 346 511 c 2,47,-1
 330 511 l 1,48,-1
 330 521 l 1,49,-1
 549 521 l 1,50,-1
 549 511 l 1,51,-1
 533 511 l 2,52,53
 514 511 514 511 497 502 c 0,54,55
 474 490 474 490 474 430 c 2,56,-1
 474 91 l 2,57,58
 474 54 474 54 479 37 c 1,59,60
 492 9 492 9 533 9 c 2,61,-1
 549 9 l 1,62,-1
 549 0 l 1,0,-1
EndSplineSet
EndChar

StartChar: I
Encoding: 73 73 43
Width: 262
GlyphClass: 2
Flags: W
LayerCount: 2
Fore
SplineSet
243 0 m 1,0,-1
 20 0 l 1,1,-1
 20 9 l 1,2,-1
 36 9 l 2,3,4
 70 9 70 9 86 29 c 0,5,6
 96 41 96 41 96 91 c 2,7,-1
 96 430 l 2,8,9
 96 467 96 467 91 484 c 1,10,11
 86 494 86 494 73 502 c 1,12,13
 55 511 55 511 36 511 c 2,14,-1
 20 511 l 1,15,-1
 20 521 l 1,16,-1
 243 521 l 1,17,-1
 243 511 l 1,18,-1
 226 511 l 2,19,20
 192 511 192 511 176 491 c 0,21,22
 166 479 166 479 166 430 c 2,23,-1
 166 91 l 2,24,25
 166 58 166 58 167 50 c 0,26,27
 172 28 172 28 188.5 18.5 c 128,-1,28
 205 9 205 9 226 9 c 2,29,-1
 243 9 l 1,30,-1
 243 0 l 1,0,-1
EndSplineSet
EndChar

StartChar: J
Encoding: 74 74 44
Width: 306
GlyphClass: 2
Flags: W
LayerCount: 2
Fore
SplineSet
301 511 m 1,0,-1
 285 511 l 2,1,2
 251 511 251 511 236 491 c 0,3,4
 226 477 226 477 226 430 c 2,5,-1
 226 173 l 2,6,7
 226 113 226 113 213 78 c 0,8,9
 198 39 198 39 166 13.5 c 128,-1,10
 134 -12 134 -12 93 -12 c 0,11,12
 64 -12 64 -12 42 2 c 0,13,14
 16 18 16 18 16 45 c 0,15,16
 16 63 16 63 25 72 c 1,17,18
 39 83 39 83 53 83 c 0,19,20
 66 83 66 83 75 75.5 c 128,-1,21
 84 68 84 68 99 33 c 0,22,23
 108 11 108 11 124 11 c 0,24,25
 156 11 156 11 156 71 c 2,26,-1
 156 430 l 2,27,28
 156 470 156 470 150 484 c 1,29,30
 142 511 142 511 96 511 c 2,31,-1
 79 511 l 1,32,-1
 79 521 l 1,33,-1
 301 521 l 1,34,-1
 301 511 l 1,0,-1
EndSplineSet
EndChar

StartChar: K
Encoding: 75 75 45
Width: 568
GlyphClass: 2
Flags: W
LayerCount: 2
Fore
SplineSet
574 0 m 1,0,-1
 330 0 l 1,1,-1
 330 9 l 1,2,3
 372 11 372 11 372 36 c 0,4,5
 372 53 372 53 343 82 c 2,6,-1
 159 264 l 1,7,-1
 158 263 l 1,8,-1
 158 91 l 2,9,10
 158 58 158 58 159 51 c 0,11,12
 163 29 163 29 179.5 19 c 128,-1,13
 196 9 196 9 217 9 c 2,14,-1
 232 9 l 1,15,-1
 232 0 l 1,16,-1
 13 0 l 1,17,-1
 13 9 l 1,18,-1
 29 9 l 2,19,20
 63 9 63 9 78 29 c 0,21,22
 88 42 88 42 88 91 c 2,23,-1
 88 430 l 2,24,25
 88 462 88 462 87 470 c 0,26,27
 83 493 83 493 66 502 c 128,-1,28
 49 511 49 511 29 511 c 2,29,-1
 13 511 l 1,30,-1
 13 521 l 1,31,-1
 232 521 l 1,32,-1
 232 511 l 1,33,-1
 217 511 l 2,34,35
 174 511 174 511 162 482 c 0,36,37
 158 472 158 472 158 430 c 2,38,-1
 159 264 l 1,39,40
 165 270 165 270 215 317 c 0,41,42
 252 351 252 351 288 385 c 0,43,44
 336 431 336 431 354 458 c 0,45,46
 365 475 365 475 365 486 c 0,47,48
 365 511 365 511 327 511 c 2,49,-1
 318 511 l 1,50,-1
 318 521 l 1,51,-1
 506 521 l 1,52,-1
 506 511 l 1,53,54
 478 511 478 511 442 490 c 0,55,56
 425 480 425 480 392 450 c 1,57,-1
 313 371 l 1,58,-1
 231 289 l 1,59,-1
 426 95 l 2,60,61
 470 52 470 52 508 29 c 1,62,63
 544 12 544 12 574 9 c 1,64,-1
 574 0 l 1,0,-1
EndSplineSet
EndChar

StartChar: L
Encoding: 76 76 46
Width: 480
GlyphClass: 2
Flags: W
LayerCount: 2
Fore
SplineSet
463 138 m 1,0,-1
 419 0 l 1,1,-1
 16 0 l 1,2,-1
 16 9 l 1,3,-1
 33 9 l 2,4,5
 68 9 68 9 83 32 c 0,6,7
 91 45 91 45 91 91 c 2,8,-1
 91 430 l 2,9,10
 91 480 91 480 80 493 c 0,11,12
 65 511 65 511 33 511 c 2,13,-1
 16 511 l 1,14,-1
 16 521 l 1,15,-1
 249 521 l 1,16,-1
 249 511 l 1,17,18
 183 513 183 513 167 482 c 1,19,20
 161 468 161 468 161 421 c 2,21,-1
 161 91 l 2,22,23
 161 42 161 42 183 32 c 0,24,25
 192 28 192 28 245 28 c 2,26,-1
 283 28 l 2,27,28
 333 28 333 28 355 33 c 0,29,30
 390 42 390 42 415 70 c 0,31,32
 434 92 434 92 455 140 c 1,33,-1
 463 138 l 1,0,-1
EndSplineSet
EndChar

StartChar: M
Encoding: 77 77 47
Width: 699
GlyphClass: 2
Flags: W
LayerCount: 2
Fore
SplineSet
683 0 m 1,0,-1
 465 0 l 1,1,-1
 465 9 l 1,2,-1
 481 9 l 2,3,4
 516 9 516 9 530 31 c 0,5,6
 539 45 539 45 539 89 c 2,7,-1
 539 451 l 1,8,-1
 333 0 l 1,9,-1
 323 0 l 1,10,-1
 116 451 l 1,11,-1
 116 89 l 2,12,13
 116 40 116 40 127 26 c 1,14,15
 144 9 144 9 175 9 c 2,16,-1
 191 9 l 1,17,-1
 191 0 l 1,18,-1
 13 0 l 1,19,-1
 13 9 l 1,20,-1
 29 9 l 2,21,22
 62 9 62 9 78 31 c 0,23,24
 87 44 87 44 87 89 c 2,25,-1
 87 432 l 2,26,27
 87 488 87 488 58 504 c 0,28,29
 45 511 45 511 13 511 c 1,30,-1
 13 521 l 1,31,-1
 157 521 l 1,32,-1
 349 106 l 1,33,-1
 538 521 l 1,34,-1
 683 521 l 1,35,-1
 683 511 l 1,36,-1
 667 511 l 2,37,38
 630 511 630 511 617 490 c 0,39,40
 608 476 608 476 608 432 c 2,41,-1
 608 89 l 2,42,43
 608 39 608 39 620 26 c 0,44,45
 635 9 635 9 667 9 c 2,46,-1
 683 9 l 1,47,-1
 683 0 l 1,0,-1
EndSplineSet
EndChar

StartChar: N
Encoding: 78 78 48
Width: 568
GlyphClass: 2
Flags: W
LayerCount: 2
Fore
SplineSet
557 511 m 1,0,-1
 541 511 l 2,1,2
 504 511 504 511 491 490 c 0,3,4
 482 476 482 476 482 432 c 2,5,-1
 482 -8 l 1,6,-1
 472 -8 l 1,7,-1
 122 419 l 1,8,-1
 122 89 l 2,9,10
 122 39 122 39 133 27 c 0,11,12
 149 9 149 9 180 9 c 2,13,-1
 197 9 l 1,14,-1
 197 0 l 1,15,-1
 19 0 l 1,16,-1
 19 9 l 1,17,-1
 34 9 l 2,18,19
 69 9 69 9 84 31 c 0,20,21
 93 44 93 44 93 89 c 2,22,-1
 93 455 l 1,23,24
 81 469 81 469 57 492 c 1,25,26
 44 501 44 501 22 508 c 0,27,28
 13 511 13 511 -10 511 c 1,29,-1
 -10 521 l 1,30,-1
 128 521 l 1,31,-1
 453 122 l 1,32,-1
 453 432 l 2,33,34
 453 481 453 481 442 494 c 0,35,36
 428 511 428 511 395 511 c 2,37,-1
 379 511 l 1,38,-1
 379 521 l 1,39,-1
 557 521 l 1,40,-1
 557 511 l 1,0,-1
EndSplineSet
EndChar

StartChar: O
Encoding: 79 79 49
Width: 568
GlyphClass: 2
Flags: W
LayerCount: 2
Fore
SplineSet
538 263 m 0,0,1
 538 149 538 149 467 70 c 0,2,3
 394 -12 394 -12 281 -12 c 0,4,5
 167 -12 167 -12 96 69 c 0,6,7
 28 146 28 146 28 262 c 0,8,9
 28 386 28 386 112 465 c 0,10,11
 185 533 185 533 288 533 c 0,12,13
 396 533 396 533 467 452.5 c 128,-1,14
 538 372 538 372 538 263 c 0,0,1
454 253 m 0,15,16
 454 509 454 509 280 509 c 0,17,18
 190 509 190 509 146 427 c 0,19,20
 111 363 111 363 111 264 c 0,21,22
 111 133 111 133 167 64 c 0,23,24
 210 11 210 11 281 11 c 0,25,26
 374 11 374 11 419 90 c 0,27,28
 454 152 454 152 454 253 c 0,15,16
EndSplineSet
EndChar

StartChar: P
Encoding: 80 80 50
Width: 437
GlyphClass: 2
Flags: W
LayerCount: 2
Fore
SplineSet
410 378 m 0,0,1
 410 309 410 309 363 271 c 0,2,3
 320 235 320 235 249 235 c 0,4,5
 213 235 213 235 158 247 c 1,6,-1
 158 91 l 2,7,8
 158 41 158 41 170 27 c 0,9,10
 186 9 186 9 216 9 c 2,11,-1
 234 9 l 1,12,-1
 234 0 l 1,13,-1
 13 0 l 1,14,-1
 13 9 l 1,15,-1
 30 9 l 2,16,17
 65 9 65 9 80 32 c 0,18,19
 89 46 89 46 89 91 c 2,20,-1
 89 430 l 2,21,22
 89 481 89 481 77 493 c 1,23,24
 63 511 63 511 30 511 c 2,25,-1
 13 511 l 1,26,-1
 13 521 l 1,27,-1
 204 521 l 2,28,29
 330 521 330 521 382 458 c 0,30,31
 410 424 410 424 410 378 c 0,0,1
326 370 m 0,32,33
 326 402 326 402 312 435 c 1,34,35
 294 466 294 466 271 479 c 0,36,37
 244 494 244 494 212 494 c 0,38,39
 185 494 185 494 158 486 c 1,40,-1
 158 264 l 1,41,-1
 180 261 l 1,42,43
 207 256 207 256 212 256 c 2,44,-1
 224 256 l 2,45,46
 270 256 270 256 299 291 c 0,47,48
 326 323 326 323 326 370 c 0,32,33
EndSplineSet
EndChar

StartChar: Q
Encoding: 81 81 51
Width: 568
GlyphClass: 2
Flags: W
LayerCount: 2
Fore
SplineSet
538 260 m 0,0,1
 538 165 538 165 485.5 93.5 c 128,-1,2
 433 22 433 22 343 -6 c 1,3,4
 384 -76 384 -76 431 -109 c 128,-1,5
 478 -142 478 -142 534 -146 c 1,6,-1
 534 -154 l 1,7,8
 416 -147 416 -147 309 -79 c 0,9,10
 254 -44 254 -44 215 -5 c 1,11,12
 159 16 159 16 126 42 c 0,13,14
 28 119 28 119 28 262 c 0,15,16
 28 380 28 380 103.5 456.5 c 128,-1,17
 179 533 179 533 287 533 c 0,18,19
 396 533 396 533 467 451.5 c 128,-1,20
 538 370 538 370 538 260 c 0,0,1
454 251 m 0,21,22
 454 428 454 428 366 484 c 0,23,24
 328 508 328 508 282 508 c 0,25,26
 189 508 189 508 146 427 c 1,27,28
 111 364 111 364 111 262 c 0,29,30
 111 162 111 162 146 95 c 0,31,32
 191 10 191 10 282 10 c 256,33,34
 373 10 373 10 418 89 c 0,35,36
 454 152 454 152 454 251 c 0,21,22
EndSplineSet
EndChar

StartChar: R
Encoding: 82 82 52
Width: 525
GlyphClass: 2
Flags: W
LayerCount: 2
Fore
SplineSet
531 0 m 1,0,-1
 395 0 l 1,1,-1
 217 246 l 1,2,3
 212 245 212 245 207 245 c 2,4,-1
 171 245 l 2,5,6
 163 245 163 245 158 246 c 1,7,-1
 158 91 l 2,8,9
 158 41 158 41 170 27 c 0,10,11
 186 9 186 9 216 9 c 2,12,-1
 234 9 l 1,13,-1
 234 0 l 1,14,-1
 13 0 l 1,15,-1
 13 9 l 1,16,-1
 31 9 l 2,17,18
 65 9 65 9 80 32 c 0,19,20
 89 46 89 46 89 91 c 2,21,-1
 89 430 l 2,22,23
 89 480 89 480 78 494 c 1,24,25
 61 511 61 511 31 511 c 2,26,-1
 13 511 l 1,27,-1
 13 521 l 1,28,-1
 202 521 l 2,29,30
 273 521 273 521 305 514 c 0,31,32
 360 502 360 502 392 464 c 0,33,34
 419 432 419 432 419 388 c 0,35,36
 419 285 419 285 287 255 c 1,37,-1
 398 101 l 2,38,39
 436 49 436 49 463 31 c 0,40,41
 487 15 487 15 531 10 c 1,42,-1
 531 0 l 1,0,-1
336 383 m 0,43,44
 336 435 336 435 304.5 465.5 c 128,-1,45
 273 496 273 496 221 496 c 0,46,47
 192 496 192 496 158 488 c 1,48,-1
 158 265 l 1,49,-1
 182 265 l 2,50,51
 247 265 247 265 287 291 c 0,52,53
 336 322 336 322 336 383 c 0,43,44
EndSplineSet
EndChar

StartChar: S
Encoding: 83 83 53
Width: 437
GlyphClass: 2
Flags: W
LayerCount: 2
Fore
SplineSet
395 132 m 0,0,1
 395 75 395 75 349.5 31.5 c 128,-1,2
 304 -12 304 -12 231 -12 c 0,3,4
 206 -12 206 -12 189.5 -8.5 c 128,-1,5
 173 -5 173 -5 139 6 c 0,6,7
 101 18 101 18 90 18 c 0,8,9
 69 18 69 18 64 -12 c 1,10,-1
 54 -12 l 1,11,-1
 54 163 l 1,12,-1
 64 163 l 1,13,14
 75 110 75 110 88 86 c 0,15,16
 106 53 106 53 145 32 c 0,17,18
 181 13 181 13 223 13 c 0,19,20
 266 13 266 13 298.5 37 c 128,-1,21
 331 61 331 61 331 102 c 0,22,23
 331 145 331 145 286 180 c 0,24,25
 273 190 273 190 203 229 c 0,26,27
 125 273 125 273 100 294 c 0,28,29
 49 338 49 338 49 397 c 0,30,31
 49 457 49 457 96 496 c 0,32,33
 140 533 140 533 201 533 c 0,34,35
 243 533 243 533 290 512 c 0,36,37
 312 502 312 502 321 502 c 0,38,39
 345 502 345 502 350 533 c 1,40,-1
 360 533 l 1,41,-1
 360 356 l 1,42,-1
 350 356 l 1,43,44
 339 451 339 451 273 488 c 0,45,46
 239 507 239 507 202 507 c 256,47,48
 165 507 165 507 137 484 c 1,49,50
 106 460 106 460 106 424 c 0,51,52
 106 399 106 399 123 378 c 0,53,54
 146 349 146 349 239 300 c 0,55,56
 314 260 314 260 339 240.5 c 128,-1,57
 364 221 364 221 381 191 c 1,58,59
 395 160 395 160 395 132 c 0,0,1
EndSplineSet
EndChar

StartChar: T
Encoding: 84 84 54
Width: 480
GlyphClass: 2
Flags: W
LayerCount: 2
Fore
SplineSet
461 402 m 1,0,-1
 451 402 l 1,1,2
 447 433 447 433 439 448 c 0,3,4
 415 493 415 493 352 493 c 2,5,-1
 276 493 l 1,6,-1
 276 89 l 2,7,8
 276 39 276 39 287 26 c 0,9,10
 302 9 302 9 334 9 c 2,11,-1
 350 9 l 1,12,-1
 350 0 l 1,13,-1
 131 0 l 1,14,-1
 131 9 l 1,15,-1
 148 9 l 2,16,17
 182 9 182 9 197 31 c 0,18,19
 206 44 206 44 206 89 c 2,20,-1
 206 493 l 1,21,-1
 140 493 l 2,22,23
 75 493 75 493 51 458 c 0,24,25
 37 437 37 437 34 402 c 1,26,-1
 24 402 l 1,27,-1
 30 521 l 1,28,-1
 455 521 l 1,29,-1
 461 402 l 1,0,-1
EndSplineSet
EndChar

StartChar: U
Encoding: 85 85 55
Width: 568
GlyphClass: 2
Flags: W
LayerCount: 2
Fore
SplineSet
559 511 m 1,0,-1
 542 511 l 2,1,2
 509 511 509 511 492 484 c 0,3,4
 484 471 484 471 484 427 c 2,5,-1
 484 214 l 2,6,7
 484 135 484 135 468 91.5 c 128,-1,8
 452 48 452 48 408 18 c 128,-1,9
 364 -12 364 -12 284 -12 c 0,10,11
 133 -12 133 -12 93 96 c 0,12,13
 81 128 81 128 81 225 c 2,14,-1
 81 430 l 2,15,16
 81 471 81 471 71 488 c 0,17,18
 58 511 58 511 21 511 c 2,19,-1
 4 511 l 1,20,-1
 4 521 l 1,21,-1
 226 521 l 1,22,-1
 226 511 l 1,23,-1
 209 511 l 2,24,25
 175 511 175 511 160 490 c 0,26,27
 150 476 150 476 150 430 c 2,28,-1
 150 201 l 2,29,30
 150 106 150 106 176 68 c 0,31,32
 212 16 212 16 289 16 c 0,33,34
 336 16 336 16 377 36 c 0,35,36
 423 59 423 59 439 98 c 0,37,38
 454 134 454 134 454 217 c 2,39,-1
 454 430 l 2,40,41
 454 480 454 480 443 494 c 1,42,43
 426 511 426 511 396 511 c 2,44,-1
 379 511 l 1,45,-1
 379 521 l 1,46,-1
 559 521 l 1,47,-1
 559 511 l 1,0,-1
EndSplineSet
EndChar

StartChar: V
Encoding: 86 86 56
Width: 568
GlyphClass: 2
Flags: W
LayerCount: 2
Fore
SplineSet
558 511 m 1,0,1
 508 501 508 501 480 434 c 2,2,-1
 297 -12 l 1,3,-1
 286 -12 l 1,4,-1
 90 440 l 2,5,6
 74 477 74 477 68 483 c 1,7,8
 49 509 49 509 7 511 c 1,9,-1
 7 521 l 1,10,-1
 217 521 l 1,11,-1
 217 511 l 1,12,13
 180 508 180 508 169 498.5 c 128,-1,14
 158 489 158 489 158 474 c 0,15,16
 158 453 158 453 176 412 c 2,17,-1
 313 98 l 1,18,-1
 439 408 l 2,19,20
 457 452 457 452 457 472 c 0,21,22
 457 500 457 500 406 510 c 2,23,-1
 401 511 l 1,24,-1
 401 521 l 1,25,-1
 558 521 l 1,26,-1
 558 511 l 1,0,1
EndSplineSet
EndChar

StartChar: W
Encoding: 87 87 57
Width: 742
GlyphClass: 2
Flags: W
LayerCount: 2
Fore
SplineSet
736 511 m 1,0,1
 717 511 717 511 704 504 c 1,2,3
 687 492 687 492 679 475 c 1,4,5
 675 470 675 470 654 410 c 2,6,-1
 509 -12 l 1,7,-1
 497 -12 l 1,8,-1
 376 329 l 1,9,-1
 255 -12 l 1,10,-1
 245 -12 l 1,11,-1
 89 423 l 2,12,13
 71 474 71 474 67 481 c 0,14,15
 51 511 51 511 10 511 c 1,16,-1
 10 521 l 1,17,-1
 199 521 l 1,18,-1
 199 511 l 1,19,-1
 193 511 l 2,20,21
 172 511 172 511 160 501 c 128,-1,22
 148 491 148 491 148 477 c 0,23,24
 148 462 148 462 165 414 c 2,25,-1
 271 112 l 1,26,-1
 360 371 l 1,27,-1
 345 416 l 1,28,-1
 332 451 l 2,29,30
 326 466 326 466 314 486 c 1,31,32
 308 493 308 493 301 499 c 1,33,34
 281 511 281 511 259 511 c 1,35,-1
 259 521 l 1,36,-1
 459 521 l 1,37,-1
 459 511 l 1,38,-1
 447 511 l 2,39,40
 424 511 424 511 413.5 502 c 128,-1,41
 403 493 403 493 403 474 c 0,42,43
 403 453 403 453 420 405 c 2,44,-1
 523 112 l 1,45,-1
 625 408 l 2,46,47
 643 460 643 460 643 476 c 0,48,49
 643 496 643 496 621 506 c 1,50,51
 604 511 604 511 585 511 c 1,52,-1
 585 521 l 1,53,-1
 736 521 l 1,54,-1
 736 511 l 1,0,1
EndSplineSet
EndChar

StartChar: X
Encoding: 88 88 58
Width: 568
GlyphClass: 2
Flags: W
LayerCount: 2
Fore
SplineSet
559 0 m 1,0,-1
 338 0 l 1,1,-1
 338 9 l 1,2,3
 350 10 350 10 370 14 c 1,4,5
 390 22 390 22 390 42 c 0,6,7
 390 51 390 51 387 59 c 128,-1,8
 384 67 384 67 365 95 c 2,9,-1
 274 233 l 1,10,-1
 162 89 l 2,11,12
 152 77 152 77 140 58 c 1,13,14
 137 50 137 50 137 42 c 0,15,16
 137 11 137 11 187 9 c 1,17,-1
 187 0 l 1,18,-1
 6 0 l 1,19,-1
 6 10 l 1,20,21
 26 13 26 13 38 18 c 0,22,23
 68 32 68 32 86.5 46 c 128,-1,24
 105 60 105 60 135 98 c 2,25,-1
 260 256 l 1,26,-1
 155 409 l 2,27,28
 110 473 110 473 82.5 491 c 128,-1,29
 55 509 55 509 16 511 c 1,30,-1
 16 521 l 1,31,-1
 254 521 l 1,32,-1
 254 511 l 1,33,34
 200 509 200 509 200 479 c 0,35,36
 200 464 200 464 219 436 c 2,37,-1
 302 312 l 1,38,-1
 397 433 l 2,39,40
 406 445 406 445 418 462 c 1,41,42
 422 471 422 471 422 479 c 0,43,44
 422 489 422 489 415.5 496.5 c 128,-1,45
 409 504 409 504 401 508 c 1,46,47
 390 511 390 511 365 511 c 1,48,-1
 365 521 l 1,49,-1
 547 521 l 1,50,-1
 547 511 l 1,51,52
 524 509 524 509 512 504 c 0,53,54
 475 489 475 489 424 424 c 2,55,-1
 318 289 l 1,56,-1
 432 119 l 2,57,58
 478 50 478 50 502 30 c 0,59,60
 523 12 523 12 559 9 c 1,61,-1
 559 0 l 1,0,-1
EndSplineSet
EndChar

StartChar: Y
Encoding: 89 89 59
Width: 568
GlyphClass: 2
Flags: W
LayerCount: 2
Fore
SplineSet
556 511 m 1,0,-1
 549 511 l 2,1,2
 517 511 517 511 482 476 c 0,3,4
 471 465 471 465 443 421 c 2,5,-1
 316 221 l 1,6,-1
 316 89 l 2,7,8
 316 37 316 37 327 26 c 0,9,10
 343 9 343 9 376 9 c 2,11,-1
 390 9 l 1,12,-1
 390 0 l 1,13,-1
 172 0 l 1,14,-1
 172 9 l 1,15,-1
 188 9 l 2,16,17
 224 9 224 9 237 31 c 1,18,19
 246 43 246 43 246 89 c 2,20,-1
 246 214 l 1,21,-1
 102 435 l 2,22,23
 90 454 90 454 67 483 c 1,24,25
 58 492 58 492 28 507 c 0,26,27
 20 511 20 511 7 511 c 1,28,-1
 7 521 l 1,29,-1
 227 521 l 1,30,-1
 227 511 l 1,31,-1
 218 511 l 2,32,33
 202 511 202 511 184.5 502 c 128,-1,34
 167 493 167 493 167 475 c 0,35,36
 167 460 167 460 191 423 c 2,37,-1
 302 250 l 1,38,-1
 408 416 l 2,39,40
 431 452 431 452 431 471 c 0,41,42
 431 495 431 495 408 506 c 0,43,44
 398 511 398 511 378 511 c 1,45,-1
 378 521 l 1,46,-1
 556 521 l 1,47,-1
 556 511 l 1,0,-1
EndSplineSet
EndChar

StartChar: Z
Encoding: 90 90 60
Width: 480
GlyphClass: 2
Flags: W
LayerCount: 2
Fore
SplineSet
458 135 m 1,0,-1
 434 0 l 1,1,-1
 10 0 l 1,2,-1
 10 11 l 1,3,-1
 350 494 l 1,4,-1
 177 494 l 2,5,6
 106 494 106 494 85 458 c 0,7,8
 74 439 74 439 67 394 c 1,9,-1
 57 394 l 1,10,-1
 68 521 l 1,11,-1
 450 521 l 1,12,-1
 104 27 l 1,13,-1
 325 27 l 2,14,15
 381 27 381 27 409 55 c 0,16,17
 431 77 431 77 450 136 c 1,18,-1
 458 135 l 1,0,-1
EndSplineSet
EndChar

StartChar: bracketleft
Encoding: 91 91 61
Width: 417
GlyphClass: 2
Flags: W
LayerCount: 2
Fore
SplineSet
311 -48 m 1,0,-1
 285 -89 l 1,1,-1
 100 -89 l 1,2,-1
 100 619 l 1,3,-1
 311 619 l 1,4,-1
 285 578 l 1,5,-1
 154 578 l 1,6,-1
 154 -48 l 1,7,-1
 311 -48 l 1,0,-1
EndSplineSet
EndChar

StartChar: backslash
Encoding: 92 92 62
Width: 267
GlyphClass: 2
Flags: W
LayerCount: 2
Fore
SplineSet
252 14 m 1,0,-1
 220 -1 l 1,1,-1
 17 525 l 1,2,-1
 49 540 l 1,3,-1
 252 14 l 1,0,-1
EndSplineSet
EndChar

StartChar: bracketright
Encoding: 93 93 63
Width: 417
GlyphClass: 2
Flags: W
LayerCount: 2
Fore
SplineSet
314 -89 m 1,0,-1
 128 -89 l 1,1,-1
 103 -48 l 1,2,-1
 260 -48 l 1,3,-1
 260 578 l 1,4,-1
 128 578 l 1,5,-1
 103 619 l 1,6,-1
 314 619 l 1,7,-1
 314 -89 l 1,0,-1
EndSplineSet
EndChar

StartChar: asciicircum
Encoding: 94 94 64
Width: 398
GlyphClass: 2
Flags: W
LayerCount: 2
Fore
SplineSet
356 366 m 1,0,-1
 300 366 l 1,1,-1
 191 496 l 1,2,-1
 92 366 l 1,3,-1
 35 366 l 1,4,-1
 166 549 l 1,5,-1
 218 549 l 1,6,-1
 356 366 l 1,0,-1
EndSplineSet
EndChar

StartChar: underscore
Encoding: 95 95 65
Width: 639
GlyphClass: 2
Flags: W
LayerCount: 2
Fore
SplineSet
633 -149 m 1,0,-1
 28 -149 l 1,1,-1
 4 -110 l 1,2,-1
 609 -110 l 1,3,-1
 633 -149 l 1,0,-1
EndSplineSet
EndChar

StartChar: a
Encoding: 97 97 66
Width: 349
GlyphClass: 2
Flags: W
LayerCount: 2
Fore
SplineSet
348 50 m 1,0,1
 306 -7 306 -7 267 -7 c 0,2,3
 238 -7 238 -7 230 23 c 0,4,5
 227 34 227 34 227 54 c 1,6,-1
 179 18 l 2,7,8
 161 5 161 5 154 2 c 0,9,10
 134 -7 134 -7 111 -7 c 0,11,12
 74 -7 74 -7 51 17 c 128,-1,13
 28 41 28 41 28 82 c 0,14,15
 28 137 28 137 94 175 c 0,16,17
 129 196 129 196 227 232 c 1,18,-1
 227 248 l 2,19,20
 227 343 227 343 158 343 c 0,21,22
 133 343 133 343 118 329.5 c 128,-1,23
 103 316 103 316 103 304 c 1,24,25
 102 299 102 299 103 275 c 0,26,27
 104 240 104 240 72 240 c 0,28,29
 59 240 59 240 50.5 250 c 128,-1,30
 42 260 42 260 42 275 c 0,31,32
 42 319 42 319 87 343 c 0,33,34
 123 362 123 362 170 362 c 256,35,36
 217 362 217 362 247 346 c 0,37,38
 268 335 268 335 279 310 c 0,39,40
 286 294 286 294 286 242 c 2,41,-1
 286 121 l 2,42,43
 286 70 286 70 289.5 57 c 128,-1,44
 293 44 293 44 296 42 c 0,45,46
 301 37 301 37 308 37 c 0,47,48
 317 37 317 37 348 65 c 1,49,-1
 348 50 l 1,0,1
227 73 m 1,50,-1
 227 214 l 1,51,-1
 176 193 l 2,52,53
 158 185 158 185 147 179 c 0,54,55
 88 147 88 147 88 100 c 0,56,57
 88 74 88 74 104.5 53.5 c 128,-1,58
 121 33 121 33 146 33 c 0,59,60
 178 33 178 33 227 73 c 1,50,-1
EndSplineSet
EndChar

StartChar: b
Encoding: 98 98 67
Width: 393
GlyphClass: 2
Flags: W
LayerCount: 2
Fore
SplineSet
366 189 m 0,0,1
 366 94 366 94 304 38 c 0,2,3
 250 -11 250 -11 185 -11 c 0,4,5
 125 -11 125 -11 58 33 c 1,6,-1
 58 399 l 2,7,8
 58 483 58 483 45 495 c 0,9,10
 40 500 40 500 28 500 c 0,11,12
 20 500 20 500 2 495 c 1,13,-1
 -1 504 l 1,14,-1
 103 546 l 1,15,-1
 118 546 l 1,16,-1
 118 283 l 1,17,18
 171 360 171 360 232 360 c 0,19,20
 286 360 286 360 326 315 c 128,-1,21
 366 270 366 270 366 189 c 0,0,1
304 167 m 256,22,23
 304 222 304 222 281 262 c 0,24,25
 252 310 252 310 201 310 c 0,26,27
 164 310 164 310 118 268 c 1,28,-1
 118 53 l 1,29,30
 159 12 159 12 205 12 c 0,31,32
 255 12 255 12 282 68 c 0,33,34
 304 112 304 112 304 167 c 256,22,23
EndSplineSet
EndChar

StartChar: c
Encoding: 99 99 68
Width: 349
GlyphClass: 2
Flags: W
LayerCount: 2
Fore
SplineSet
323 132 m 1,0,1
 310 72 310 72 274 33 c 0,2,3
 233 -11 233 -11 176 -11 c 0,4,5
 106 -11 106 -11 64 49 c 0,6,7
 27 102 27 102 27 175 c 0,8,9
 27 259 27 259 76.5 310.5 c 128,-1,10
 126 362 126 362 195 362 c 0,11,12
 235 362 235 362 271 341 c 0,13,14
 313 317 313 317 313 279 c 0,15,16
 313 264 313 264 304.5 256 c 128,-1,17
 296 248 296 248 279 248 c 0,18,19
 258 248 258 248 247 262 c 0,20,21
 240 271 240 271 238 292 c 0,22,23
 233 341 233 341 182 341 c 0,24,25
 134 341 134 341 107 298 c 1,26,27
 85 261 85 261 85 209 c 0,28,29
 85 147 85 147 113 101 c 0,30,31
 146 45 146 45 204 45 c 0,32,33
 243 45 243 45 274 72 c 0,34,35
 297 92 297 92 316 135 c 1,36,-1
 323 132 l 1,0,1
EndSplineSet
EndChar

StartChar: d
Encoding: 100 100 69
Width: 393
GlyphClass: 2
Flags: W
LayerCount: 2
Fore
SplineSet
395 32 m 1,0,-1
 291 -11 l 1,1,-1
 276 -11 l 1,2,-1
 276 44 l 1,3,4
 224 -11 224 -11 169 -11 c 0,5,6
 104 -11 104 -11 63 44 c 0,7,8
 26 93 26 93 26 160 c 0,9,10
 26 236 26 236 72 296 c 0,11,12
 122 361 122 361 196 361 c 0,13,14
 241 361 241 361 276 328 c 1,15,-1
 276 399 l 2,16,17
 276 483 276 483 263 495 c 0,18,19
 258 500 258 500 246 500 c 0,20,21
 239 500 239 500 221 495 c 1,22,-1
 218 504 l 1,23,-1
 321 546 l 1,24,-1
 336 546 l 1,25,-1
 336 138 l 2,26,27
 336 53 336 53 349 41 c 0,28,29
 356 35 356 35 365 35 c 0,30,31
 375 35 375 35 392 41 c 1,32,-1
 395 32 l 1,0,-1
276 64 m 1,33,-1
 276 248 l 2,34,35
 276 304 276 304 230 330 c 0,36,37
 209 342 209 342 191 342 c 0,38,39
 141 342 141 342 114 289 c 0,40,41
 92 246 92 246 92 191 c 0,42,43
 92 130 92 130 117 84 c 0,44,45
 149 27 149 27 205 27 c 0,46,47
 242 27 242 27 276 64 c 1,33,-1
EndSplineSet
EndChar

StartChar: e
Encoding: 101 101 70
Width: 349
GlyphClass: 2
Flags: W
LayerCount: 2
Fore
SplineSet
327 126 m 1,0,1
 318 74 318 74 279.5 31.5 c 128,-1,2
 241 -11 241 -11 183 -11 c 0,3,4
 111 -11 111 -11 68 45 c 0,5,6
 29 96 29 96 29 171 c 0,7,8
 29 260 29 260 75.5 311.5 c 128,-1,9
 122 363 122 363 192 363 c 0,10,11
 254 363 254 363 289.5 324 c 128,-1,12
 325 285 325 285 327 222 c 1,13,-1
 80 222 l 1,14,15
 78 141 78 141 118.5 94.5 c 128,-1,16
 159 48 159 48 213 48 c 0,17,18
 287 48 287 48 318 132 c 1,19,-1
 327 126 l 1,0,1
250 240 m 1,20,21
 249 259 249 259 242 292 c 1,22,23
 218 340 218 340 170 340 c 0,24,25
 130 340 130 340 106.5 310.5 c 128,-1,26
 83 281 83 281 79 240 c 1,27,-1
 250 240 l 1,20,21
EndSplineSet
EndChar

StartChar: f
Encoding: 102 102 71
Width: 262
GlyphClass: 2
Flags: W
LayerCount: 2
Fore
SplineSet
342 482 m 0,0,1
 342 471 342 471 332.5 462 c 128,-1,2
 323 453 323 453 312 453 c 0,3,4
 293 453 293 453 271 485 c 0,5,6
 259 503 259 503 244 515 c 1,7,8
 231 522 231 522 216 522 c 0,9,10
 194 522 194 522 184 512 c 1,11,12
 170 502 170 502 165 482 c 0,13,14
 159 458 159 458 159 378 c 2,15,-1
 159 350 l 1,16,-1
 251 350 l 1,17,-1
 251 327 l 1,18,-1
 159 327 l 1,19,-1
 159 91 l 2,20,21
 159 41 159 41 171 27 c 0,22,23
 187 9 187 9 211 9 c 2,24,-1
 241 9 l 1,25,-1
 241 0 l 1,26,-1
 33 0 l 1,27,-1
 33 9 l 1,28,-1
 46 9 l 2,29,30
 83 9 83 9 95 39 c 1,31,32
 100 57 100 57 100 91 c 2,33,-1
 100 327 l 1,34,-1
 30 327 l 1,35,-1
 30 350 l 1,36,-1
 100 350 l 1,37,-1
 100 376 l 2,38,39
 100 478 100 478 168 523 c 0,40,41
 201 545 201 545 246 545 c 0,42,43
 287 545 287 545 320 519 c 0,44,45
 342 502 342 502 342 482 c 0,0,1
EndSplineSet
EndChar

StartChar: g
Encoding: 103 103 72
Width: 393
GlyphClass: 2
Flags: W
LayerCount: 2
Fore
SplineSet
379 323 m 0,0,1
 379 316 379 316 377 310 c 1,2,-1
 375 308 l 1,3,4
 372 308 372 308 366 308 c 0,5,6
 359 307 359 307 356 307 c 2,7,-1
 304 307 l 1,8,9
 329 277 329 277 329 234 c 0,10,11
 329 180 329 180 286 147 c 0,12,13
 247 116 247 116 191 116 c 0,14,15
 168 116 168 116 136 124 c 1,16,17
 105 98 105 98 105 77 c 0,18,19
 105 57 105 57 139 52 c 0,20,21
 141 52 141 52 193 50 c 0,22,23
 272 48 272 48 277 47 c 0,24,25
 331 41 331 41 352.5 18.5 c 128,-1,26
 374 -4 374 -4 374 -33 c 0,27,28
 374 -78 374 -78 334 -114 c 0,29,30
 273 -170 273 -170 177 -170 c 0,31,32
 101 -170 101 -170 51 -136 c 0,33,34
 23 -117 23 -117 23 -98 c 0,35,36
 23 -90 23 -90 27 -81 c 1,37,38
 38 -62 38 -62 54 -41 c 1,39,-1
 96 3 l 1,40,41
 58 25 58 25 58 45 c 0,42,43
 58 67 58 67 87 97 c 0,44,45
 99 110 99 110 122 129 c 1,46,47
 86 147 86 147 69 174.5 c 128,-1,48
 52 202 52 202 52 236 c 0,49,50
 52 293 52 293 93 327.5 c 128,-1,51
 134 362 134 362 192 362 c 0,52,53
 243 362 243 362 280 337 c 1,54,-1
 356 337 l 2,55,56
 373 337 373 337 374 336 c 1,57,58
 379 336 379 336 379 323 c 0,0,1
266 224 m 0,59,60
 266 286 266 286 238 322 c 0,61,62
 217 349 217 349 185 349 c 0,63,64
 115 349 115 349 115 253 c 0,65,66
 115 206 115 206 131 173 c 0,67,68
 153 130 153 130 195 130 c 0,69,70
 266 130 266 130 266 224 c 0,59,60
351 -49 m 0,71,72
 351 -17 351 -17 299 -11 c 0,73,74
 273 -7 273 -7 248 -7 c 0,75,76
 158 -5 158 -5 113 2 c 1,77,78
 74 -40 74 -40 74 -69 c 0,79,80
 74 -102 74 -102 131 -118 c 0,81,82
 168 -128 168 -128 212 -128 c 0,83,84
 261 -128 261 -128 299 -112 c 0,85,86
 351 -91 351 -91 351 -49 c 0,71,72
EndSplineSet
EndChar

StartChar: h
Encoding: 104 104 73
Width: 393
GlyphClass: 2
Flags: W
LayerCount: 2
Fore
SplineSet
388 0 m 1,0,-1
 218 0 l 1,1,-1
 218 9 l 1,2,-1
 224 9 l 2,3,4
 266 9 266 9 275 41 c 0,5,6
 276 43 276 43 276 53 c 2,7,-1
 276 203 l 2,8,9
 276 263 276 263 270 280 c 0,10,11
 256 319 256 319 216 319 c 0,12,13
 175 319 175 319 124 266 c 1,14,-1
 124 78 l 2,15,16
 124 37 124 37 134 23 c 128,-1,17
 144 9 144 9 182 9 c 1,18,-1
 182 0 l 1,19,-1
 10 0 l 1,20,-1
 10 9 l 1,21,22
 32 9 32 9 46 17 c 1,23,24
 65 25 65 25 65 78 c 2,25,-1
 65 399 l 2,26,27
 65 483 65 483 52 495 c 0,28,29
 47 500 47 500 34 500 c 0,30,31
 29 500 29 500 9 495 c 1,32,-1
 6 504 l 1,33,-1
 110 546 l 1,34,-1
 124 546 l 1,35,-1
 124 282 l 1,36,37
 174 336 174 336 196.5 348 c 128,-1,38
 219 360 219 360 246 360 c 0,39,40
 308 360 308 360 328 293 c 0,41,42
 335 270 335 270 335 203 c 2,43,-1
 335 78 l 2,44,45
 335 31 335 31 355 15 c 1,46,47
 365 9 365 9 388 9 c 1,48,-1
 388 0 l 1,0,-1
EndSplineSet
EndChar

StartChar: i
Encoding: 105 105 74
Width: 218
GlyphClass: 2
Flags: W
LayerCount: 2
Fore
SplineSet
151 509 m 0,0,1
 151 493 151 493 141 483 c 1,2,3
 127 472 127 472 114 472 c 256,4,5
 101 472 101 472 88.5 484.5 c 128,-1,6
 76 497 76 497 76 509 c 0,7,8
 76 524 76 524 88.5 535 c 128,-1,9
 101 546 101 546 114 546 c 0,10,11
 151 546 151 546 151 509 c 0,0,1
199 0 m 1,12,-1
 29 0 l 1,13,-1
 29 9 l 1,14,15
 50 9 50 9 63 14 c 1,16,17
 84 29 84 29 84 78 c 2,18,-1
 84 215 l 2,19,20
 84 273 84 273 80 290 c 0,21,22
 74 314 74 314 53 314 c 0,23,24
 45 314 45 314 27 309 c 1,25,-1
 24 318 l 1,26,-1
 130 360 l 1,27,-1
 144 360 l 1,28,-1
 144 78 l 2,29,30
 144 28 144 28 165 15 c 0,31,32
 175 9 175 9 199 9 c 1,33,-1
 199 0 l 1,12,-1
EndSplineSet
EndChar

StartChar: j
Encoding: 106 106 75
Width: 218
GlyphClass: 2
Flags: W
LayerCount: 2
Fore
SplineSet
153 509 m 0,0,1
 153 493 153 493 142 482.5 c 128,-1,2
 131 472 131 472 115 472 c 0,3,4
 100 472 100 472 89 483 c 128,-1,5
 78 494 78 494 78 509 c 0,6,7
 78 546 78 546 115 546 c 0,8,9
 153 546 153 546 153 509 c 0,0,1
147 7 m 2,10,11
 147 -84 147 -84 108 -127 c 128,-1,12
 69 -170 69 -170 8 -170 c 0,13,14
 -14 -170 -14 -170 -34 -162 c 0,15,16
 -60 -152 -60 -152 -60 -133 c 0,17,18
 -60 -121 -60 -121 -51.5 -112 c 128,-1,19
 -43 -103 -43 -103 -31 -103 c 0,20,21
 -24 -103 -24 -103 -11 -108 c 0,22,23
 -5 -110 -5 -110 14 -127 c 128,-1,24
 33 -144 33 -144 48 -144 c 0,25,26
 61 -144 61 -144 68 -137 c 1,27,28
 87 -122 87 -122 87 -38 c 2,29,-1
 87 214 l 2,30,31
 87 277 87 277 83 290 c 1,32,33
 79 314 79 314 56 314 c 0,34,35
 43 314 43 314 31 309 c 1,36,-1
 27 319 l 1,37,-1
 133 361 l 1,38,-1
 147 361 l 1,39,-1
 147 7 l 2,10,11
EndSplineSet
EndChar

StartChar: k
Encoding: 107 107 76
Width: 393
GlyphClass: 2
Flags: W
LayerCount: 2
Fore
SplineSet
398 0 m 1,0,-1
 230 0 l 1,1,-1
 230 9 l 1,2,3
 255 9 255 9 255 27 c 0,4,5
 255 38 255 38 239 58 c 2,6,-1
 131 194 l 1,7,-1
 125 189 l 1,8,-1
 125 77 l 2,9,10
 125 46 125 46 130 31 c 1,11,12
 135 20 135 20 146 14.5 c 128,-1,13
 157 9 157 9 183 9 c 1,14,-1
 183 0 l 1,15,-1
 7 0 l 1,16,-1
 7 9 l 1,17,18
 50 9 50 9 60 30 c 0,19,20
 66 42 66 42 66 75 c 2,21,-1
 66 399 l 2,22,23
 66 485 66 485 53 495 c 0,24,25
 45 501 45 501 35 501 c 0,26,27
 27 501 27 501 12 495 c 1,28,-1
 7 504 l 1,29,-1
 110 546 l 1,30,-1
 125 546 l 1,31,-1
 125 202 l 1,32,-1
 131 194 l 1,33,-1
 220 276 l 2,34,35
 249 303 249 303 253 309 c 128,-1,36
 257 315 257 315 257 320 c 0,37,38
 257 342 257 342 230 342 c 1,39,-1
 230 350 l 1,40,-1
 380 350 l 1,41,-1
 380 343 l 1,42,43
 349 341 349 341 329 333.5 c 128,-1,44
 309 326 309 326 281 300 c 2,45,-1
 188 215 l 1,46,-1
 281 98 l 1,47,48
 297 76 297 76 332 37 c 1,49,50
 348 22 348 22 366 13 c 0,51,52
 374 9 374 9 398 9 c 1,53,-1
 398 0 l 1,0,-1
EndSplineSet
EndChar

StartChar: l
Encoding: 108 108 77
Width: 218
GlyphClass: 2
Flags: W
LayerCount: 2
Fore
SplineSet
202 0 m 1,0,-1
 30 0 l 1,1,-1
 30 9 l 1,2,3
 50 9 50 9 63 14 c 1,4,5
 83 28 83 28 83 78 c 2,6,-1
 83 448 l 2,7,8
 83 485 83 485 71 495 c 0,9,10
 64 500 64 500 54 500 c 0,11,12
 47 500 47 500 29 495 c 1,13,-1
 24 504 l 1,14,-1
 129 546 l 1,15,-1
 144 546 l 1,16,-1
 144 78 l 2,17,18
 144 47 144 47 149 32 c 1,19,20
 163 9 163 9 202 9 c 1,21,-1
 202 0 l 1,0,-1
EndSplineSet
EndChar

StartChar: m
Encoding: 109 109 78
Width: 612
GlyphClass: 2
Flags: W
LayerCount: 2
Fore
SplineSet
608 0 m 1,0,-1
 438 0 l 1,1,-1
 438 9 l 1,2,-1
 443 9 l 2,3,4
 466 9 466 9 480 18 c 1,5,6
 496 31 496 31 496 78 c 2,7,-1
 496 231 l 2,8,9
 496 320 496 320 434 320 c 0,10,11
 396 320 396 320 340 271 c 1,12,-1
 340 78 l 2,13,14
 340 37 340 37 350 23 c 128,-1,15
 360 9 360 9 398 9 c 1,16,-1
 398 0 l 1,17,-1
 224 0 l 1,18,-1
 224 9 l 1,19,20
 270 9 270 9 279 39 c 0,21,22
 281 46 281 46 281 78 c 2,23,-1
 281 231 l 2,24,25
 281 322 281 322 219 322 c 0,26,27
 198 322 198 322 176 310 c 0,28,29
 140 291 140 291 125 270 c 1,30,-1
 125 78 l 2,31,32
 125 46 125 46 130 31 c 1,33,34
 144 9 144 9 183 9 c 1,35,-1
 183 0 l 1,36,-1
 12 0 l 1,37,-1
 12 9 l 1,38,39
 34 9 34 9 45 15 c 1,40,41
 66 23 66 23 66 78 c 2,42,-1
 66 214 l 2,43,44
 66 273 66 273 63 291 c 1,45,46
 56 315 56 315 36 315 c 0,47,48
 23 315 23 315 11 310 c 1,49,-1
 7 320 l 1,50,-1
 111 362 l 1,51,-1
 125 362 l 1,52,-1
 125 283 l 1,53,-1
 160 318 l 2,54,55
 170 328 170 328 175 332 c 0,56,57
 213 362 213 362 251 362 c 0,58,59
 319 362 319 362 339 283 c 1,60,61
 387 337 387 337 409 348 c 0,62,63
 437 362 437 362 464 362 c 0,64,65
 522 362 522 362 546 301 c 0,66,67
 555 278 555 278 555 231 c 2,68,-1
 555 78 l 2,69,70
 555 42 555 42 560.5 32 c 128,-1,71
 566 22 566 22 576.5 15.5 c 128,-1,72
 587 9 587 9 608 9 c 1,73,-1
 608 0 l 1,0,-1
EndSplineSet
EndChar

StartChar: n
Encoding: 110 110 79
Width: 393
GlyphClass: 2
Flags: W
LayerCount: 2
Fore
SplineSet
390 0 m 1,0,-1
 219 0 l 1,1,-1
 219 9 l 1,2,-1
 223 9 l 2,3,4
 249 9 249 9 259.5 17.5 c 128,-1,5
 270 26 270 26 275 41 c 0,6,7
 276 43 276 43 276 53 c 2,8,-1
 276 224 l 2,9,10
 276 319 276 319 218 319 c 0,11,12
 170 319 170 319 124 267 c 1,13,-1
 124 78 l 2,14,15
 124 40 124 40 128 32 c 0,16,17
 134 19 134 19 144 14 c 128,-1,18
 154 9 154 9 182 9 c 1,19,-1
 182 0 l 1,20,-1
 10 0 l 1,21,-1
 10 9 l 1,22,-1
 16 9 l 2,23,24
 43 9 43 9 54 24.5 c 128,-1,25
 65 40 65 40 65 78 c 2,26,-1
 65 210 l 2,27,28
 65 297 65 297 52 310 c 1,29,30
 45 315 45 315 34 315 c 256,31,32
 23 315 23 315 9 310 c 1,33,-1
 5 320 l 1,34,-1
 110 362 l 1,35,-1
 124 362 l 1,36,-1
 124 282 l 1,37,38
 191 362 191 362 246 362 c 0,39,40
 306 362 306 362 327 301 c 0,41,42
 335 277 335 277 335 230 c 2,43,-1
 335 78 l 2,44,45
 335 26 335 26 356 15 c 1,46,47
 365 9 365 9 390 9 c 1,48,-1
 390 0 l 1,0,-1
EndSplineSet
EndChar

StartChar: o
Encoding: 111 111 80
Width: 393
GlyphClass: 2
Flags: W
LayerCount: 2
Fore
SplineSet
366 182 m 0,0,1
 366 134 366 134 343 88 c 1,2,3
 320 38 320 38 280.5 13.5 c 128,-1,4
 241 -11 241 -11 192 -11 c 0,5,6
 119 -11 119 -11 71 45 c 0,7,8
 26 98 26 98 26 172 c 0,9,10
 26 220 26 220 50 268 c 128,-1,11
 74 316 74 316 113.5 339 c 128,-1,12
 153 362 153 362 197 362 c 0,13,14
 272 362 272 362 319 309.5 c 128,-1,15
 366 257 366 257 366 182 c 0,0,1
299 153 m 0,16,17
 299 248 299 248 257 304 c 0,18,19
 228 342 228 342 185 342 c 0,20,21
 161 342 161 342 142 329 c 1,22,23
 94 304 94 304 94 205 c 0,24,25
 94 138 94 138 118 83 c 0,26,27
 150 12 150 12 209 12 c 0,28,29
 299 12 299 12 299 153 c 0,16,17
EndSplineSet
EndChar

StartChar: p
Encoding: 112 112 81
Width: 393
GlyphClass: 2
Flags: W
LayerCount: 2
Fore
SplineSet
366 189 m 0,0,1
 366 110 366 110 326 54 c 0,2,3
 282 -9 282 -9 206 -9 c 0,4,5
 165 -9 165 -9 141 8 c 0,6,7
 132 14 132 14 119 25 c 1,8,-1
 119 -89 l 2,9,10
 119 -128 119 -128 123 -136 c 0,11,12
 137 -159 137 -159 179 -159 c 1,13,-1
 179 -168 l 1,14,-1
 -3 -168 l 1,15,-1
 -3 -159 l 1,16,-1
 5 -159 l 2,17,18
 45 -159 45 -159 55 -135 c 1,19,20
 59 -128 59 -128 59 -86 c 2,21,-1
 59 250 l 2,22,23
 59 283 59 283 56 294 c 1,24,25
 48 314 48 314 25 314 c 0,26,27
 14 314 14 314 3 310 c 1,28,-1
 0 317 l 1,29,-1
 107 361 l 1,30,-1
 119 361 l 1,31,-1
 119 271 l 1,32,33
 152 327 152 327 178.5 344.5 c 128,-1,34
 205 362 205 362 235 362 c 0,35,36
 299 362 299 362 335 305 c 0,37,38
 366 257 366 257 366 189 c 0,0,1
302 153 m 0,39,40
 302 211 302 211 282 254 c 0,41,42
 256 311 256 311 205 311 c 0,43,44
 167 311 167 311 119 258 c 1,45,-1
 119 125 l 2,46,47
 119 80 119 80 122 67 c 0,48,49
 128 41 128 41 154 24 c 0,50,51
 177 9 177 9 205 9 c 0,52,53
 256 9 256 9 282 58 c 0,54,55
 302 97 302 97 302 153 c 0,39,40
EndSplineSet
EndChar

StartChar: q
Encoding: 113 113 82
Width: 393
GlyphClass: 2
Flags: W
LayerCount: 2
Fore
SplineSet
393 -168 m 1,0,-1
 218 -168 l 1,1,-1
 218 -159 l 1,2,-1
 223 -159 l 2,3,4
 248 -159 248 -159 258 -152 c 1,5,6
 276 -143 276 -143 276 -92 c 2,7,-1
 276 68 l 1,8,9
 212 -9 212 -9 157 -9 c 0,10,11
 95 -9 95 -9 58 47 c 0,12,13
 26 96 26 96 26 161 c 0,14,15
 26 244 26 244 74 301 c 0,16,17
 126 362 126 362 207 362 c 0,18,19
 250 362 250 362 281 337 c 1,20,21
 310 351 310 351 325 362 c 1,22,-1
 335 362 l 1,23,-1
 335 -92 l 2,24,25
 335 -141 335 -141 356 -153 c 0,26,27
 366 -159 366 -159 393 -159 c 1,28,-1
 393 -168 l 1,0,-1
276 84 m 1,29,-1
 276 252 l 2,30,31
 276 306 276 306 240 328 c 0,32,33
 220 340 220 340 195 340 c 0,34,35
 139 340 139 340 110 290 c 0,36,37
 86 249 86 249 86 189 c 0,38,39
 86 130 86 130 111 89 c 0,40,41
 141 40 141 40 197 40 c 0,42,43
 241 40 241 40 276 84 c 1,29,-1
EndSplineSet
EndChar

StartChar: r
Encoding: 114 114 83
Width: 262
GlyphClass: 2
Flags: W
LayerCount: 2
Fore
SplineSet
267 321 m 0,0,1
 267 288 267 288 235 288 c 0,2,3
 223 288 223 288 205.5 301.5 c 128,-1,4
 188 315 188 315 179 315 c 0,5,6
 173 315 173 315 162 306 c 1,7,8
 144 288 144 288 125 252 c 1,9,-1
 125 81 l 2,10,11
 125 30 125 30 152 16 c 0,12,13
 165 9 165 9 187 9 c 1,14,-1
 187 0 l 1,15,-1
 9 0 l 1,16,-1
 9 9 l 1,17,18
 34 9 34 9 48 18 c 1,19,20
 58 22 58 22 63 39 c 0,21,22
 65 46 65 46 65 78 c 2,23,-1
 65 216 l 2,24,25
 65 281 65 281 63 291 c 0,26,27
 58 315 58 315 34 315 c 0,28,29
 20 315 20 315 8 310 c 1,30,-1
 6 320 l 1,31,-1
 111 362 l 1,32,-1
 125 362 l 1,33,-1
 125 275 l 1,34,35
 172 362 172 362 220 362 c 0,36,37
 239 362 239 362 253 351 c 128,-1,38
 267 340 267 340 267 321 c 0,0,1
EndSplineSet
EndChar

StartChar: s
Encoding: 115 115 84
Width: 306
GlyphClass: 2
Flags: W
LayerCount: 2
Fore
SplineSet
278 95 m 0,0,1
 278 48 278 48 243 18.5 c 128,-1,2
 208 -11 208 -11 161 -11 c 0,3,4
 126 -11 126 -11 86 1 c 0,5,6
 73 5 73 5 64 5 c 0,7,8
 53 5 53 5 49 -5 c 1,9,-1
 40 -5 l 1,10,-1
 40 117 l 1,11,-1
 48 117 l 1,12,13
 72 7 72 7 162 7 c 0,14,15
 189 7 189 7 207 23.5 c 128,-1,16
 225 40 225 40 225 63 c 0,17,18
 225 97 225 97 192 122 c 0,19,20
 178 132 178 132 129 157 c 0,21,22
 74 184 74 184 56 206.5 c 128,-1,23
 38 229 38 229 38 262 c 0,24,25
 38 306 38 306 69 334 c 128,-1,26
 100 362 100 362 145 362 c 0,27,28
 167 362 167 362 196 353 c 0,29,30
 216 347 216 347 223 347 c 256,31,32
 230 347 230 347 234 350.5 c 128,-1,33
 238 354 238 354 243 362 c 1,34,-1
 251 362 l 1,35,-1
 251 246 l 1,36,-1
 243 246 l 1,37,38
 217 344 217 344 143 344 c 0,39,40
 119 344 119 344 101 332 c 0,41,42
 80 318 80 318 80 295 c 0,43,44
 80 273 80 273 92.5 257 c 128,-1,45
 105 241 105 241 143 222 c 2,46,-1
 200 194 l 2,47,48
 278 156 278 156 278 95 c 0,0,1
EndSplineSet
EndChar

StartChar: t
Encoding: 116 116 85
Width: 218
GlyphClass: 2
Flags: W
LayerCount: 2
Fore
SplineSet
219 66 m 1,0,1
 205 31 205 31 181.5 12.5 c 128,-1,2
 158 -6 158 -6 131 -6 c 0,3,4
 88 -6 88 -6 73 31 c 0,5,6
 65 50 65 50 65 87 c 2,7,-1
 65 328 l 1,8,-1
 8 328 l 1,9,-1
 8 337 l 1,10,11
 37 348 37 348 69 384 c 0,12,13
 81 398 81 398 92 415 c 0,14,15
 101 428 101 428 117 467 c 1,16,-1
 124 467 l 1,17,-1
 124 351 l 1,18,-1
 209 351 l 1,19,-1
 209 328 l 1,20,-1
 124 328 l 1,21,-1
 124 95 l 2,22,23
 124 34 124 34 163 34 c 0,24,25
 177 34 177 34 189.5 42.5 c 128,-1,26
 202 51 202 51 209 66 c 1,27,-1
 219 66 l 1,0,1
EndSplineSet
EndChar

StartChar: u
Encoding: 117 117 86
Width: 393
GlyphClass: 2
Flags: W
LayerCount: 2
Fore
SplineSet
391 32 m 1,0,-1
 288 -11 l 1,1,-1
 273 -11 l 1,2,-1
 273 69 l 1,3,4
 221 12 221 12 199 2 c 1,5,6
 177 -11 177 -11 150 -11 c 0,7,8
 87 -11 87 -11 69 49 c 0,9,10
 61 75 61 75 61 126 c 2,11,-1
 61 285 l 2,12,13
 61 328 61 328 38 337 c 1,14,15
 29 344 29 344 1 342 c 1,16,-1
 1 352 l 1,17,-1
 121 352 l 1,18,-1
 121 116 l 2,19,20
 121 63 121 63 138 47.5 c 128,-1,21
 155 32 155 32 182 32 c 0,22,23
 221 32 221 32 273 84 c 1,24,-1
 273 287 l 2,25,26
 273 319 273 319 260.5 330.5 c 128,-1,27
 248 342 248 342 216 342 c 1,28,-1
 216 352 l 1,29,-1
 332 352 l 1,30,-1
 332 138 l 2,31,32
 332 52 332 52 345 41 c 0,33,34
 352 35 352 35 362 35 c 0,35,36
 373 35 373 35 388 41 c 1,37,-1
 391 32 l 1,0,-1
EndSplineSet
EndChar

StartChar: v
Encoding: 118 118 87
Width: 393
GlyphClass: 2
Flags: W
LayerCount: 2
Fore
SplineSet
386 342 m 1,0,1
 367 341 367 341 359 334 c 0,2,3
 346 322 346 322 334 294 c 2,4,-1
 208 -11 l 1,5,-1
 195 -11 l 1,6,-1
 69 289 l 2,7,8
 62 306 62 306 52 320 c 1,9,10
 43 329 43 329 31 336 c 0,11,12
 26 339 26 339 7 342 c 1,13,-1
 7 352 l 1,14,-1
 169 352 l 1,15,-1
 169 342 l 1,16,-1
 161 342 l 2,17,18
 127 342 127 342 127 313 c 0,19,20
 127 300 127 300 136 279 c 2,21,-1
 221 77 l 1,22,-1
 306 287 l 2,23,24
 315 309 315 309 315 321 c 0,25,26
 315 326 315 326 312 331 c 0,27,28
 303 342 303 342 275 342 c 1,29,-1
 275 352 l 1,30,-1
 386 352 l 1,31,-1
 386 342 l 1,0,1
EndSplineSet
EndChar

StartChar: w
Encoding: 119 119 88
Width: 568
GlyphClass: 2
Flags: W
LayerCount: 2
Fore
SplineSet
561 342 m 1,0,1
 527 336 527 336 511 295 c 2,2,-1
 393 -11 l 1,3,-1
 381 -11 l 1,4,-1
 291 221 l 1,5,-1
 185 -11 l 1,6,-1
 174 -11 l 1,7,-1
 61 287 l 2,8,9
 49 319 49 319 39.5 327 c 128,-1,10
 30 335 30 335 5 342 c 1,11,-1
 5 352 l 1,12,-1
 149 352 l 1,13,-1
 149 342 l 1,14,15
 128 340 128 340 123 334 c 1,16,17
 115 328 115 328 115 316 c 0,18,19
 115 305 115 305 122 286 c 2,20,-1
 200 75 l 1,21,-1
 280 248 l 1,22,-1
 259 302 l 2,23,24
 250 325 250 325 234 335 c 0,25,26
 225 341 225 341 203 342 c 1,27,-1
 203 352 l 1,28,-1
 367 352 l 1,29,-1
 367 342 l 1,30,31
 340 341 340 341 328 332 c 1,32,33
 320 324 320 324 320 310 c 0,34,35
 320 301 320 301 323 293 c 2,36,-1
 406 82 l 1,37,-1
 483 286 l 2,38,39
 491 307 491 307 491 320 c 0,40,41
 491 329 491 329 482.5 335.5 c 128,-1,42
 474 342 474 342 454 342 c 1,43,-1
 454 352 l 1,44,-1
 561 352 l 1,45,-1
 561 342 l 1,0,1
EndSplineSet
EndChar

StartChar: x
Encoding: 120 120 89
Width: 393
GlyphClass: 2
Flags: W
LayerCount: 2
Fore
SplineSet
384 0 m 1,0,-1
 221 0 l 1,1,-1
 221 9 l 1,2,3
 255 9 255 9 255 34 c 0,4,5
 255 43 255 43 230 80 c 2,6,-1
 176 160 l 1,7,-1
 116 80 l 2,8,9
 89 44 89 44 89 37 c 0,10,11
 89 25 89 25 98.5 17.5 c 128,-1,12
 108 10 108 10 124 9 c 1,13,-1
 124 0 l 1,14,-1
 13 0 l 1,15,-1
 13 9 l 1,16,17
 28 12 28 12 37 19 c 0,18,19
 52 31 52 31 87 77 c 2,20,-1
 163 178 l 1,21,-1
 94 278 l 2,22,23
 70 312 70 312 60 322 c 0,24,25
 38 342 38 342 10 342 c 1,26,-1
 10 352 l 1,27,-1
 173 352 l 1,28,-1
 173 342 l 1,29,30
 158 342 158 342 151 336 c 128,-1,31
 144 330 144 330 144 320 c 256,32,33
 144 310 144 310 158 290 c 2,34,-1
 164 282 l 2,35,36
 166 278 166 278 171 270 c 2,37,-1
 198 227 l 1,38,-1
 230 270 l 2,39,40
 258 308 258 308 258 320 c 0,41,42
 258 342 258 342 230 342 c 1,43,-1
 230 352 l 1,44,-1
 346 352 l 1,45,-1
 346 342 l 1,46,47
 312 340 312 340 261 273 c 2,48,-1
 211 207 l 1,49,-1
 301 77 l 2,50,51
 332 32 332 32 349 20 c 0,52,53
 362 11 362 11 384 9 c 1,54,-1
 384 0 l 1,0,-1
EndSplineSet
EndChar

StartChar: y
Encoding: 121 121 90
Width: 393
GlyphClass: 2
Flags: W
LayerCount: 2
Fore
SplineSet
389 342 m 1,0,1
 364 338 364 338 350 318 c 0,2,3
 346 314 346 314 341 299 c 0,4,5
 340 296 340 296 336 287 c 2,6,-1
 191 -67 l 2,7,8
 174 -108 174 -108 146 -136 c 0,9,10
 112 -170 112 -170 73 -170 c 0,11,12
 50 -170 50 -170 36.5 -158 c 128,-1,13
 23 -146 23 -146 23 -129 c 0,14,15
 23 -114 23 -114 32.5 -104.5 c 128,-1,16
 42 -95 42 -95 60 -95 c 0,17,18
 72 -95 72 -95 95 -104 c 0,19,20
 110 -110 110 -110 115 -110 c 0,21,22
 128 -110 128 -110 142.5 -98 c 128,-1,23
 157 -86 157 -86 171 -50 c 2,24,-1
 196 13 l 1,25,-1
 68 282 l 2,26,27
 49 322 49 322 32 331 c 1,28,29
 25 337 25 337 5 342 c 1,30,-1
 5 352 l 1,31,-1
 166 352 l 1,32,-1
 166 342 l 1,33,-1
 160 342 l 2,34,35
 122 342 122 342 122 314 c 0,36,37
 122 300 122 300 136 271 c 2,38,-1
 225 86 l 1,39,-1
 307 288 l 2,40,41
 314 305 314 305 314 320 c 0,42,43
 314 328 314 328 310 332 c 1,44,45
 304 342 304 342 278 342 c 1,46,-1
 278 352 l 1,47,-1
 389 352 l 1,48,-1
 389 342 l 1,0,1
EndSplineSet
EndChar

StartChar: z
Encoding: 122 122 91
Width: 349
GlyphClass: 2
Flags: W
LayerCount: 2
Fore
SplineSet
336 341 m 1,0,-1
 94 21 l 1,1,-1
 230 21 l 2,2,3
 263 21 263 21 276 25 c 0,4,5
 300 31 300 31 311 53 c 0,6,7
 318 67 318 67 322 104 c 1,8,-1
 330 104 l 1,9,-1
 326 0 l 1,10,-1
 16 0 l 1,11,-1
 16 11 l 1,12,-1
 255 330 l 1,13,-1
 133 330 l 2,14,15
 104 330 104 330 93 327 c 0,16,17
 74 322 74 322 62 305 c 1,18,19
 51 285 51 285 50 258 c 1,20,-1
 40 258 l 1,21,-1
 42 352 l 1,22,-1
 336 352 l 1,23,-1
 336 341 l 1,0,-1
EndSplineSet
EndChar

StartChar: braceleft
Encoding: 123 123 92
Width: 390
GlyphClass: 2
Flags: W
LayerCount: 2
Fore
SplineSet
334 -175 m 1,0,1
 273 -169 273 -169 229 -125.5 c 128,-1,2
 185 -82 185 -82 185 -22 c 0,3,4
 185 -1 185 -1 194 40 c 128,-1,5
 203 81 203 81 203 102 c 0,6,7
 203 136 203 136 174 158 c 0,8,9
 148 177 148 177 112 182 c 1,10,-1
 112 208 l 1,11,12
 203 219 203 219 203 287 c 0,13,14
 203 308 203 308 194 349 c 128,-1,15
 185 390 185 390 185 411 c 0,16,17
 185 471 185 471 230 515 c 0,18,19
 273 556 273 556 334 564 c 1,20,-1
 334 540 l 1,21,22
 244 517 244 517 244 459 c 0,23,24
 244 437 244 437 253 395.5 c 128,-1,25
 262 354 262 354 262 332 c 0,26,27
 262 284 262 284 226 246 c 0,28,29
 194 212 194 212 145 196 c 1,30,31
 262 148 262 148 262 58 c 0,32,33
 262 36 262 36 253 -5.5 c 128,-1,34
 244 -47 244 -47 244 -69 c 0,35,36
 244 -130 244 -130 334 -151 c 1,37,-1
 334 -175 l 1,0,1
EndSplineSet
EndChar

StartChar: bar
Encoding: 124 124 93
Width: 200
GlyphClass: 2
Flags: W
LayerCount: 2
Fore
SplineSet
127 -13 m 1,0,-1
 64 -13 l 1,1,-1
 64 533 l 1,2,-1
 127 533 l 1,3,-1
 127 -13 l 1,0,-1
EndSplineSet
EndChar

StartChar: braceright
Encoding: 125 125 94
Width: 390
GlyphClass: 2
Flags: W
LayerCount: 2
Fore
SplineSet
292 182 m 1,0,1
 256 178 256 178 230 158 c 0,2,3
 201 136 201 136 201 102 c 0,4,5
 201 81 201 81 210 40 c 128,-1,6
 219 -1 219 -1 219 -22 c 0,7,8
 219 -82 219 -82 175 -125.5 c 128,-1,9
 131 -169 131 -169 70 -175 c 1,10,-1
 70 -151 l 1,11,12
 160 -128 160 -128 160 -69 c 0,13,14
 160 -47 160 -47 150.5 -6 c 128,-1,15
 141 35 141 35 141 57 c 0,16,17
 141 104 141 104 178 143 c 0,18,19
 210 177 210 177 259 194 c 1,20,21
 211 209 211 209 177 245 c 1,22,23
 141 285 141 285 141 332 c 0,24,25
 141 354 141 354 150.5 395.5 c 128,-1,26
 160 437 160 437 160 459 c 0,27,28
 160 517 160 517 70 540 c 1,29,-1
 70 564 l 1,30,31
 130 556 130 556 174.5 513 c 128,-1,32
 219 470 219 470 219 411 c 0,33,34
 219 390 219 390 210 349 c 128,-1,35
 201 308 201 308 201 287 c 0,36,37
 201 219 201 219 292 208 c 1,38,-1
 292 182 l 1,0,1
EndSplineSet
EndChar

StartChar: asciitilde
Encoding: 126 126 95
Width: 440
GlyphClass: 2
Flags: W
LayerCount: 2
Fore
SplineSet
432 319 m 1,0,1
 422 208 422 208 331 208 c 0,2,3
 291 208 291 208 216.5 237 c 128,-1,4
 142 266 142 266 102 266 c 0,5,6
 48 266 48 266 34 209 c 1,7,-1
 8 209 l 1,8,9
 8 256 8 256 33 288 c 128,-1,10
 58 320 58 320 104 320 c 0,11,12
 145 320 145 320 220.5 290.5 c 128,-1,13
 296 261 296 261 337 261 c 0,14,15
 399 261 399 261 404 319 c 1,16,-1
 432 319 l 1,0,1
EndSplineSet
EndChar

StartChar: Oslash
Encoding: 215 215 96
Width: 417
GlyphClass: 2
Flags: W
LayerCount: 2
Fore
SplineSet
363 121 m 1,0,-1
 341 98 l 1,1,-1
 209 239 l 1,2,-1
 76 98 l 1,3,-1
 54 121 l 1,4,-1
 187 262 l 1,5,-1
 54 403 l 1,6,-1
 76 427 l 1,7,-1
 209 286 l 1,8,-1
 341 427 l 1,9,-1
 363 403 l 1,10,-1
 230 262 l 1,11,-1
 363 121 l 1,0,-1
EndSplineSet
EndChar

StartChar: Odieresis
Encoding: 247 247 97
Width: 417
GlyphClass: 2
Flags: W
LayerCount: 2
Fore
SplineSet
256 371 m 256,0,1
 256 352 256 352 244 339 c 128,-1,2
 232 326 232 326 213 326 c 0,3,4
 195 326 195 326 183 339.5 c 128,-1,5
 171 353 171 353 171 371 c 256,6,7
 171 389 171 389 183 402.5 c 128,-1,8
 195 416 195 416 213 416 c 0,9,10
 232 416 232 416 244 403 c 128,-1,11
 256 390 256 390 256 371 c 256,0,1
365 240 m 1,12,-1
 58 240 l 1,13,-1
 58 276 l 1,14,-1
 365 276 l 1,15,-1
 365 240 l 1,12,-1
256 140 m 256,16,17
 256 121 256 121 244 108 c 128,-1,18
 232 95 232 95 213 95 c 0,19,20
 195 95 195 95 183 108.5 c 128,-1,21
 171 122 171 122 171 140 c 256,22,23
 171 158 171 158 183 171.5 c 128,-1,24
 195 185 195 185 213 185 c 0,25,26
 232 185 232 185 244 172 c 128,-1,27
 256 159 256 159 256 140 c 256,16,17
EndSplineSet
EndChar

StartChar: glyph561
Encoding: 2305 2305 98
Width: 0
GlyphClass: 4
Flags: W
AnchorPoint: "Anchor-4" 80 0 mark 0 {11-17 1,1,0,0,0,0,1} {12-17 -1,0,0,0,0,-1}
AnchorPoint: "Anchor-2" 0 0 mark 0
AnchorPoint: "Anchor-1" 0 0 mark 0
LayerCount: 2
Fore
SplineSet
-61 715 m 256,0,1
 -61 695 -61 695 -74 681.5 c 128,-1,2
 -87 668 -87 668 -106 668 c 256,3,4
 -125 668 -125 668 -137.5 682 c 128,-1,5
 -150 696 -150 696 -150 715 c 256,6,7
 -150 734 -150 734 -137.5 748.5 c 128,-1,8
 -125 763 -125 763 -106 763 c 256,9,10
 -87 763 -87 763 -74 749 c 128,-1,11
 -61 735 -61 735 -61 715 c 256,0,1
46 671 m 1,12,13
 31 632 31 632 -4 604 c 0,14,15
 -42 574 -42 574 -81 574 c 0,16,17
 -129 574 -129 574 -171 612 c 1,18,19
 -207 643 -207 643 -230 692 c 1,20,-1
 -210 703 l 1,21,22
 -157 622 -157 622 -102 622 c 0,23,24
 -69 622 -69 622 -39 652 c 0,25,26
 -15 676 -15 676 -1 712 c 1,27,-1
 46 671 l 1,12,13
EndSplineSet
Substitution2: "Single Substitution lookup 3 subtable" glyph85
PairPos2: "'abvm' Above Base Mark in Devanagari lookup 1 subtable" glyph564 dx=0 dy=0 dh=0 dv=0 dx=0 dy=475 dh=0 dv=0
PairPos2: "'abvm' Above Base Mark in Devanagari lookup 1 subtable" glyph565 dx=0 dy=0 dh=0 dv=0 dx=0 dy=475 dh=0 dv=0
PairPos2: "'abvm' Above Base Mark in Devanagari lookup 1 subtable" glyph563 dx=0 dy=0 dh=0 dv=0 dx=0 dy=475 dh=0 dv=0
EndChar

StartChar: glyph562
Encoding: 2306 2306 99
Width: 0
GlyphClass: 4
Flags: W
AnchorPoint: "Anchor-4" 80 0 mark 0
AnchorPoint: "Anchor-2" 0 0 mark 0
AnchorPoint: "Anchor-1" 0 0 mark 0
LayerCount: 2
Fore
SplineSet
-14 615 m 256,0,1
 -14 595 -14 595 -27 581.5 c 128,-1,2
 -40 568 -40 568 -59 568 c 256,3,4
 -78 568 -78 568 -90.5 582 c 128,-1,5
 -103 596 -103 596 -103 615 c 256,6,7
 -103 634 -103 634 -90.5 648 c 128,-1,8
 -78 662 -78 662 -59 662 c 256,9,10
 -40 662 -40 662 -27 648.5 c 128,-1,11
 -14 635 -14 635 -14 615 c 256,0,1
EndSplineSet
PairPos2: "'abvm' Above Base Mark in Devanagari lookup 1 subtable" glyph564 dx=0 dy=0 dh=0 dv=0 dx=0 dy=475 dh=0 dv=0
PairPos2: "'abvm' Above Base Mark in Devanagari lookup 1 subtable" glyph565 dx=0 dy=0 dh=0 dv=0 dx=0 dy=475 dh=0 dv=0
PairPos2: "'abvm' Above Base Mark in Devanagari lookup 1 subtable" glyph563 dx=0 dy=0 dh=0 dv=0 dx=0 dy=475 dh=0 dv=0
EndChar

StartChar: glyph556
Encoding: 2307 2307 100
Width: 261
GlyphClass: 2
Flags: W
LayerCount: 2
Fore
SplineSet
181 306 m 256,0,1
 181 286 181 286 168 272.5 c 128,-1,2
 155 259 155 259 136 259 c 256,3,4
 117 259 117 259 104.5 273 c 128,-1,5
 92 287 92 287 92 306 c 256,6,7
 92 325 92 325 104.5 339.5 c 128,-1,8
 117 354 117 354 136 354 c 256,9,10
 155 354 155 354 168 340 c 128,-1,11
 181 326 181 326 181 306 c 256,0,1
181 50 m 256,12,13
 181 30 181 30 168 16.5 c 128,-1,14
 155 3 155 3 136 3 c 256,15,16
 117 3 117 3 104.5 17 c 128,-1,17
 92 31 92 31 92 50 c 256,18,19
 92 69 92 69 104.5 83.5 c 128,-1,20
 117 98 117 98 136 98 c 256,21,22
 155 98 155 98 168 84 c 128,-1,23
 181 70 181 70 181 50 c 256,12,13
EndSplineSet
EndChar

StartChar: glyph92
Encoding: 2309 2309 101
Width: 565
GlyphClass: 2
Flags: W
AnchorPoint: "Anchor-10" 595 100 basechar 0
AnchorPoint: "Anchor-3" 560 0 basechar 0
AnchorPoint: "Anchor-2" 500 0 basechar 0
LayerCount: 2
Fore
SplineSet
593 469 m 1,0,-1
 522 469 l 1,1,-1
 522 1 l 1,2,-1
 466 35 l 1,3,-1
 470 229 l 1,4,5
 444 217 444 217 415 217 c 0,6,7
 377 217 377 217 332 256 c 1,8,9
 350 228 350 228 350 192 c 0,10,11
 350 138 350 138 314.5 103 c 128,-1,12
 279 68 279 68 224 68 c 0,13,14
 112 68 112 68 30 267 c 1,15,-1
 53 282 l 1,16,17
 115 122 115 122 209 122 c 0,18,19
 252 122 252 122 277 152 c 128,-1,20
 302 182 302 182 302 226 c 0,21,22
 302 288 302 288 251 305 c 1,23,24
 191 275 191 275 169 275 c 1,25,26
 161 278 161 278 146.5 293 c 128,-1,27
 132 308 132 308 132 315 c 0,28,29
 132 331 132 331 147 331 c 0,30,31
 189 331 189 331 227 354 c 0,32,33
 271 381 271 381 271 421 c 0,34,35
 271 474 271 474 213 474 c 0,36,37
 188 474 188 474 158 458 c 1,38,39
 132 443 132 443 107 429 c 1,40,41
 100 429 100 429 88 451 c 0,42,43
 79 469 79 469 76 481 c 1,44,45
 144 515 144 515 179 515 c 0,46,47
 225 515 225 515 272 477.5 c 128,-1,48
 319 440 319 440 319 395 c 0,49,50
 319 344 319 344 273 323 c 1,51,52
 345 264 345 264 395 264 c 0,53,54
 411 264 411 264 434.5 276 c 128,-1,55
 458 288 458 288 468 300 c 1,56,-1
 468 469 l 1,57,-1
 361 469 l 1,58,-1
 334 515 l 1,59,-1
 566 515 l 1,60,-1
 593 469 l 1,0,-1
EndSplineSet
EndChar

StartChar: glyph93
Encoding: 2310 2310 102
Width: 731
GlyphClass: 2
Flags: W
AnchorPoint: "Anchor-10" 1074 86 basechar 0
AnchorPoint: "Anchor-3" 650 0 basechar 0
AnchorPoint: "Anchor-2" 630 0 basechar 0
LayerCount: 2
Fore
SplineSet
760 469 m 1,0,-1
 688 469 l 1,1,-1
 688 1 l 1,2,-1
 633 35 l 1,3,-1
 635 469 l 1,4,-1
 522 469 l 1,5,-1
 522 1 l 1,6,-1
 466 35 l 1,7,-1
 470 229 l 1,8,9
 444 217 444 217 415 217 c 0,10,11
 377 217 377 217 332 256 c 1,12,13
 350 228 350 228 350 192 c 0,14,15
 350 138 350 138 314.5 103 c 128,-1,16
 279 68 279 68 224 68 c 0,17,18
 112 68 112 68 30 267 c 1,19,-1
 53 282 l 1,20,21
 115 122 115 122 209 122 c 0,22,23
 252 122 252 122 277 152 c 128,-1,24
 302 182 302 182 302 226 c 0,25,26
 302 288 302 288 251 305 c 1,27,28
 191 275 191 275 169 275 c 1,29,30
 161 278 161 278 146 294 c 128,-1,31
 131 310 131 310 131 317 c 0,32,33
 131 333 131 333 146 333 c 0,34,35
 189 333 189 333 226 355 c 0,36,37
 271 381 271 381 271 421 c 0,38,39
 271 474 271 474 213 474 c 0,40,41
 188 474 188 474 158 458 c 1,42,43
 132 443 132 443 107 429 c 1,44,45
 100 429 100 429 88 451 c 0,46,47
 79 469 79 469 76 481 c 1,48,49
 144 515 144 515 179 515 c 0,50,51
 225 515 225 515 272 477.5 c 128,-1,52
 319 440 319 440 319 395 c 0,53,54
 319 344 319 344 273 323 c 1,55,56
 345 264 345 264 395 264 c 0,57,58
 411 264 411 264 434.5 276 c 128,-1,59
 458 288 458 288 468 300 c 1,60,-1
 468 469 l 1,61,-1
 361 469 l 1,62,-1
 334 515 l 1,63,-1
 733 515 l 1,64,-1
 760 469 l 1,0,-1
EndSplineSet
EndChar

StartChar: glyph94
Encoding: 2311 2311 103
Width: 327
GlyphClass: 2
Flags: W
AnchorPoint: "Anchor-10" 561 -128 basechar 0
AnchorPoint: "Anchor-3" 330 0 basechar 0
AnchorPoint: "Anchor-2" 300 0 basechar 0
LayerCount: 2
Fore
SplineSet
353 469 m 1,0,-1
 277 469 l 1,1,-1
 277 364 l 2,2,3
 277 350 277 350 243 350 c 0,4,5
 232 350 232 350 202.5 352 c 128,-1,6
 173 354 173 354 158 354 c 0,7,8
 97 354 97 354 97 322 c 0,9,10
 97 298 97 298 110 276 c 1,11,12
 124 250 124 250 147 250 c 0,13,14
 162 250 162 250 188 260 c 128,-1,15
 214 270 214 270 229 270 c 0,16,17
 254 270 254 270 281 231 c 128,-1,18
 308 192 308 192 308 165 c 0,19,20
 308 76 308 76 184 45 c 1,21,-1
 295 -78 l 1,22,-1
 270 -102 l 1,23,24
 179 20 179 20 152 36 c 1,25,26
 106 42 106 42 87 57 c 0,27,28
 63 77 63 77 63 121 c 0,29,30
 63 132 63 132 74.5 140 c 128,-1,31
 86 148 86 148 97 148 c 0,32,33
 109 148 109 148 129 127.5 c 128,-1,34
 149 107 149 107 155 93 c 1,35,-1
 160 93 l 1,36,37
 199 91 199 91 233.5 117.5 c 128,-1,38
 268 144 268 144 268 183 c 0,39,40
 268 223 268 223 240 223 c 0,41,42
 226 223 226 223 200 212.5 c 128,-1,43
 174 202 174 202 159 202 c 0,44,45
 121 202 121 202 87 259 c 0,46,47
 57 310 57 310 57 352 c 0,48,49
 57 399 57 399 110 399 c 2,50,-1
 228 399 l 1,51,-1
 228 469 l 1,52,-1
 -2 469 l 1,53,-1
 -29 515 l 1,54,-1
 327 515 l 1,55,-1
 353 469 l 1,0,-1
EndSplineSet
EndChar

StartChar: glyph95
Encoding: 2312 2312 104
Width: 327
GlyphClass: 2
Flags: W
AnchorPoint: "Anchor-10" 561 -128 basechar 0
AnchorPoint: "Anchor-3" 561 1722 basechar 0
AnchorPoint: "Anchor-2" 0 0 basechar 0
LayerCount: 2
Fore
SplineSet
353 469 m 1,0,-1
 277 469 l 1,1,-1
 277 364 l 2,2,3
 277 352 277 352 260 352 c 2,4,-1
 139 352 l 2,5,6
 97 352 97 352 97 322 c 0,7,8
 97 298 97 298 110 276 c 1,9,10
 124 250 124 250 147 250 c 0,11,12
 162 250 162 250 188 260 c 128,-1,13
 214 270 214 270 229 270 c 0,14,15
 254 270 254 270 281 231 c 128,-1,16
 308 192 308 192 308 165 c 0,17,18
 308 76 308 76 184 45 c 1,19,-1
 295 -78 l 1,20,-1
 270 -102 l 1,21,22
 179 20 179 20 152 36 c 1,23,24
 106 42 106 42 87 57 c 0,25,26
 63 77 63 77 63 121 c 0,27,28
 63 132 63 132 74.5 140 c 128,-1,29
 86 148 86 148 97 148 c 0,30,31
 109 148 109 148 129 127.5 c 128,-1,32
 149 107 149 107 155 93 c 1,33,-1
 160 93 l 1,34,35
 199 91 199 91 233.5 117.5 c 128,-1,36
 268 144 268 144 268 183 c 0,37,38
 268 223 268 223 240 223 c 0,39,40
 226 223 226 223 200 212.5 c 128,-1,41
 174 202 174 202 159 202 c 0,42,43
 121 202 121 202 87 259 c 0,44,45
 57 310 57 310 57 352 c 0,46,47
 57 399 57 399 110 399 c 2,48,-1
 228 399 l 1,49,-1
 228 469 l 1,50,-1
 -2 469 l 1,51,-1
 -29 515 l 1,52,-1
 238 515 l 1,53,54
 184 611 184 611 184 668 c 0,55,56
 184 700 184 700 207 726 c 128,-1,57
 230 752 230 752 261 752 c 0,58,59
 310 752 310 752 334 703 c 1,60,-1
 326 684 l 1,61,62
 301 701 301 701 273 701 c 0,63,64
 250 701 250 701 237 681.5 c 128,-1,65
 224 662 224 662 224 637 c 0,66,67
 224 605 224 605 258 515 c 1,68,-1
 327 515 l 1,69,-1
 353 469 l 1,0,-1
EndSplineSet
EndChar

StartChar: glyph96
Encoding: 2313 2313 105
Width: 423
GlyphClass: 2
Flags: W
AnchorPoint: "Anchor-10" 561 86 basechar 0
AnchorPoint: "Anchor-3" 340 0 basechar 0
AnchorPoint: "Anchor-2" 340 0 basechar 0
LayerCount: 2
Fore
SplineSet
450 469 m 1,0,-1
 299 469 l 1,1,2
 348 391 348 391 348 349 c 0,3,4
 348 329 348 329 321 311 c 0,5,6
 301 297 301 297 277 291 c 1,7,8
 317 266 317 266 348 233 c 0,9,10
 387 190 387 190 387 154 c 0,11,12
 387 104 387 104 352.5 70 c 128,-1,13
 318 36 318 36 268 36 c 0,14,15
 191 36 191 36 128 101 c 0,16,17
 88 143 88 143 37 234 c 1,18,-1
 67 249 l 1,19,20
 144 83 144 83 249 83 c 0,21,22
 284 83 284 83 308.5 110 c 128,-1,23
 333 137 333 137 333 173 c 0,24,25
 333 242 333 242 229 271 c 1,26,27
 202 260 202 260 173 260 c 0,28,29
 160 260 160 260 144 283 c 128,-1,30
 128 306 128 306 128 317 c 0,31,32
 128 332 128 332 146 332 c 0,33,34
 188 332 188 332 218 322 c 1,35,36
 300 333 300 333 300 385 c 0,37,38
 300 428 300 428 252 469 c 1,39,-1
 -9 469 l 1,40,-1
 -36 515 l 1,41,-1
 423 515 l 1,42,-1
 450 469 l 1,0,-1
EndSplineSet
EndChar

StartChar: glyph97
Encoding: 2314 2314 106
Width: 565
GlyphClass: 2
Flags: W
AnchorPoint: "Anchor-10" 748 86 basechar 0
AnchorPoint: "Anchor-3" 340 0 basechar 0
AnchorPoint: "Anchor-2" 340 0 basechar 0
LayerCount: 2
Fore
SplineSet
594 469 m 1,0,-1
 298 469 l 1,1,2
 348 389 348 389 348 348 c 0,3,4
 348 328 348 328 321 310 c 0,5,6
 301 296 301 296 277 290 c 1,7,-1
 277 286 l 1,8,9
 302 279 302 279 336 252 c 1,10,11
 414 321 414 321 460 321 c 0,12,13
 469 321 469 321 484 313 c 0,14,15
 549 279 549 279 549 183 c 0,16,17
 549 113 549 113 502 46 c 1,18,-1
 451 70 l 1,19,20
 514 170 514 170 514 222 c 0,21,22
 514 243 514 243 501 258 c 128,-1,23
 488 273 488 273 467 273 c 0,24,25
 449 273 449 273 415 252 c 0,26,27
 386 234 386 234 369 217 c 1,28,29
 386 196 386 196 386 154 c 0,30,31
 386 104 386 104 352 70 c 128,-1,32
 318 36 318 36 268 36 c 0,33,34
 190 36 190 36 127 100 c 0,35,36
 85 144 85 144 37 234 c 1,37,-1
 67 249 l 1,38,39
 141 83 141 83 249 83 c 0,40,41
 284 83 284 83 308.5 110 c 128,-1,42
 333 137 333 137 333 173 c 0,43,44
 333 242 333 242 229 271 c 1,45,46
 202 260 202 260 172 260 c 0,47,48
 167 260 167 260 164 261 c 0,49,50
 157 263 157 263 142.5 286.5 c 128,-1,51
 128 310 128 310 128 317 c 0,52,53
 128 332 128 332 146 332 c 0,54,55
 188 332 188 332 218 322 c 1,56,57
 299 333 299 333 299 385 c 0,58,59
 299 428 299 428 251 469 c 1,60,-1
 0 469 l 1,61,-1
 -27 515 l 1,62,-1
 567 515 l 1,63,-1
 594 469 l 1,0,-1
EndSplineSet
EndChar

StartChar: glyph98
Encoding: 2315 2315 107
Width: 634
GlyphClass: 2
Flags: W
AnchorPoint: "Anchor-10" 853 86 basechar 0
AnchorPoint: "Anchor-3" 853 1247 basechar 0
AnchorPoint: "Anchor-2" 0 0 basechar 0
LayerCount: 2
Fore
SplineSet
665 3 m 1,0,1
 614 -32 614 -32 571 -32 c 0,2,3
 521 -32 521 -32 475 5 c 1,4,5
 426 43 426 43 426 92 c 0,6,7
 426 121 426 121 456 144 c 1,8,9
 470 156 470 156 510 177 c 0,10,11
 540 192 540 192 540 200 c 0,12,13
 540 211 540 211 515 266 c 1,14,15
 503 256 503 256 476 244 c 128,-1,16
 449 232 449 232 436 232 c 0,17,18
 415 232 415 232 366 252 c 1,19,-1
 366 1 l 1,20,-1
 311 35 l 1,21,-1
 314 212 l 1,22,-1
 134 77 l 1,23,-1
 92 116 l 1,24,-1
 305 268 l 1,25,26
 226 328 226 328 189 328 c 0,27,28
 159 328 159 328 96 311 c 1,29,-1
 58 364 l 1,30,31
 137 381 137 381 171 381 c 0,32,33
 191 381 191 381 206 377 c 0,34,35
 227 371 227 371 313 295 c 1,36,-1
 313 469 l 1,37,-1
 0 469 l 1,38,-1
 -27 515 l 1,39,-1
 638 515 l 1,40,-1
 665 469 l 1,41,-1
 366 469 l 1,42,-1
 366 281 l 1,43,44
 384 274 384 274 406 274 c 0,45,46
 441 274 441 274 495 321 c 1,47,48
 479 363 479 363 479 372 c 0,49,50
 479 391 479 391 499 391 c 0,51,52
 517 391 517 391 558.5 367.5 c 128,-1,53
 600 344 600 344 600 329 c 0,54,55
 600 321 600 321 580 306 c 0,56,57
 564 293 564 293 552 287 c 1,58,59
 599 184 599 184 599 177 c 0,60,61
 599 160 599 160 567 144 c 0,62,63
 510 117 510 117 506 115 c 0,64,65
 474 93 474 93 474 62 c 0,66,67
 474 37 474 37 493 23 c 128,-1,68
 512 9 512 9 537 9 c 0,69,70
 582 9 582 9 622 46 c 1,71,-1
 665 3 l 1,0,1
EndSplineSet
EndChar

StartChar: glyph99
Encoding: 2316 2316 108
Width: 558
GlyphClass: 2
Flags: W
AnchorPoint: "Anchor-10" 748 86 basechar 0
AnchorPoint: "Anchor-3" 748 1247 basechar 0
AnchorPoint: "Anchor-2" 0 0 basechar 0
LayerCount: 2
Fore
SplineSet
586 469 m 1,0,-1
 408 469 l 1,1,-1
 408 372 l 1,2,3
 450 362 450 362 483 330 c 0,4,5
 519 295 519 295 519 254 c 0,6,7
 519 214 519 214 484 179 c 1,8,9
 451 152 451 152 418 126 c 1,10,11
 383 96 383 96 383 69 c 0,12,13
 383 25 383 25 424 25 c 0,14,15
 476 25 476 25 523 96 c 1,16,-1
 563 58 l 1,17,18
 520 -2 520 -2 455 -2 c 0,19,20
 416 -2 416 -2 375 22 c 0,21,22
 329 49 329 49 329 85 c 0,23,24
 329 115 329 115 363 143 c 128,-1,25
 397 171 397 171 430 197 c 1,26,27
 465 233 465 233 465 278 c 0,28,29
 465 340 465 340 410 340 c 0,30,31
 358 340 358 340 280 188 c 1,32,-1
 234 215 l 1,33,34
 246 248 246 248 263 272 c 1,35,36
 251 293 251 293 232 311 c 0,37,38
 208 333 208 333 189 333 c 0,39,40
 153 333 153 333 132 305.5 c 128,-1,41
 111 278 111 278 111 241 c 0,42,43
 111 154 111 154 212 53 c 1,44,-1
 183 27 l 1,45,46
 140 76 140 76 103 140 c 0,47,48
 57 220 57 220 57 267 c 0,49,50
 57 313 57 313 85.5 349.5 c 128,-1,51
 114 386 114 386 159 386 c 0,52,53
 196 386 196 386 228 357 c 0,54,55
 237 348 237 348 278 298 c 1,56,57
 315 355 315 355 354 369 c 1,58,-1
 354 469 l 1,59,-1
 -1 469 l 1,60,-1
 -28 515 l 1,61,-1
 559 515 l 1,62,-1
 586 469 l 1,0,-1
EndSplineSet
EndChar

StartChar: glyph100
Encoding: 2317 2317 109
Width: 398
GlyphClass: 2
Flags: W
AnchorPoint: "Anchor-10" 614 86 basechar 0
AnchorPoint: "Anchor-3" 614 1722 basechar 0
AnchorPoint: "Anchor-2" 0 0 basechar 0
LayerCount: 2
Fore
SplineSet
444 -56 m 0,0,1
 444 -73 444 -73 414 -118 c 1,2,-1
 368 -75 l 1,3,4
 385 -52 385 -52 385 -42 c 0,5,6
 385 -29 385 -29 359 -12 c 2,7,-1
 108 152 l 2,8,9
 79 171 79 171 79 217 c 2,10,-1
 79 469 l 1,11,-1
 -1 469 l 1,12,-1
 -28 515 l 1,13,-1
 399 515 l 1,14,-1
 426 469 l 1,15,-1
 341 469 l 1,16,-1
 341 209 l 2,17,18
 341 169 341 169 296 169 c 0,19,20
 264 169 264 169 218 185 c 1,21,-1
 192 228 l 1,22,23
 203 228 203 228 225.5 225.5 c 128,-1,24
 248 223 248 223 259 223 c 0,25,26
 287 223 287 223 287 243 c 2,27,-1
 287 469 l 1,28,-1
 133 469 l 1,29,-1
 133 210 l 2,30,31
 133 180 133 180 146 171 c 2,32,-1
 395 4 l 2,33,34
 444 -29 444 -29 444 -56 c 0,0,1
382 671 m 1,35,36
 367 632 367 632 332 604 c 0,37,38
 294 574 294 574 255 574 c 0,39,40
 207 574 207 574 165 611 c 0,41,42
 129 643 129 643 106 692 c 1,43,-1
 126 703 l 1,44,45
 179 622 179 622 234 622 c 0,46,47
 267 622 267 622 297 652 c 0,48,49
 321 676 321 676 335 712 c 1,50,-1
 382 671 l 1,35,36
EndSplineSet
EndChar

StartChar: glyph101
Encoding: 2318 2318 110
Width: 398
GlyphClass: 2
Flags: W
AnchorPoint: "Anchor-10" 614 86 basechar 0
AnchorPoint: "Anchor-3" 400 100 basechar 0
AnchorPoint: "Anchor-2" 300 100 basechar 0
LayerCount: 2
Fore
SplineSet
444 -56 m 0,0,1
 444 -73 444 -73 414 -118 c 1,2,-1
 368 -75 l 1,3,4
 385 -52 385 -52 385 -42 c 0,5,6
 385 -29 385 -29 359 -12 c 2,7,-1
 108 152 l 2,8,9
 79 171 79 171 79 217 c 2,10,-1
 79 469 l 1,11,-1
 -1 469 l 1,12,-1
 -28 515 l 1,13,-1
 313 515 l 1,14,15
 322 531 322 531 322 551 c 0,16,17
 322 602 322 602 253 602 c 2,18,-1
 100 602 l 2,19,20
 15 602 15 602 15 683 c 0,21,22
 15 711 15 711 35.5 730 c 128,-1,23
 56 749 56 749 84 749 c 1,24,-1
 94 731 l 1,25,26
 75 731 75 731 61.5 719 c 128,-1,27
 48 707 48 707 48 688 c 0,28,29
 48 647 48 647 87 647 c 2,30,-1
 266 647 l 2,31,32
 302 647 302 647 329 628 c 0,33,34
 360 606 360 606 360 572 c 0,35,36
 360 545 360 545 338 515 c 1,37,-1
 399 515 l 1,38,-1
 426 469 l 1,39,-1
 341 469 l 1,40,-1
 341 209 l 2,41,42
 341 169 341 169 296 169 c 0,43,44
 264 169 264 169 218 185 c 1,45,-1
 192 228 l 1,46,47
 203 228 203 228 225.5 225.5 c 128,-1,48
 248 223 248 223 259 223 c 0,49,50
 287 223 287 223 287 243 c 2,51,-1
 287 469 l 1,52,-1
 133 469 l 1,53,-1
 133 210 l 2,54,55
 133 180 133 180 146 171 c 2,56,-1
 395 4 l 2,57,58
 444 -29 444 -29 444 -56 c 0,0,1
EndSplineSet
EndChar

StartChar: glyph102
Encoding: 2319 2319 111
Width: 398
GlyphClass: 2
Flags: W
AnchorPoint: "Anchor-10" 614 86 basechar 0
AnchorPoint: "Anchor-3" 300 0 basechar 0
AnchorPoint: "Anchor-2" 300 0 basechar 0
LayerCount: 2
Fore
SplineSet
444 -56 m 0,0,1
 444 -73 444 -73 414 -118 c 1,2,-1
 368 -75 l 1,3,4
 385 -52 385 -52 385 -42 c 0,5,6
 385 -29 385 -29 359 -12 c 2,7,-1
 108 152 l 2,8,9
 79 171 79 171 79 217 c 2,10,-1
 79 469 l 1,11,-1
 -1 469 l 1,12,-1
 -28 515 l 1,13,-1
 399 515 l 1,14,-1
 426 469 l 1,15,-1
 341 469 l 1,16,-1
 341 209 l 2,17,18
 341 169 341 169 296 169 c 0,19,20
 264 169 264 169 218 185 c 1,21,-1
 192 228 l 1,22,23
 203 228 203 228 225.5 225.5 c 128,-1,24
 248 223 248 223 259 223 c 0,25,26
 287 223 287 223 287 243 c 2,27,-1
 287 469 l 1,28,-1
 133 469 l 1,29,-1
 133 210 l 2,30,31
 133 180 133 180 146 171 c 2,32,-1
 395 4 l 2,33,34
 444 -29 444 -29 444 -56 c 0,0,1
EndSplineSet
EndChar

StartChar: glyph103
Encoding: 2320 2320 112
Width: 398
GlyphClass: 2
Flags: W
AnchorPoint: "Anchor-10" 614 86 basechar 0
AnchorPoint: "Anchor-3" 430 0 basechar 0
AnchorPoint: "Anchor-2" 400 30 basechar 0
LayerCount: 2
Fore
SplineSet
444 -56 m 0,0,1
 444 -73 444 -73 414 -118 c 1,2,-1
 368 -75 l 1,3,4
 385 -52 385 -52 385 -42 c 0,5,6
 385 -29 385 -29 359 -12 c 2,7,-1
 108 152 l 2,8,9
 79 171 79 171 79 217 c 2,10,-1
 79 469 l 1,11,-1
 -1 469 l 1,12,-1
 -28 515 l 1,13,-1
 302 515 l 1,14,15
 211 669 211 669 166 669 c 0,16,17
 161 669 161 669 119 655 c 1,18,19
 113 663 113 663 96 696.5 c 128,-1,20
 79 730 79 730 79 736 c 0,21,22
 79 749 79 749 124 749 c 0,23,24
 175 749 175 749 217 691 c 0,25,26
 267 622 267 622 325 515 c 1,27,-1
 399 515 l 1,28,-1
 426 469 l 1,29,-1
 341 469 l 1,30,-1
 341 209 l 2,31,32
 341 169 341 169 296 169 c 0,33,34
 264 169 264 169 218 185 c 1,35,-1
 192 228 l 1,36,37
 203 228 203 228 225.5 225.5 c 128,-1,38
 248 223 248 223 259 223 c 0,39,40
 287 223 287 223 287 243 c 2,41,-1
 287 469 l 1,42,-1
 133 469 l 1,43,-1
 133 210 l 2,44,45
 133 180 133 180 146 171 c 2,46,-1
 395 4 l 2,47,48
 444 -29 444 -29 444 -56 c 0,0,1
EndSplineSet
EndChar

StartChar: glyph104
Encoding: 2321 2321 113
Width: 731
GlyphClass: 2
Flags: W
AnchorPoint: "Anchor-10" 1074 86 basechar 0
AnchorPoint: "Anchor-3" 1074 1722 basechar 0
AnchorPoint: "Anchor-2" 0 0 basechar 0
LayerCount: 2
Fore
SplineSet
760 469 m 1,0,-1
 688 469 l 1,1,-1
 688 1 l 1,2,-1
 633 35 l 1,3,-1
 635 469 l 1,4,-1
 522 469 l 1,5,-1
 522 1 l 1,6,-1
 466 35 l 1,7,-1
 470 229 l 1,8,9
 444 217 444 217 415 217 c 0,10,11
 377 217 377 217 332 256 c 1,12,13
 350 228 350 228 350 192 c 0,14,15
 350 138 350 138 314.5 103 c 128,-1,16
 279 68 279 68 224 68 c 0,17,18
 112 68 112 68 30 267 c 1,19,-1
 53 282 l 1,20,21
 115 122 115 122 209 122 c 0,22,23
 252 122 252 122 277 152 c 128,-1,24
 302 182 302 182 302 226 c 0,25,26
 302 288 302 288 251 305 c 1,27,28
 191 275 191 275 169 275 c 1,29,30
 161 278 161 278 146 294 c 128,-1,31
 131 310 131 310 131 317 c 0,32,33
 131 333 131 333 146 333 c 0,34,35
 189 333 189 333 226 355 c 0,36,37
 271 381 271 381 271 421 c 0,38,39
 271 474 271 474 213 474 c 0,40,41
 188 474 188 474 158 458 c 1,42,43
 132 443 132 443 107 429 c 1,44,45
 100 429 100 429 88 451 c 0,46,47
 79 469 79 469 76 481 c 1,48,49
 144 515 144 515 179 515 c 0,50,51
 225 515 225 515 272 477.5 c 128,-1,52
 319 440 319 440 319 395 c 0,53,54
 319 344 319 344 273 323 c 1,55,56
 345 264 345 264 395 264 c 0,57,58
 411 264 411 264 434.5 276 c 128,-1,59
 458 288 458 288 468 300 c 1,60,-1
 468 469 l 1,61,-1
 361 469 l 1,62,-1
 334 515 l 1,63,-1
 733 515 l 1,64,-1
 760 469 l 1,0,-1
742 671 m 1,65,66
 727 632 727 632 692 604 c 0,67,68
 654 574 654 574 615 574 c 0,69,70
 567 574 567 574 525 611 c 0,71,72
 489 643 489 643 466 692 c 1,73,-1
 486 703 l 1,74,75
 539 622 539 622 594 622 c 0,76,77
 627 622 627 622 657 652 c 0,78,79
 681 676 681 676 695 712 c 1,80,-1
 742 671 l 1,65,66
EndSplineSet
EndChar

StartChar: glyph105
Encoding: 2322 2322 114
Width: 731
GlyphClass: 2
Flags: W
AnchorPoint: "Anchor-10" 1074 86 basechar 0
AnchorPoint: "Anchor-3" 650 100 basechar 0
AnchorPoint: "Anchor-2" 650 100 basechar 0
LayerCount: 2
Fore
SplineSet
760 469 m 1,0,-1
 688 469 l 1,1,-1
 688 1 l 1,2,-1
 633 35 l 1,3,-1
 635 469 l 1,4,-1
 522 469 l 1,5,-1
 522 1 l 1,6,-1
 466 35 l 1,7,-1
 470 229 l 1,8,9
 444 217 444 217 415 217 c 0,10,11
 377 217 377 217 332 256 c 1,12,13
 350 228 350 228 350 192 c 0,14,15
 350 138 350 138 314.5 103 c 128,-1,16
 279 68 279 68 224 68 c 0,17,18
 112 68 112 68 30 267 c 1,19,-1
 53 282 l 1,20,21
 115 122 115 122 209 122 c 0,22,23
 252 122 252 122 277 152 c 128,-1,24
 302 182 302 182 302 226 c 0,25,26
 302 288 302 288 251 305 c 1,27,28
 191 275 191 275 169 275 c 1,29,30
 161 278 161 278 144.5 296.5 c 128,-1,31
 128 315 128 315 128 322 c 0,32,33
 128 338 128 338 143 338 c 0,34,35
 187 338 187 338 225 357 c 0,36,37
 271 381 271 381 271 421 c 0,38,39
 271 474 271 474 213 474 c 0,40,41
 188 474 188 474 158 458 c 1,42,43
 132 443 132 443 107 429 c 1,44,45
 100 429 100 429 88 451 c 0,46,47
 79 469 79 469 76 481 c 1,48,49
 144 515 144 515 179 515 c 0,50,51
 225 515 225 515 272 477.5 c 128,-1,52
 319 440 319 440 319 395 c 0,53,54
 319 344 319 344 273 323 c 1,55,56
 345 264 345 264 395 264 c 0,57,58
 411 264 411 264 434.5 276 c 128,-1,59
 458 288 458 288 468 300 c 1,60,-1
 468 469 l 1,61,-1
 361 469 l 1,62,-1
 334 515 l 1,63,-1
 653 515 l 1,64,65
 662 531 662 531 662 551 c 0,66,67
 662 602 662 602 593 602 c 2,68,-1
 340 602 l 2,69,70
 255 602 255 602 255 683 c 0,71,72
 255 711 255 711 275.5 730 c 128,-1,73
 296 749 296 749 324 749 c 1,74,-1
 334 731 l 1,75,76
 315 731 315 731 301.5 719 c 128,-1,77
 288 707 288 707 288 688 c 0,78,79
 288 647 288 647 327 647 c 2,80,-1
 606 647 l 2,81,82
 642 647 642 647 669 628 c 0,83,84
 700 606 700 606 700 572 c 0,85,86
 700 545 700 545 678 515 c 1,87,-1
 733 515 l 1,88,-1
 760 469 l 1,0,-1
EndSplineSet
EndChar

StartChar: glyph106
Encoding: 2323 2323 115
Width: 731
GlyphClass: 2
Flags: W
AnchorPoint: "Anchor-10" 1074 86 basechar 0
AnchorPoint: "Anchor-3" 650 0 basechar 0
AnchorPoint: "Anchor-2" 750 50 basechar 0
LayerCount: 2
Fore
SplineSet
760 469 m 1,0,-1
 688 469 l 1,1,-1
 688 1 l 1,2,-1
 633 35 l 1,3,-1
 635 469 l 1,4,-1
 522 469 l 1,5,-1
 522 1 l 1,6,-1
 466 35 l 1,7,-1
 470 229 l 1,8,9
 444 217 444 217 415 217 c 0,10,11
 377 217 377 217 332 256 c 1,12,13
 350 228 350 228 350 192 c 0,14,15
 350 138 350 138 314.5 103 c 128,-1,16
 279 68 279 68 224 68 c 0,17,18
 112 68 112 68 30 267 c 1,19,-1
 53 282 l 1,20,21
 115 122 115 122 209 122 c 0,22,23
 252 122 252 122 277 152 c 128,-1,24
 302 182 302 182 302 226 c 0,25,26
 302 288 302 288 251 305 c 1,27,28
 191 275 191 275 169 275 c 1,29,30
 162 278 162 278 145 296.5 c 128,-1,31
 128 315 128 315 128 322 c 0,32,33
 128 338 128 338 143 338 c 0,34,35
 187 338 187 338 225 357 c 0,36,37
 271 381 271 381 271 421 c 0,38,39
 271 474 271 474 213 474 c 0,40,41
 188 474 188 474 158 458 c 1,42,43
 132 443 132 443 107 429 c 1,44,45
 100 429 100 429 88 451 c 0,46,47
 79 469 79 469 76 481 c 1,48,49
 144 515 144 515 179 515 c 0,50,51
 225 515 225 515 272 477.5 c 128,-1,52
 319 440 319 440 319 395 c 0,53,54
 319 344 319 344 273 323 c 1,55,56
 345 264 345 264 395 264 c 0,57,58
 411 264 411 264 434.5 276 c 128,-1,59
 458 288 458 288 468 300 c 1,60,-1
 468 469 l 1,61,-1
 361 469 l 1,62,-1
 334 515 l 1,63,-1
 643 515 l 1,64,65
 552 669 552 669 507 669 c 0,66,67
 495 669 495 669 460 655 c 1,68,69
 454 663 454 663 437 696.5 c 128,-1,70
 420 730 420 730 420 736 c 0,71,72
 420 749 420 749 465 749 c 0,73,74
 516 749 516 749 558 691 c 0,75,76
 608 622 608 622 666 515 c 1,77,-1
 733 515 l 1,78,-1
 760 469 l 1,0,-1
EndSplineSet
EndChar

StartChar: glyph107
Encoding: 2324 2324 116
Width: 731
GlyphClass: 2
Flags: W
AnchorPoint: "Anchor-10" 1074 86 basechar 0
AnchorPoint: "Anchor-3" 800 0 basechar 0
AnchorPoint: "Anchor-2" 780 30 basechar 0
LayerCount: 2
Fore
SplineSet
760 469 m 1,0,-1
 688 469 l 1,1,-1
 688 1 l 1,2,-1
 633 35 l 1,3,-1
 635 469 l 1,4,-1
 522 469 l 1,5,-1
 522 1 l 1,6,-1
 466 35 l 1,7,-1
 470 229 l 1,8,9
 444 217 444 217 415 217 c 0,10,11
 377 217 377 217 332 256 c 1,12,13
 350 228 350 228 350 192 c 0,14,15
 350 138 350 138 314.5 103 c 128,-1,16
 279 68 279 68 224 68 c 0,17,18
 112 68 112 68 30 267 c 1,19,-1
 53 282 l 1,20,21
 115 122 115 122 209 122 c 0,22,23
 252 122 252 122 277 152 c 128,-1,24
 302 182 302 182 302 226 c 0,25,26
 302 288 302 288 251 305 c 1,27,28
 191 275 191 275 169 275 c 1,29,30
 161 278 161 278 144.5 296.5 c 128,-1,31
 128 315 128 315 128 322 c 0,32,33
 128 338 128 338 143 338 c 0,34,35
 187 338 187 338 225 357 c 0,36,37
 271 381 271 381 271 421 c 0,38,39
 271 474 271 474 213 474 c 0,40,41
 188 474 188 474 158 458 c 1,42,43
 132 443 132 443 107 429 c 1,44,45
 100 429 100 429 88 451 c 0,46,47
 79 469 79 469 76 481 c 1,48,49
 144 515 144 515 179 515 c 0,50,51
 225 515 225 515 272 477.5 c 128,-1,52
 319 440 319 440 319 395 c 0,53,54
 319 344 319 344 273 323 c 1,55,56
 345 264 345 264 395 264 c 0,57,58
 411 264 411 264 434.5 276 c 128,-1,59
 458 288 458 288 468 300 c 1,60,-1
 468 469 l 1,61,-1
 361 469 l 1,62,-1
 334 515 l 1,63,-1
 613 515 l 1,64,65
 522 606 522 606 477 606 c 0,66,67
 461 606 461 606 436 592 c 1,68,69
 430 603 430 603 415 639 c 128,-1,70
 400 675 400 675 400 683 c 0,71,72
 400 692 400 692 422 692 c 0,73,74
 461 692 461 692 537 621 c 0,75,76
 588 573 588 573 636 515 c 1,77,-1
 651 515 l 1,78,79
 622 607 622 607 611 626 c 0,80,81
 579 683 579 683 518 683 c 1,82,83
 508 732 508 732 508 765 c 0,84,85
 508 775 508 775 518 775 c 0,86,87
 527 775 527 775 551 764 c 0,88,89
 593 743 593 743 627 652 c 0,90,91
 635 631 635 631 669 515 c 1,92,-1
 733 515 l 1,93,-1
 760 469 l 1,0,-1
EndSplineSet
EndChar

StartChar: glyph128
Encoding: 2325 2325 117
Width: 584
GlyphClass: 2
Flags: W
AnchorPoint: "Anchor-9" 600 0 basechar 0
AnchorPoint: "Anchor-8" 393 0 basechar 0
AnchorPoint: "Anchor-1" 390 0 basechar 0
AnchorPoint: "Anchor-0" 385 0 basechar 0
LayerCount: 2
Fore
SplineSet
625 469 m 1,0,-1
 348 469 l 1,1,-1
 348 301 l 1,2,3
 401 348 401 348 438 348 c 0,4,5
 486 348 486 348 515 292 c 1,6,7
 540 246 540 246 540 194 c 0,8,9
 540 139 540 139 491 60 c 1,10,-1
 445 104 l 1,11,12
 500 185 500 185 500 244 c 0,13,14
 500 295 500 295 452 295 c 0,15,16
 416 295 416 295 348 234 c 1,17,-1
 348 1 l 1,18,-1
 292 35 l 1,19,-1
 296 186 l 1,20,21
 240 130 240 130 190 130 c 0,22,23
 135 130 135 130 96 178 c 128,-1,24
 57 226 57 226 57 282 c 0,25,26
 57 327 57 327 88.5 354.5 c 128,-1,27
 120 382 120 382 165 382 c 0,28,29
 240 382 240 382 300 285 c 1,30,31
 294 314 294 314 294 328 c 2,32,-1
 294 469 l 1,33,-1
 0 469 l 1,34,-1
 -26 515 l 1,35,-1
 598 515 l 1,36,-1
 625 469 l 1,0,-1
295 256 m 1,37,38
 266 296 266 296 246 310 c 0,39,40
 218 329 218 329 176 329 c 0,41,42
 142 329 142 329 119 306 c 128,-1,43
 96 283 96 283 96 249 c 0,44,45
 96 221 96 221 114 199 c 128,-1,46
 132 177 132 177 159 177 c 0,47,48
 221 177 221 177 295 256 c 1,37,38
EndSplineSet
EndChar

StartChar: glyph129
Encoding: 2326 2326 118
Width: 596
GlyphClass: 2
Flags: W
AnchorPoint: "Anchor-9" 650 0 basechar 0
AnchorPoint: "Anchor-8" 598 0 basechar 0 {17-17 1} {}
AnchorPoint: "Anchor-5" 590 0 basechar 0
AnchorPoint: "Anchor-4" 590 0 basechar 0 {17-17 1} {}
LayerCount: 2
Fore
SplineSet
624 469 m 1,0,-1
 553 469 l 1,1,-1
 553 1 l 1,2,-1
 500 35 l 1,3,-1
 502 92 l 1,4,5
 403 16 403 16 324 16 c 0,6,7
 249 16 249 16 170 94 c 0,8,9
 103 160 103 160 71 241 c 0,10,11
 57 276 57 276 57 281 c 0,12,13
 57 287 57 287 63.5 296.5 c 128,-1,14
 70 306 70 306 75 306 c 0,15,16
 95 306 95 306 131 285 c 1,17,18
 146 309 146 309 146 373 c 0,19,20
 146 442 146 442 143 469 c 1,21,-1
 -2 469 l 1,22,-1
 -29 515 l 1,23,-1
 597 515 l 1,24,-1
 624 469 l 1,0,-1
501 274 m 1,25,26
 474 312 474 312 452 328 c 0,27,28
 423 348 423 348 382 348 c 0,29,30
 348 348 348 348 325 325 c 128,-1,31
 302 302 302 302 302 268 c 0,32,33
 302 240 302 240 319.5 223 c 128,-1,34
 337 206 337 206 365 206 c 0,35,36
 416 206 416 206 501 274 c 1,25,26
504 308 m 1,37,38
 499 330 499 330 498 360 c 0,39,40
 498 381 498 381 499 416 c 0,41,42
 500 457 500 457 500 469 c 1,43,-1
 196 469 l 1,44,45
 196 442 196 442 198 387.5 c 128,-1,46
 200 333 200 333 200 306 c 0,47,48
 200 238 200 238 134 188 c 1,49,50
 163 137 163 137 207 103 c 0,51,52
 258 63 258 63 310 63 c 0,53,54
 360 63 360 63 412 92 c 0,55,56
 439 107 439 107 500 154 c 1,57,-1
 500 204 l 1,58,59
 460 178 460 178 451 173 c 0,60,61
 424 159 424 159 396 159 c 0,62,63
 341 159 341 159 302 202 c 128,-1,64
 263 245 263 245 263 301 c 0,65,66
 263 346 263 346 294.5 373.5 c 128,-1,67
 326 401 326 401 371 401 c 0,68,69
 418 401 418 401 450 373 c 0,70,71
 464 361 464 361 504 308 c 1,37,38
EndSplineSet
EndChar

StartChar: glyph130
Encoding: 2327 2327 119
Width: 415
GlyphClass: 2
Flags: W
AnchorPoint: "Anchor-9" 500 0 basechar 0
AnchorPoint: "Anchor-8" 400 0 basechar 0 {17-17 1} {}
AnchorPoint: "Anchor-5" 400 0 basechar 0
AnchorPoint: "Anchor-4" 400 0 basechar 0 {17-17 1} {}
LayerCount: 2
Fore
SplineSet
443 469 m 1,0,-1
 372 469 l 1,1,-1
 372 1 l 1,2,-1
 317 35 l 1,3,-1
 319 469 l 1,4,-1
 176 469 l 1,5,-1
 176 213 l 2,6,7
 176 176 176 176 145 176 c 0,8,9
 125 176 125 176 89 218.5 c 128,-1,10
 53 261 53 261 53 282 c 256,11,12
 53 303 53 303 77 303 c 0,13,14
 82 303 82 303 92 302 c 0,15,16
 101 302 101 302 105 302 c 0,17,18
 122 302 122 302 122 314 c 2,19,-1
 122 469 l 1,20,-1
 -1 469 l 1,21,-1
 -28 515 l 1,22,-1
 416 515 l 1,23,-1
 443 469 l 1,0,-1
EndSplineSet
EndChar

StartChar: glyph131
Encoding: 2328 2328 120
Width: 439
GlyphClass: 2
Flags: W
AnchorPoint: "Anchor-9" 500 0 basechar 0
AnchorPoint: "Anchor-8" 440 0 basechar 0 {11-17 -1,0,0,0,0,0,1} {}
AnchorPoint: "Anchor-5" 1220 0 basechar 0
AnchorPoint: "Anchor-4" 440 0 basechar 0 {11-17 -1,0,0,0,0,0,1} {}
LayerCount: 2
Fore
SplineSet
468 469 m 1,0,-1
 396 469 l 1,1,-1
 396 1 l 1,2,-1
 341 35 l 1,3,-1
 342 177 l 1,4,5
 291 120 291 120 218 120 c 0,6,7
 167 120 167 120 120 162.5 c 128,-1,8
 73 205 73 205 73 255 c 0,9,10
 73 322 73 322 130 344 c 1,11,12
 84 375 84 375 69 395 c 0,13,14
 47 423 47 423 47 469 c 1,15,-1
 -1 469 l 1,16,-1
 -28 515 l 1,17,-1
 441 515 l 1,18,-1
 468 469 l 1,0,-1
343 469 m 1,19,-1
 125 469 l 1,20,21
 107 451 107 451 107 420 c 0,22,23
 107 385 107 385 156 353 c 1,24,25
 231 353 231 353 251 336 c 1,26,27
 268 296 268 296 268 289 c 0,28,29
 268 285 268 285 265 283 c 1,30,31
 260 282 260 282 259 282 c 0,32,33
 247 282 247 282 223.5 290 c 128,-1,34
 200 298 200 298 188 298 c 0,35,36
 160 298 160 298 140.5 278.5 c 128,-1,37
 121 259 121 259 121 231 c 0,38,39
 121 198 121 198 142 175.5 c 128,-1,40
 163 153 163 153 196 153 c 0,41,42
 259 153 259 153 342 245 c 1,43,-1
 343 469 l 1,19,-1
EndSplineSet
EndChar

StartChar: glyph132
Encoding: 2329 2329 121
Width: 529
GlyphClass: 2
Flags: W
AnchorPoint: "Anchor-9" 560 0 basechar 0
AnchorPoint: "Anchor-8" 380 0 basechar 0 {11-11 -1} {}
AnchorPoint: "Anchor-1" 420 0 basechar 0
AnchorPoint: "Anchor-0" 420 0 basechar 0 {11-11 -1} {}
LayerCount: 2
Fore
SplineSet
499 295 m 256,0,1
 499 276 499 276 486.5 262 c 128,-1,2
 474 248 474 248 455 248 c 256,3,4
 436 248 436 248 423.5 262 c 128,-1,5
 411 276 411 276 411 295 c 256,6,7
 411 314 411 314 423.5 328 c 128,-1,8
 436 342 436 342 455 342 c 256,9,10
 474 342 474 342 486.5 328 c 128,-1,11
 499 314 499 314 499 295 c 256,0,1
564 469 m 1,12,-1
 377 469 l 1,13,14
 377 472 377 472 378 431 c 0,15,16
 379 399 379 399 378 380 c 0,17,18
 377 353 377 353 372 347 c 128,-1,19
 367 341 367 341 359 341 c 2,20,-1
 233 341 l 2,21,22
 185 341 185 341 185 295 c 0,23,24
 185 236 185 236 228 236 c 0,25,26
 247 236 247 236 283.5 244.5 c 128,-1,27
 320 253 320 253 339 253 c 0,28,29
 372 253 372 253 405.5 211 c 128,-1,30
 439 169 439 169 439 135 c 0,31,32
 439 84 439 84 402.5 52 c 128,-1,33
 366 20 366 20 314 20 c 0,34,35
 243 20 243 20 166 83 c 0,36,37
 103 134 103 134 56 208 c 1,38,-1
 81 228 l 1,39,40
 130 152 130 152 168 120 c 0,41,42
 224 73 224 73 296 73 c 0,43,44
 334 73 334 73 366.5 97 c 128,-1,45
 399 121 399 121 399 158 c 0,46,47
 399 200 399 200 372 200 c 0,48,49
 351 200 351 200 312 191.5 c 128,-1,50
 273 183 273 183 252 183 c 0,51,52
 215 183 215 183 176 232 c 128,-1,53
 137 281 137 281 137 320 c 0,54,55
 137 349 137 349 157 371.5 c 128,-1,56
 177 394 177 394 206 394 c 2,57,-1
 323 394 l 1,58,-1
 323 469 l 1,59,-1
 -1 469 l 1,60,-1
 -28 515 l 1,61,-1
 537 515 l 1,62,-1
 564 469 l 1,12,-1
EndSplineSet
EndChar

StartChar: glyph133
Encoding: 2330 2330 122
Width: 508
GlyphClass: 2
Flags: W
AnchorPoint: "Anchor-9" 600 0 basechar 0
AnchorPoint: "Anchor-8" 500 0 basechar 0 {12-17 -1,0,0,0,0,1} {}
AnchorPoint: "Anchor-5" 495 0 basechar 0
AnchorPoint: "Anchor-4" 495 0 basechar 0 {12-17 -1,0,0,0,0,1} {}
LayerCount: 2
Fore
SplineSet
534 469 m 1,0,-1
 463 469 l 1,1,-1
 463 1 l 1,2,-1
 407 35 l 1,3,-1
 411 180 l 1,4,5
 358 127 358 127 299 127 c 0,6,7
 243 127 243 127 201 159 c 0,8,9
 155 194 155 194 155 248 c 0,10,11
 155 280 155 280 178 311 c 1,12,-1
 85 311 l 1,13,-1
 58 364 l 1,14,-1
 353 364 l 1,15,-1
 379 314 l 1,16,17
 371 314 371 314 354 315 c 0,18,19
 337 315 337 315 329 315 c 0,20,21
 277 315 277 315 264 312 c 0,22,23
 232 305 232 305 215 273 c 0,24,25
 203 251 203 251 203 225 c 0,26,27
 203 197 203 197 219 178.5 c 128,-1,28
 235 160 235 160 263 160 c 0,29,30
 312 160 312 160 409 252 c 1,31,-1
 409 469 l 1,32,-1
 0 469 l 1,33,-1
 -27 515 l 1,34,-1
 507 515 l 1,35,-1
 534 469 l 1,0,-1
EndSplineSet
EndChar

StartChar: glyph134
Encoding: 2331 2331 123
Width: 512
GlyphClass: 2
Flags: W
AnchorPoint: "Anchor-9" 580 0 basechar 0
AnchorPoint: "Anchor-8" 380 0 basechar 0
LayerCount: 2
Fore
SplineSet
548 469 m 1,0,-1
 429 469 l 1,1,-1
 429 389 l 1,2,3
 492 342 492 342 492 255 c 0,4,5
 492 165 492 165 421 90.5 c 128,-1,6
 350 16 350 16 261 16 c 0,7,8
 208 16 208 16 159 51 c 0,9,10
 105 89 105 89 105 140 c 0,11,12
 105 171 105 171 139 202 c 1,13,14
 57 257 57 257 57 300 c 0,15,16
 57 341 57 341 86 365 c 128,-1,17
 115 389 115 389 157 389 c 256,18,19
 199 389 199 389 213 377.5 c 128,-1,20
 227 366 227 366 242 326 c 1,21,22
 212 336 212 336 185 336 c 0,23,24
 105 336 105 336 105 280 c 0,25,26
 105 255 105 255 123.5 241.5 c 128,-1,27
 142 228 142 228 167 228 c 0,28,29
 176 228 176 228 192 232.5 c 128,-1,30
 208 237 208 237 217 237 c 0,31,32
 243 237 243 237 258 231 c 1,33,34
 266 214 266 214 281 181 c 1,35,-1
 277 177 l 1,36,37
 238 184 238 184 231 184 c 0,38,39
 198 184 198 184 175.5 162 c 128,-1,40
 153 140 153 140 153 107 c 0,41,42
 153 57 153 57 225 57 c 0,43,44
 274 57 274 57 331.5 87.5 c 128,-1,45
 389 118 389 118 411 159 c 1,46,47
 289 240 289 240 289 311 c 0,48,49
 289 351 289 351 312.5 377 c 128,-1,50
 336 403 336 403 375 409 c 1,51,-1
 375 469 l 1,52,-1
 0 469 l 1,53,-1
 -27 515 l 1,54,-1
 521 515 l 1,55,-1
 548 469 l 1,0,-1
453 282 m 0,56,57
 453 312 453 312 439 338 c 0,58,59
 422 370 422 370 395 370 c 0,60,61
 370 370 370 370 356 344 c 1,62,63
 343 322 343 322 343 296 c 0,64,65
 343 217 343 217 425 184 c 1,66,67
 453 232 453 232 453 282 c 0,56,57
EndSplineSet
EndChar

StartChar: glyph135
Encoding: 2332 2332 124
Width: 508
GlyphClass: 2
Flags: W
AnchorPoint: "Anchor-9" 530 0 basechar 0
AnchorPoint: "Anchor-8" 500 0 basechar 0 {17-17 -1} {}
AnchorPoint: "Anchor-5" 500 0 basechar 0
AnchorPoint: "Anchor-4" 500 0 basechar 0
LayerCount: 2
Fore
SplineSet
534 469 m 1,0,-1
 463 469 l 1,1,-1
 463 1 l 1,2,-1
 407 35 l 1,3,-1
 409 318 l 1,4,-1
 270 318 l 1,5,6
 341 247 341 247 341 194 c 0,7,8
 341 157 341 157 315.5 130.5 c 128,-1,9
 290 104 290 104 253 104 c 0,10,11
 184 104 184 104 127 184 c 0,12,13
 97 226 97 226 53 326 c 1,14,-1
 82 338 l 1,15,16
 145 161 145 161 234 161 c 0,17,18
 259 161 259 161 274 179 c 128,-1,19
 289 197 289 197 289 223 c 0,20,21
 289 283 289 283 182 352 c 1,22,-1
 189 371 l 1,23,-1
 409 371 l 1,24,-1
 409 469 l 1,25,-1
 1 469 l 1,26,-1
 -26 515 l 1,27,-1
 507 515 l 1,28,-1
 534 469 l 1,0,-1
EndSplineSet
EndChar

StartChar: glyph136
Encoding: 2333 2333 125
Width: 478
GlyphClass: 2
Flags: W
AnchorPoint: "Anchor-9" 550 -75 basechar 0
AnchorPoint: "Anchor-8" 480 0 basechar 0 {17-17 1} {}
AnchorPoint: "Anchor-5" 480 0 basechar 0
AnchorPoint: "Anchor-4" 480 0 basechar 0 {17-17 1} {}
LayerCount: 2
Fore
SplineSet
507 469 m 1,0,-1
 435 469 l 1,1,-1
 435 1 l 1,2,-1
 380 35 l 1,3,-1
 381 243 l 1,4,5
 353 224 353 224 317 224 c 1,6,7
 322 224 322 224 280 230 c 1,8,9
 308 188 308 188 308 165 c 0,10,11
 308 76 308 76 183 45 c 1,12,-1
 295 -78 l 1,13,-1
 270 -102 l 1,14,15
 171 30 171 30 151 36 c 1,16,17
 131 39 131 39 93 51 c 1,18,19
 80 59 80 59 71.5 81 c 128,-1,20
 63 103 63 103 63 121 c 0,21,22
 63 132 63 132 74.5 140 c 128,-1,23
 86 148 86 148 97 148 c 0,24,25
 109 148 109 148 129 127.5 c 128,-1,26
 149 107 149 107 155 93 c 1,27,-1
 160 93 l 1,28,29
 199 91 199 91 233.5 117.5 c 128,-1,30
 268 144 268 144 268 183 c 0,31,32
 268 223 268 223 240 223 c 0,33,34
 226 223 226 223 200 212.5 c 128,-1,35
 174 202 174 202 159 202 c 0,36,37
 121 202 121 202 87 259 c 0,38,39
 57 310 57 310 57 352 c 0,40,41
 57 399 57 399 109 399 c 2,42,-1
 228 399 l 1,43,-1
 228 469 l 1,44,-1
 -1 469 l 1,45,-1
 -28 515 l 1,46,-1
 480 515 l 1,47,-1
 507 469 l 1,0,-1
382 469 m 1,48,-1
 276 469 l 1,49,-1
 276 364 l 2,50,51
 276 352 276 352 260 352 c 2,52,-1
 139 352 l 2,53,54
 97 352 97 352 97 322 c 0,55,56
 97 298 97 298 109 276 c 0,57,58
 124 250 124 250 146 250 c 0,59,60
 161 250 161 250 187.5 260 c 128,-1,61
 214 270 214 270 229 270 c 0,62,63
 251 270 251 270 262 257 c 1,64,-1
 275 256 l 1,65,66
 339 254 339 254 381 305 c 1,67,-1
 382 469 l 1,48,-1
EndSplineSet
EndChar

StartChar: glyph137
Encoding: 2334 2334 126
Width: 499
GlyphClass: 2
Flags: W
AnchorPoint: "Anchor-9" 520 0 basechar 0
AnchorPoint: "Anchor-8" 500 0 basechar 0 {17-17 1} {}
AnchorPoint: "Anchor-5" 490 0 basechar 0
AnchorPoint: "Anchor-4" 490 0 basechar 0 {12-17 -1,0,0,0,0,1} {}
LayerCount: 2
Fore
SplineSet
528 469 m 1,0,-1
 456 469 l 1,1,-1
 456 1 l 1,2,-1
 401 35 l 1,3,-1
 402 238 l 1,4,5
 360 230 360 230 336 232 c 1,6,7
 312 131 312 131 227 131 c 0,8,9
 128 131 128 131 37 267 c 1,10,-1
 59 287 l 1,11,12
 81 248 81 248 116 218 c 1,13,14
 158 184 158 184 197 184 c 0,15,16
 240 184 240 184 267.5 212.5 c 128,-1,17
 295 241 295 241 295 284 c 0,18,19
 295 306 295 306 287 325 c 0,20,21
 277 351 277 351 258 351 c 0,22,23
 243 351 243 351 217 330 c 0,24,25
 195 313 195 313 182 296 c 1,26,-1
 137 345 l 1,27,28
 174 384 174 384 225 384 c 0,29,30
 270 384 270 384 301.5 356.5 c 128,-1,31
 333 329 333 329 344 285 c 1,32,33
 364 287 364 287 402 296 c 1,34,-1
 403 469 l 1,35,-1
 -7 469 l 1,36,-1
 -34 515 l 1,37,-1
 501 515 l 1,38,-1
 528 469 l 1,0,-1
EndSplineSet
EndChar

StartChar: glyph138
Encoding: 2335 2335 127
Width: 380
GlyphClass: 2
Flags: W
AnchorPoint: "Anchor-9" 500 0 basechar 0
AnchorPoint: "Anchor-8" 400 0 basechar 0
AnchorPoint: "Anchor-1" 350 0 basechar 0
AnchorPoint: "Anchor-0" 350 0 basechar 0 {11-17 -1,1,0,0,0,0,1} {}
LayerCount: 2
Fore
SplineSet
407 469 m 1,0,-1
 311 469 l 1,1,2
 311 475 311 475 312 420 c 1,3,4
 314 377 314 377 312 349 c 0,5,6
 310 310 310 310 304 297 c 0,7,8
 293 276 293 276 239 262 c 0,9,10
 163 243 163 243 150 237 c 0,11,12
 104 217 104 217 104 175 c 256,13,14
 104 133 104 133 129 103 c 0,15,16
 156 70 156 70 197 70 c 0,17,18
 267 70 267 70 364 122 c 1,19,-1
 388 70 l 1,20,21
 312 23 312 23 233 23 c 0,22,23
 162 23 162 23 109.5 80 c 128,-1,24
 57 137 57 137 57 208 c 0,25,26
 57 260 57 260 104 286 c 0,27,28
 129 300 129 300 194 313 c 0,29,30
 245 324 245 324 251 338 c 0,31,32
 255 349 255 349 255 392 c 0,33,34
 255 405 255 405 255 430 c 0,35,36
 254 456 254 456 254 469 c 1,37,-1
 -1 469 l 1,38,-1
 -30 515 l 1,39,-1
 378 515 l 1,40,-1
 407 469 l 1,0,-1
EndSplineSet
EndChar

StartChar: glyph139
Encoding: 2336 2336 128
Width: 430
GlyphClass: 2
Flags: W
AnchorPoint: "Anchor-9" 500 0 basechar 0
AnchorPoint: "Anchor-8" 400 0 basechar 0
LayerCount: 2
Fore
SplineSet
458 469 m 1,0,-1
 348 469 l 1,1,2
 366 419 366 419 366 389 c 0,3,4
 366 343 366 343 319 304 c 1,5,6
 412 245 412 245 412 173 c 0,7,8
 412 113 412 113 365 69.5 c 128,-1,9
 318 26 318 26 257 26 c 0,10,11
 181 26 181 26 119 86.5 c 128,-1,12
 57 147 57 147 57 223 c 0,13,14
 57 332 57 332 246 332 c 0,15,16
 277 332 277 332 294.5 352.5 c 128,-1,17
 312 373 312 373 312 404 c 0,18,19
 312 439 312 439 298 469 c 1,20,-1
 0 469 l 1,21,-1
 -27 515 l 1,22,-1
 431 515 l 1,23,-1
 458 469 l 1,0,-1
364 193 m 0,24,25
 364 229 364 229 342.5 257 c 128,-1,26
 321 285 321 285 286 285 c 0,27,28
 225 285 225 285 175 269 c 1,29,30
 105 245 105 245 105 197 c 0,31,32
 105 140 105 140 140 106.5 c 128,-1,33
 175 73 175 73 233 73 c 0,34,35
 282 73 282 73 323 109 c 128,-1,36
 364 145 364 145 364 193 c 0,24,25
EndSplineSet
EndChar

StartChar: glyph140
Encoding: 2337 2337 129
Width: 474
GlyphClass: 2
Flags: W
AnchorPoint: "Anchor-9" 530 0 basechar 0
AnchorPoint: "Anchor-8" 410 0 basechar 0
AnchorPoint: "Anchor-1" 430 0 basechar 0
AnchorPoint: "Anchor-0" 430 0 basechar 0 {11-11 -1} {}
LayerCount: 2
Fore
SplineSet
519 469 m 1,0,-1
 395 469 l 1,1,-1
 395 361 l 2,2,3
 395 353 395 353 387 347 c 0,4,5
 375 338 375 338 346 338 c 0,6,7
 333 338 333 338 301.5 341 c 128,-1,8
 270 344 270 344 255 344 c 0,9,10
 186 344 186 344 186 295 c 0,11,12
 186 236 186 236 229 236 c 0,13,14
 250 236 250 236 290 244.5 c 128,-1,15
 330 253 330 253 351 253 c 0,16,17
 384 253 384 253 418 211 c 128,-1,18
 452 169 452 169 452 135 c 0,19,20
 452 84 452 84 415.5 52 c 128,-1,21
 379 20 379 20 327 20 c 0,22,23
 182 20 182 20 57 208 c 1,24,-1
 82 228 l 1,25,26
 132 149 132 149 173 116 c 1,27,28
 229 73 229 73 309 73 c 0,29,30
 347 73 347 73 379.5 97 c 128,-1,31
 412 121 412 121 412 158 c 0,32,33
 412 200 412 200 384 200 c 0,34,35
 362 200 362 200 318.5 191.5 c 128,-1,36
 275 183 275 183 253 183 c 0,37,38
 214 183 214 183 175 233 c 0,39,40
 138 280 138 280 138 320 c 0,41,42
 138 350 138 350 158 372 c 128,-1,43
 178 394 178 394 208 394 c 2,44,-1
 341 394 l 1,45,-1
 341 469 l 1,46,-1
 1 469 l 1,47,-1
 -26 515 l 1,48,-1
 492 515 l 1,49,-1
 519 469 l 1,0,-1
EndSplineSet
EndChar

StartChar: glyph141
Encoding: 2338 2338 130
Width: 432
GlyphClass: 2
Flags: W
AnchorPoint: "Anchor-9" 520 0 basechar 0
AnchorPoint: "Anchor-8" 380 0 basechar 0
AnchorPoint: "Anchor-1" 390 0 basechar 0
AnchorPoint: "Anchor-0" 390 0 basechar 0 {11-13 -1,0,-1} {}
LayerCount: 2
Fore
SplineSet
461 469 m 1,0,-1
 355 469 l 1,1,2
 355 472 355 472 356 429 c 0,3,4
 357 394 357 394 356 373 c 0,5,6
 355 344 355 344 350 338.5 c 128,-1,7
 345 333 345 333 308 333 c 0,8,9
 259 332 259 332 210 332 c 1,10,11
 159 328 159 328 135 307 c 0,12,13
 105 280 105 280 105 217 c 0,14,15
 105 165 105 165 137 126 c 128,-1,16
 169 87 169 87 221 80 c 1,17,18
 201 128 201 128 201 162 c 0,19,20
 201 265 201 265 297 265 c 0,21,22
 346 265 346 265 374 219 c 1,23,24
 399 180 399 180 399 129 c 0,25,26
 399 80 399 80 361.5 50 c 128,-1,27
 324 20 324 20 273 20 c 0,28,29
 241 20 241 20 209 37 c 0,30,31
 57 117 57 117 57 269 c 0,32,33
 57 357 57 357 143 379 c 0,34,35
 172 386 172 386 301 386 c 1,36,-1
 301 469 l 1,37,-1
 -2 469 l 1,38,-1
 -29 515 l 1,39,-1
 434 515 l 1,40,-1
 461 469 l 1,0,-1
369 157 m 0,41,42
 369 181 369 181 351.5 196.5 c 128,-1,43
 334 212 334 212 309 212 c 0,44,45
 273 212 273 212 255 179 c 0,46,47
 240 153 240 153 240 114 c 0,48,49
 240 105 240 105 247 76 c 1,50,51
 253 73 253 73 260 73 c 0,52,53
 298 73 298 73 332 95 c 1,54,55
 369 121 369 121 369 157 c 0,41,42
EndSplineSet
EndChar

StartChar: glyph142
Encoding: 2339 2339 131
Width: 480
GlyphClass: 2
Flags: W
AnchorPoint: "Anchor-9" 550 0 basechar 0
AnchorPoint: "Anchor-8" 480 0 basechar 0 {17-17 1} {}
AnchorPoint: "Anchor-5" 480 0 basechar 0
AnchorPoint: "Anchor-4" 480 0 basechar 0 {17-17 1} {}
LayerCount: 2
Fore
SplineSet
509 469 m 1,0,-1
 437 469 l 1,1,-1
 437 1 l 1,2,-1
 382 35 l 1,3,-1
 384 469 l 1,4,-1
 292 469 l 1,5,-1
 292 241 l 2,6,7
 292 205 292 205 264 182.5 c 128,-1,8
 236 160 236 160 200 160 c 0,9,10
 166 160 166 160 119 200 c 0,11,12
 67 245 67 245 67 288 c 2,13,-1
 67 469 l 1,14,-1
 -1 469 l 1,15,-1
 -28 515 l 1,16,-1
 482 515 l 1,17,-1
 509 469 l 1,0,-1
238 277 m 2,18,-1
 238 469 l 1,19,-1
 121 469 l 1,20,-1
 121 256 l 2,21,22
 121 235 121 235 136 218 c 128,-1,23
 151 201 151 201 172 201 c 0,24,25
 238 201 238 201 238 277 c 2,18,-1
EndSplineSet
EndChar

StartChar: glyph143
Encoding: 2340 2340 132
Width: 389
GlyphClass: 2
Flags: W
AnchorPoint: "Anchor-9" 500 0 basechar 0
AnchorPoint: "Anchor-8" 390 0 basechar 0 {11-11 -1} {}
AnchorPoint: "Anchor-5" 380 0 basechar 0
AnchorPoint: "Anchor-4" 380 0 basechar 0 {11-11 -1} {}
LayerCount: 2
Fore
SplineSet
417 469 m 1,0,-1
 346 469 l 1,1,-1
 346 1 l 1,2,-1
 291 35 l 1,3,-1
 294 319 l 1,4,-1
 192 319 l 2,5,6
 105 319 105 319 105 236 c 0,7,8
 105 155 105 155 207 39 c 1,9,-1
 179 15 l 1,10,11
 57 174 57 174 57 270 c 0,12,13
 57 314 57 314 84.5 343 c 128,-1,14
 112 372 112 372 156 372 c 2,15,-1
 292 372 l 1,16,-1
 292 469 l 1,17,-1
 0 469 l 1,18,-1
 -27 515 l 1,19,-1
 390 515 l 1,20,-1
 417 469 l 1,0,-1
EndSplineSet
EndChar

StartChar: glyph144
Encoding: 2341 2341 133
Width: 468
GlyphClass: 2
Flags: W
AnchorPoint: "Anchor-9" 500 0 basechar 0
AnchorPoint: "Anchor-8" 465 0 basechar 0 {11-17 -1,0,0,0,0,0,1} {}
AnchorPoint: "Anchor-5" 460 0 basechar 0
AnchorPoint: "Anchor-4" 460 0 basechar 0 {11-17 -1,0,0,0,0,0,1} {}
LayerCount: 2
Fore
SplineSet
494 469 m 1,0,-1
 423 469 l 1,1,-1
 423 1 l 1,2,-1
 369 35 l 1,3,-1
 372 193 l 1,4,5
 314 135 314 135 253 135 c 0,6,7
 172 135 172 135 108 199 c 0,8,9
 85 222 85 222 62 254 c 1,10,11
 110 279 110 279 181 322 c 1,12,13
 56 366 56 366 56 422 c 0,14,15
 56 461 56 461 83.5 487.5 c 128,-1,16
 111 514 111 514 150 514 c 0,17,18
 192 514 192 514 235.5 479 c 128,-1,19
 279 444 279 444 279 403 c 0,20,21
 279 311 279 311 145 239 c 1,22,23
 154 176 154 176 217 176 c 0,24,25
 256 176 256 176 303 207 c 0,26,27
 345 235 345 235 370 271 c 1,28,-1
 370 469 l 1,29,-1
 313 469 l 1,30,-1
 286 515 l 1,31,-1
 468 515 l 1,32,-1
 494 469 l 1,0,-1
229 420 m 0,33,34
 229 444 229 444 214.5 459 c 128,-1,35
 200 474 200 474 176 474 c 0,36,37
 151 474 151 474 132.5 459.5 c 128,-1,38
 114 445 114 445 114 420 c 0,39,40
 114 365 114 365 197 340 c 1,41,42
 229 370 229 370 229 420 c 0,33,34
EndSplineSet
EndChar

StartChar: glyph145
Encoding: 2342 2342 134
Width: 384
GlyphClass: 2
Flags: W
AnchorPoint: "Anchor-9" 500 0 basechar 0
AnchorPoint: "Anchor-8" 410 -30 basechar 0 {12-12 1} {}
AnchorPoint: "Anchor-5" 370 0 basechar 0
AnchorPoint: "Anchor-4" 370 0 basechar 0 {11-17 -1,0,0,0,0,0,1} {}
LayerCount: 2
Fore
SplineSet
417 469 m 1,0,-1
 340 469 l 1,1,-1
 340 352 l 2,2,3
 340 336 340 336 322 336 c 2,4,-1
 207 336 l 2,5,6
 162 336 162 336 133.5 311 c 128,-1,7
 105 286 105 286 105 242 c 0,8,9
 105 193 105 193 143 158.5 c 128,-1,10
 181 124 181 124 231 124 c 0,11,12
 254 124 254 124 267 130 c 1,13,14
 241 163 241 163 241 185 c 0,15,16
 241 196 241 196 252 203.5 c 128,-1,17
 263 211 263 211 275 211 c 0,18,19
 297 211 297 211 324.5 190.5 c 128,-1,20
 352 170 352 170 352 148 c 0,21,22
 352 107 352 107 322 93 c 1,23,24
 341 56 341 56 379 -19 c 1,25,-1
 350 -36 l 1,26,27
 332 2 332 2 296 78 c 1,28,29
 281 71 281 71 248 71 c 0,30,31
 177 71 177 71 116 142 c 0,32,33
 57 210 57 210 57 282 c 0,34,35
 57 357 57 357 143 379 c 0,36,37
 182 389 182 389 286 389 c 1,38,-1
 286 469 l 1,39,-1
 -1 469 l 1,40,-1
 -28 515 l 1,41,-1
 390 515 l 1,42,-1
 417 469 l 1,0,-1
EndSplineSet
EndChar

StartChar: glyph146
Encoding: 2343 2343 135
Width: 453
GlyphClass: 2
Flags: W
AnchorPoint: "Anchor-9" 500 0 basechar 0
AnchorPoint: "Anchor-8" 450 0 basechar 0 {17-17 1} {}
AnchorPoint: "Anchor-5" 420 0 basechar 0
AnchorPoint: "Anchor-4" 430 0 basechar 0 {12-17 -1,0,0,0,0,1} {}
LayerCount: 2
Fore
SplineSet
480 469 m 1,0,-1
 409 469 l 1,1,-1
 409 1 l 1,2,-1
 354 35 l 1,3,-1
 357 177 l 1,4,5
 293 113 293 113 232 113 c 0,6,7
 180 113 180 113 132 150 c 0,8,9
 81 190 81 190 81 240 c 0,10,11
 81 288 81 288 132 312 c 1,12,13
 83 344 83 344 67 362 c 0,14,15
 40 393 40 393 40 438 c 0,16,17
 40 470 40 470 61 492 c 128,-1,18
 82 514 82 514 114 514 c 0,19,20
 152 514 152 514 176.5 491 c 128,-1,21
 201 468 201 468 201 430 c 0,22,23
 201 365 201 365 126 354 c 1,24,25
 143 331 143 331 181 331 c 0,26,27
 188 331 188 331 203 332 c 128,-1,28
 218 333 218 333 225 333 c 0,29,30
 251 333 251 333 259 330 c 1,31,32
 282 298 282 298 282 284 c 0,33,34
 282 280 282 280 280 277 c 1,35,36
 274 275 274 275 267 275 c 0,37,38
 257 275 257 275 236 277.5 c 128,-1,39
 215 280 215 280 205 280 c 0,40,41
 129 280 129 280 129 210 c 0,42,43
 129 183 129 183 150 164.5 c 128,-1,44
 171 146 171 146 199 146 c 0,45,46
 271 146 271 146 355 245 c 1,47,-1
 355 469 l 1,48,-1
 284 469 l 1,49,-1
 257 515 l 1,50,-1
 453 515 l 1,51,-1
 480 469 l 1,0,-1
171 425 m 0,52,53
 171 443 171 443 160 456 c 128,-1,54
 149 469 149 469 131 469 c 0,55,56
 89 469 89 469 89 423 c 0,57,58
 89 395 89 395 111 371 c 1,59,60
 171 376 171 376 171 425 c 0,52,53
EndSplineSet
EndChar

StartChar: glyph147
Encoding: 2344 2344 136
Width: 376
GlyphClass: 2
Flags: W
AnchorPoint: "Anchor-9" 400 0 basechar 0
AnchorPoint: "Anchor-8" 380 0 basechar 0 {11-17 -1,0,0,0,0,0,1} {}
AnchorPoint: "Anchor-5" 380 0 basechar 0
AnchorPoint: "Anchor-4" 360 0 basechar 0 {11-17 -1,0,0,0,0,0,1} {}
LayerCount: 2
Fore
SplineSet
403 469 m 1,0,-1
 332 469 l 1,1,-1
 332 1 l 1,2,-1
 277 35 l 1,3,-1
 279 280 l 1,4,-1
 162 280 l 2,5,6
 140 280 140 280 140 268 c 0,7,8
 140 266 140 266 141 253.5 c 128,-1,9
 142 241 142 241 142 233 c 0,10,11
 142 185 142 185 114 185 c 0,12,13
 100 185 100 185 69.5 229.5 c 128,-1,14
 39 274 39 274 39 291 c 0,15,16
 39 333 39 333 104 333 c 2,17,-1
 279 333 l 1,18,-1
 279 469 l 1,19,-1
 -1 469 l 1,20,-1
 -28 515 l 1,21,-1
 376 515 l 1,22,-1
 403 469 l 1,0,-1
EndSplineSet
EndChar

StartChar: glyph183
Encoding: 2345 2345 137
Width: 376
GlyphClass: 3
Flags: W
AnchorPoint: "Anchor-9" 400 0 basechar 0
AnchorPoint: "Anchor-8" 380 0 basechar 0 {17-17 1} {}
AnchorPoint: "Anchor-5" 370 0 basechar 0
AnchorPoint: "Anchor-4" 370 0 basechar 0 {11-17 -1,0,0,0,0,0,1} {}
LayerCount: 2
Fore
SplineSet
403 469 m 1,0,-1
 332 469 l 1,1,-1
 332 1 l 1,2,-1
 277 35 l 1,3,-1
 279 280 l 1,4,-1
 162 280 l 2,5,6
 140 280 140 280 140 268 c 0,7,8
 140 266 140 266 141 253.5 c 128,-1,9
 142 241 142 241 142 233 c 0,10,11
 142 185 142 185 114 185 c 0,12,13
 100 185 100 185 69.5 229.5 c 128,-1,14
 39 274 39 274 39 291 c 0,15,16
 39 333 39 333 104 333 c 2,17,-1
 279 333 l 1,18,-1
 279 469 l 1,19,-1
 -1 469 l 1,20,-1
 -28 515 l 1,21,-1
 376 515 l 1,22,-1
 403 469 l 1,0,-1
189 49 m 256,23,24
 189 30 189 30 176 15.5 c 128,-1,25
 163 1 163 1 144 1 c 256,26,27
 125 1 125 1 112 15.5 c 128,-1,28
 99 30 99 30 99 49 c 256,29,30
 99 68 99 68 112 82.5 c 128,-1,31
 125 97 125 97 144 97 c 256,32,33
 163 97 163 97 176 82.5 c 128,-1,34
 189 68 189 68 189 49 c 256,23,24
EndSplineSet
Ligature2: "'nukt' Nukta Forms in Devanagari lookup 8 subtable" glyph147 glyph80
EndChar

StartChar: glyph148
Encoding: 2346 2346 138
Width: 375
GlyphClass: 2
Flags: W
AnchorPoint: "Anchor-9" 500 0 basechar 0
AnchorPoint: "Anchor-8" 380 0 basechar 0
AnchorPoint: "Anchor-5" 380 0 basechar 0
AnchorPoint: "Anchor-4" 370 0 basechar 0
LayerCount: 2
Fore
SplineSet
403 469 m 1,0,-1
 332 469 l 1,1,-1
 332 1 l 1,2,-1
 276 35 l 1,3,-1
 280 202 l 1,4,5
 241 179 241 179 200 179 c 0,6,7
 166 179 166 179 119 219 c 0,8,9
 67 264 67 264 67 306 c 2,10,-1
 67 469 l 1,11,-1
 -1 469 l 1,12,-1
 -28 515 l 1,13,-1
 376 515 l 1,14,-1
 403 469 l 1,0,-1
278 268 m 1,15,-1
 278 469 l 1,16,-1
 121 469 l 1,17,-1
 121 301 l 2,18,19
 121 226 121 226 173 226 c 0,20,21
 208 226 208 226 278 268 c 1,15,-1
EndSplineSet
EndChar

StartChar: glyph149
Encoding: 2347 2347 139
Width: 570
GlyphClass: 2
Flags: W
AnchorPoint: "Anchor-9" 600 0 basechar 0
AnchorPoint: "Anchor-8" 380 0 basechar 0
AnchorPoint: "Anchor-1" 360 0 basechar 0
AnchorPoint: "Anchor-0" 360 0 basechar 0
LayerCount: 2
Fore
SplineSet
603 469 m 1,0,-1
 325 469 l 1,1,-1
 325 297 l 1,2,3
 387 352 387 352 438 352 c 0,4,5
 486 352 486 352 515 296 c 1,6,7
 540 250 540 250 540 198 c 256,8,9
 540 146 540 146 491 64 c 1,10,-1
 445 108 l 1,11,12
 500 189 500 189 500 248 c 0,13,14
 500 299 500 299 452 299 c 0,15,16
 431 299 431 299 386 272 c 0,17,18
 349 250 349 250 325 230 c 1,19,-1
 325 1 l 1,20,-1
 269 35 l 1,21,-1
 273 202 l 1,22,23
 227 179 227 179 200 179 c 0,24,25
 166 179 166 179 119 219 c 0,26,27
 67 262 67 262 67 306 c 2,28,-1
 67 469 l 1,29,-1
 -1 469 l 1,30,-1
 -28 515 l 1,31,-1
 576 515 l 1,32,-1
 603 469 l 1,0,-1
271 268 m 1,33,-1
 271 469 l 1,34,-1
 121 469 l 1,35,-1
 121 301 l 2,36,37
 121 226 121 226 172 226 c 0,38,39
 215 226 215 226 271 268 c 1,33,-1
EndSplineSet
EndChar

StartChar: glyph150
Encoding: 2348 2348 140
Width: 446
GlyphClass: 2
Flags: W
AnchorPoint: "Anchor-9" 500 0 basechar 0
AnchorPoint: "Anchor-8" 450 0 basechar 0
AnchorPoint: "Anchor-5" 420 0 basechar 0
AnchorPoint: "Anchor-4" 440 0 basechar 0
LayerCount: 2
Fore
SplineSet
473 469 m 1,0,-1
 402 469 l 1,1,-1
 402 1 l 1,2,-1
 346 35 l 1,3,-1
 350 204 l 1,4,5
 309 127 309 127 216 127 c 0,6,7
 155 127 155 127 106 170.5 c 128,-1,8
 57 214 57 214 57 275 c 0,9,10
 57 328 57 328 106 360 c 0,11,12
 149 388 149 388 204 388 c 0,13,14
 288 388 288 388 348 293 c 1,15,-1
 348 469 l 1,16,-1
 -2 469 l 1,17,-1
 -29 515 l 1,18,-1
 446 515 l 1,19,-1
 473 469 l 1,0,-1
314 261 m 0,20,21
 314 297 314 297 294.5 322 c 128,-1,22
 275 347 275 347 240 347 c 0,23,24
 210 347 210 347 179 336 c 1,25,-1
 265 194 l 1,26,27
 314 220 314 220 314 261 c 0,20,21
240 180 m 1,28,-1
 154 322 l 1,29,30
 134 311 134 311 119.5 286.5 c 128,-1,31
 105 262 105 262 105 240 c 0,32,33
 105 168 105 168 183 168 c 0,34,35
 213 168 213 168 240 180 c 1,28,-1
EndSplineSet
EndChar

StartChar: glyph151
Encoding: 2349 2349 141
Width: 452
GlyphClass: 2
Flags: W
AnchorPoint: "Anchor-9" 500 0 basechar 0
AnchorPoint: "Anchor-8" 450 0 basechar 0 {13-13 1} {}
AnchorPoint: "Anchor-5" 440 0 basechar 0
AnchorPoint: "Anchor-4" 440 0 basechar 0 {13-13 1} {}
LayerCount: 2
Fore
SplineSet
479 469 m 1,0,-1
 409 469 l 1,1,-1
 409 1 l 1,2,-1
 354 35 l 1,3,-1
 355 219 l 1,4,-1
 205 219 l 1,5,-1
 205 158 l 2,6,7
 205 143 205 143 189 143 c 0,8,9
 174 143 174 143 133 186.5 c 128,-1,10
 92 230 92 230 92 246 c 0,11,12
 92 264 92 264 115 267 c 1,13,14
 113 267 113 267 151 267 c 1,15,-1
 154 334 l 1,16,17
 24 365 24 365 24 443 c 0,18,19
 24 476 24 476 44.5 495 c 128,-1,20
 65 514 65 514 98 514 c 0,21,22
 207 514 207 514 207 349 c 0,23,24
 207 333 207 333 206 305.5 c 128,-1,25
 205 278 205 278 205 267 c 1,26,-1
 355 267 l 1,27,-1
 355 469 l 1,28,-1
 284 469 l 1,29,-1
 257 515 l 1,30,-1
 452 515 l 1,31,-1
 479 469 l 1,0,-1
161 421 m 256,32,33
 161 449 161 449 153 461.5 c 128,-1,34
 145 474 145 474 119 474 c 0,35,36
 78 474 78 474 78 430 c 0,37,38
 78 402 78 402 103.5 381 c 128,-1,39
 129 360 129 360 158 360 c 1,40,41
 161 393 161 393 161 421 c 256,32,33
EndSplineSet
EndChar

StartChar: glyph152
Encoding: 2350 2350 142
Width: 424
GlyphClass: 2
Flags: W
AnchorPoint: "Anchor-9" 500 0 basechar 0
AnchorPoint: "Anchor-8" 430 0 basechar 0 {13-13 1} {}
AnchorPoint: "Anchor-5" 420 0 basechar 0
AnchorPoint: "Anchor-4" 420 0 basechar 0
LayerCount: 2
Fore
SplineSet
450 469 m 1,0,-1
 379 469 l 1,1,-1
 379 1 l 1,2,-1
 323 35 l 1,3,-1
 325 220 l 1,4,-1
 150 220 l 1,5,-1
 150 165 l 2,6,7
 150 142 150 142 133 142 c 0,8,9
 114 142 114 142 73.5 184 c 128,-1,10
 33 226 33 226 33 246 c 0,11,12
 33 269 33 269 65 269 c 0,13,14
 71 269 71 269 81.5 268 c 128,-1,15
 92 267 92 267 96 267 c 1,16,-1
 96 469 l 1,17,-1
 0 469 l 1,18,-1
 -27 515 l 1,19,-1
 423 515 l 1,20,-1
 450 469 l 1,0,-1
325 267 m 1,21,-1
 325 469 l 1,22,-1
 150 469 l 1,23,-1
 150 267 l 1,24,-1
 325 267 l 1,21,-1
EndSplineSet
EndChar

StartChar: glyph153
Encoding: 2351 2351 143
Width: 412
GlyphClass: 2
Flags: W
AnchorPoint: "Anchor-9" 500 0 basechar 0
AnchorPoint: "Anchor-8" 410 0 basechar 0 {11-17 -1,0,0,0,0,0,1} {}
AnchorPoint: "Anchor-5" 400 0 basechar 0
AnchorPoint: "Anchor-4" 400 0 basechar 0 {11-17 -1,0,0,0,0,0,1} {}
LayerCount: 2
Fore
SplineSet
438 469 m 1,0,-1
 367 469 l 1,1,-1
 367 1 l 1,2,-1
 311 35 l 1,3,-1
 315 204 l 1,4,5
 264 153 264 153 211 153 c 0,6,7
 141 153 141 153 94 201 c 0,8,9
 52 243 52 243 33 315 c 1,10,11
 153 339 153 339 153 401 c 0,12,13
 153 415 153 415 126 469 c 1,14,-1
 0 469 l 1,15,-1
 -27 515 l 1,16,-1
 411 515 l 1,17,-1
 438 469 l 1,0,-1
313 271 m 1,18,-1
 313 469 l 1,19,-1
 166 469 l 1,20,21
 201 396 201 396 201 365 c 0,22,23
 201 311 201 311 95 272 c 1,24,25
 95 194 95 194 160 194 c 256,26,27
 225 194 225 194 313 271 c 1,18,-1
EndSplineSet
EndChar

StartChar: glyph154
Encoding: 2352 2352 144
Width: 288
GlyphClass: 2
Flags: W
AnchorPoint: "Anchor-9" 400 0 basechar 0
AnchorPoint: "Anchor-8" 300 0 basechar 0
AnchorPoint: "Anchor-1" 260 0 basechar 0
AnchorPoint: "Anchor-0" 250 0 basechar 0 {11-13 -1,1,1} {}
LayerCount: 2
Fore
SplineSet
321 469 m 1,0,-1
 209 469 l 1,1,-1
 209 294 l 2,2,3
 209 272 209 272 198 252 c 0,4,5
 191 240 191 240 168.5 219.5 c 128,-1,6
 146 199 146 199 146 194 c 256,7,8
 146 189 146 189 298 24 c 1,9,-1
 274 -6 l 1,10,11
 57 231 57 231 57 276 c 0,12,13
 57 309 57 309 82 309 c 0,14,15
 89 309 89 309 112 294.5 c 128,-1,16
 135 280 135 280 141 280 c 0,17,18
 155 280 155 280 155 407 c 0,19,20
 155 437 155 437 151 469 c 1,21,-1
 0 469 l 1,22,-1
 -27 515 l 1,23,-1
 294 515 l 1,24,-1
 321 469 l 1,0,-1
EndSplineSet
EndChar

StartChar: glyph190
Encoding: 2353 2353 145
Width: 288
GlyphClass: 3
Flags: W
AnchorPoint: "Anchor-9" 400 0 basechar 0
AnchorPoint: "Anchor-8" 300 0 basechar 0
AnchorPoint: "Anchor-1" 260 0 basechar 0
AnchorPoint: "Anchor-0" 250 0 basechar 0 {11-13 -1,1,1} {}
LayerCount: 2
Fore
SplineSet
321 469 m 1,0,-1
 209 469 l 1,1,-1
 209 294 l 2,2,3
 209 272 209 272 198 252 c 0,4,5
 191 240 191 240 168.5 219.5 c 128,-1,6
 146 199 146 199 146 194 c 256,7,8
 146 189 146 189 298 24 c 1,9,-1
 274 -6 l 1,10,11
 57 231 57 231 57 276 c 0,12,13
 57 309 57 309 82 309 c 0,14,15
 89 309 89 309 112 294.5 c 128,-1,16
 135 280 135 280 141 280 c 0,17,18
 155 280 155 280 155 407 c 0,19,20
 155 437 155 437 151 469 c 1,21,-1
 0 469 l 1,22,-1
 -27 515 l 1,23,-1
 294 515 l 1,24,-1
 321 469 l 1,0,-1
155 40 m 256,25,26
 155 21 155 21 142 6.5 c 128,-1,27
 129 -8 129 -8 110 -8 c 256,28,29
 91 -8 91 -8 78 6.5 c 128,-1,30
 65 21 65 21 65 40 c 256,31,32
 65 59 65 59 78 73.5 c 128,-1,33
 91 88 91 88 110 88 c 256,34,35
 129 88 129 88 142 73.5 c 128,-1,36
 155 59 155 59 155 40 c 256,25,26
EndSplineSet
Ligature2: "'nukt' Nukta Forms in Devanagari lookup 8 subtable" glyph154 glyph80
EndChar

StartChar: glyph155
Encoding: 2354 2354 146
Width: 532
GlyphClass: 2
Flags: W
AnchorPoint: "Anchor-9" 600 0 basechar 0
AnchorPoint: "Anchor-8" 540 0 basechar 0 {13-13 1} {}
AnchorPoint: "Anchor-5" 530 0 basechar 0
AnchorPoint: "Anchor-4" 530 0 basechar 0 {13-13 1} {}
LayerCount: 2
Fore
SplineSet
559 469 m 1,0,-1
 488 469 l 1,1,-1
 488 1 l 1,2,-1
 433 35 l 1,3,-1
 437 303 l 1,4,5
 414 321 414 321 393 321 c 0,6,7
 355 321 355 321 324 279 c 1,8,9
 307 258 307 258 281 204 c 1,10,-1
 238 237 l 1,11,12
 248 259 248 259 260 279 c 1,13,14
 233 333 233 333 193 333 c 0,15,16
 157 333 157 333 134 307 c 128,-1,17
 111 281 111 281 111 245 c 0,18,19
 111 172 111 172 165 112 c 0,20,21
 203 69 203 69 281 21 c 1,22,-1
 259 -7 l 1,23,24
 57 146 57 146 57 271 c 0,25,26
 57 315 57 315 90.5 350.5 c 128,-1,27
 124 386 124 386 167 386 c 0,28,29
 203 386 203 386 232 360 c 0,30,31
 249 344 249 344 275 302 c 1,32,33
 322 368 322 368 366 368 c 0,34,35
 399 368 399 368 435 335 c 1,36,-1
 435 469 l 1,37,-1
 1 469 l 1,38,-1
 -26 515 l 1,39,-1
 532 515 l 1,40,-1
 559 469 l 1,0,-1
EndSplineSet
EndChar

StartChar: glyph156
Encoding: 2355 2355 147
Width: 562
GlyphClass: 2
Flags: W
AnchorPoint: "Anchor-9" 580 0 basechar 0
AnchorPoint: "Anchor-8" 480 0 basechar 0
LayerCount: 2
Fore
SplineSet
593 469 m 1,0,-1
 486 469 l 1,1,-1
 486 337 l 1,2,3
 548 294 548 294 548 209 c 0,4,5
 548 156 548 156 509 110 c 128,-1,6
 470 64 470 64 417 64 c 0,7,8
 365 64 365 64 305 133 c 1,9,10
 257 60 257 60 188 60 c 0,11,12
 133 60 133 60 95 108 c 128,-1,13
 57 156 57 156 57 212 c 0,14,15
 57 269 57 269 93 311.5 c 128,-1,16
 129 354 129 354 185 354 c 0,17,18
 226 354 226 354 256 332 c 0,19,20
 275 317 275 317 305 275 c 1,21,22
 344 361 344 361 433 359 c 1,23,-1
 433 469 l 1,24,-1
 -1 469 l 1,25,-1
 -28 515 l 1,26,-1
 566 515 l 1,27,-1
 593 469 l 1,0,-1
508 246 m 0,28,29
 508 279 508 279 488.5 299.5 c 128,-1,30
 469 320 469 320 437 320 c 0,31,32
 371 320 371 320 316 158 c 1,33,34
 349 111 349 111 393 111 c 0,35,36
 439 111 439 111 475 156 c 1,37,38
 508 199 508 199 508 246 c 0,28,29
294 249 m 1,39,40
 266 307 266 307 207 307 c 0,41,42
 163 307 163 307 129.5 266.5 c 128,-1,43
 96 226 96 226 96 181 c 0,44,45
 96 101 96 101 167 101 c 0,46,47
 217 101 217 101 251 153 c 0,48,49
 268 179 268 179 294 249 c 1,39,40
EndSplineSet
EndChar

StartChar: glyph192
Encoding: 2356 2356 148
Width: 562
GlyphClass: 3
Flags: W
AnchorPoint: "Anchor-9" 1400 0 basechar 0
AnchorPoint: "Anchor-8" 1129 -180 basechar 0
AnchorPoint: "Anchor-1" 530 0 basechar 0
AnchorPoint: "Anchor-0" 530 0 basechar 0 {11-12 -1,-1} {}
LayerCount: 2
Fore
SplineSet
593 469 m 1,0,-1
 486 469 l 1,1,-1
 486 337 l 1,2,3
 548 294 548 294 548 209 c 0,4,5
 548 156 548 156 509 110 c 128,-1,6
 470 64 470 64 417 64 c 0,7,8
 365 64 365 64 305 133 c 1,9,10
 257 60 257 60 188 60 c 0,11,12
 133 60 133 60 95 108 c 128,-1,13
 57 156 57 156 57 212 c 0,14,15
 57 269 57 269 93 311.5 c 128,-1,16
 129 354 129 354 185 354 c 0,17,18
 226 354 226 354 256 332 c 0,19,20
 275 317 275 317 305 275 c 1,21,22
 344 361 344 361 433 359 c 1,23,-1
 433 469 l 1,24,-1
 -1 469 l 1,25,-1
 -28 515 l 1,26,-1
 566 515 l 1,27,-1
 593 469 l 1,0,-1
508 246 m 0,28,29
 508 279 508 279 488.5 299.5 c 128,-1,30
 469 320 469 320 437 320 c 0,31,32
 371 320 371 320 316 158 c 1,33,34
 349 111 349 111 393 111 c 0,35,36
 439 111 439 111 475 156 c 1,37,38
 508 199 508 199 508 246 c 0,28,29
294 249 m 1,39,40
 266 307 266 307 207 307 c 0,41,42
 163 307 163 307 129.5 266.5 c 128,-1,43
 96 226 96 226 96 181 c 0,44,45
 96 101 96 101 167 101 c 0,46,47
 217 101 217 101 251 153 c 0,48,49
 268 179 268 179 294 249 c 1,39,40
358 9 m 256,50,51
 358 -10 358 -10 345 -24.5 c 128,-1,52
 332 -39 332 -39 313 -39 c 256,53,54
 294 -39 294 -39 281 -24.5 c 128,-1,55
 268 -10 268 -10 268 9 c 256,56,57
 268 28 268 28 281 42.5 c 128,-1,58
 294 57 294 57 313 57 c 256,59,60
 332 57 332 57 345 42.5 c 128,-1,61
 358 28 358 28 358 9 c 256,50,51
EndSplineSet
Ligature2: "'nukt' Nukta Forms in Devanagari lookup 8 subtable" glyph156 glyph80
EndChar

StartChar: glyph157
Encoding: 2357 2357 149
Width: 440
GlyphClass: 2
Flags: W
AnchorPoint: "Anchor-9" 550 0 basechar 0
AnchorPoint: "Anchor-8" 445 0 basechar 0
AnchorPoint: "Anchor-5" 430 0 basechar 0
AnchorPoint: "Anchor-4" 430 0 basechar 0
LayerCount: 2
Fore
SplineSet
466 469 m 1,0,-1
 395 469 l 1,1,-1
 395 1 l 1,2,-1
 340 35 l 1,3,-1
 343 198 l 1,4,5
 272 131 272 131 202 131 c 0,6,7
 148 131 148 131 102.5 178.5 c 128,-1,8
 57 226 57 226 57 280 c 0,9,10
 57 336 57 336 96 366 c 0,11,12
 130 393 130 393 188 393 c 0,13,14
 263 393 263 393 344 300 c 1,15,16
 341 308 341 308 341 344 c 2,17,-1
 341 469 l 1,18,-1
 0 469 l 1,19,-1
 -27 515 l 1,20,-1
 439 515 l 1,21,-1
 466 469 l 1,0,-1
341 272 m 1,22,23
 285 340 285 340 207 340 c 0,24,25
 168 340 168 340 138 319 c 0,26,27
 105 296 105 296 105 258 c 0,28,29
 105 172 105 172 181 172 c 0,30,31
 218 172 218 172 269 207 c 0,32,33
 310 235 310 235 341 272 c 1,22,23
EndSplineSet
EndChar

StartChar: glyph158
Encoding: 2358 2358 150
Width: 489
GlyphClass: 2
Flags: W
AnchorPoint: "Anchor-9" 530 0 basechar 0
AnchorPoint: "Anchor-8" 495 0 basechar 0 {11-11 -1} {}
AnchorPoint: "Anchor-5" 470 0 basechar 0
AnchorPoint: "Anchor-4" 480 0 basechar 0 {11-12 -1,-1} {}
LayerCount: 2
Fore
SplineSet
518 469 m 1,0,-1
 446 469 l 1,1,-1
 446 1 l 1,2,-1
 391 35 l 1,3,-1
 393 469 l 1,4,-1
 267 469 l 1,5,6
 287 451 287 451 302 417 c 128,-1,7
 317 383 317 383 317 356 c 0,8,9
 317 227 317 227 179 154 c 1,10,-1
 288 9 l 1,11,-1
 253 -20 l 1,12,-1
 165 121 l 2,13,14
 151 143 151 143 116 148 c 128,-1,15
 81 153 81 153 66 182 c 0,16,17
 57 200 57 200 57 221 c 0,18,19
 57 256 57 256 90 256 c 0,20,21
 106 256 106 256 146 200 c 1,22,23
 209 219 209 219 246 284 c 1,24,25
 83 331 83 331 83 419 c 0,26,27
 83 439 83 439 101 469 c 1,28,-1
 -1 469 l 1,29,-1
 -28 515 l 1,30,-1
 491 515 l 1,31,-1
 518 469 l 1,0,-1
263 367 m 0,32,33
 263 474 263 474 196 474 c 0,34,35
 143 474 143 474 143 409 c 0,36,37
 143 340 143 340 254 311 c 1,38,39
 263 336 263 336 263 367 c 0,32,33
EndSplineSet
EndChar

StartChar: glyph159
Encoding: 2359 2359 151
Width: 388
GlyphClass: 2
Flags: W
AnchorPoint: "Anchor-9" 460 0 basechar 0
AnchorPoint: "Anchor-8" 400 0 basechar 0
AnchorPoint: "Anchor-5" 400 0 basechar 0
AnchorPoint: "Anchor-4" 380 0 basechar 0
LayerCount: 2
Fore
SplineSet
415 469 m 1,0,-1
 344 469 l 1,1,-1
 344 1 l 1,2,-1
 289 35 l 1,3,-1
 292 200 l 1,4,5
 236 154 236 154 189 154 c 0,6,7
 156 154 156 154 115 190 c 1,8,9
 67 230 67 230 67 279 c 2,10,-1
 67 469 l 1,11,-1
 1 469 l 1,12,-1
 -26 515 l 1,13,-1
 388 515 l 1,14,-1
 415 469 l 1,0,-1
290 282 m 1,15,-1
 290 469 l 1,16,-1
 113 469 l 1,17,-1
 290 282 l 1,15,-1
278 258 m 1,18,-1
 121 424 l 1,19,-1
 121 260 l 2,20,21
 121 195 121 195 163 195 c 0,22,23
 228 195 228 195 278 258 c 1,18,-1
EndSplineSet
EndChar

StartChar: glyph160
Encoding: 2360 2360 152
Width: 491
GlyphClass: 2
Flags: W
AnchorPoint: "Anchor-9" 500 0 basechar 0
AnchorPoint: "Anchor-8" 500 0 basechar 0 {13-13 1} {}
AnchorPoint: "Anchor-5" 480 0 basechar 0
AnchorPoint: "Anchor-4" 480 0 basechar 0 {13-13 1} {}
LayerCount: 2
Fore
SplineSet
518 469 m 1,0,-1
 447 469 l 1,1,-1
 447 1 l 1,2,-1
 391 35 l 1,3,-1
 395 225 l 1,4,5
 347 206 347 206 319 206 c 256,6,7
 291 206 291 206 256 225 c 0,8,9
 225 242 225 242 204 266 c 1,10,11
 197 239 197 239 166.5 218 c 128,-1,12
 136 197 136 197 135 194 c 1,13,14
 152 168 152 168 207 108 c 1,15,16
 246 68 246 68 284 27 c 1,17,-1
 260 1 l 1,18,19
 158 120 158 120 146 135 c 0,20,21
 57 246 57 246 57 276 c 0,22,23
 57 286 57 286 64.5 297.5 c 128,-1,24
 72 309 72 309 82 309 c 0,25,26
 85 309 85 309 109.5 294.5 c 128,-1,27
 134 280 134 280 140 280 c 0,28,29
 154 280 154 280 154 407 c 0,30,31
 154 437 154 437 150 469 c 1,32,-1
 0 469 l 1,33,-1
 -27 515 l 1,34,-1
 491 515 l 1,35,-1
 518 469 l 1,0,-1
393 297 m 1,36,-1
 393 469 l 1,37,-1
 208 469 l 1,38,-1
 208 293 l 1,39,40
 262 259 262 259 301 259 c 0,41,42
 345 259 345 259 393 297 c 1,36,-1
EndSplineSet
EndChar

StartChar: glyph161
Encoding: 2361 2361 153
Width: 374
GlyphClass: 2
Flags: W
AnchorPoint: "Anchor-9" 450 -42 basechar 0
AnchorPoint: "Anchor-8" 350 0 basechar 0 {17-17 -1} {11-13 1,1,1}
AnchorPoint: "Anchor-1" 350 0 basechar 0
AnchorPoint: "Anchor-0" 330 0 basechar 0 {11-11 -1} {}
LayerCount: 2
Fore
SplineSet
413 469 m 1,0,-1
 299 469 l 1,1,-1
 300 348 l 2,2,3
 300 344 300 344 292 344 c 2,4,-1
 127 344 l 2,5,6
 85 344 85 344 85 302 c 0,7,8
 85 261 85 261 125 261 c 1,9,10
 164 280 164 280 215 280 c 0,11,12
 257 280 257 280 301 241.5 c 128,-1,13
 345 203 345 203 345 162 c 0,14,15
 345 96 345 96 268 72 c 1,16,-1
 239 120 l 1,17,18
 306 136 306 136 306 189 c 0,19,20
 306 215 306 215 280 228 c 0,21,22
 259 239 259 239 230 239 c 0,23,24
 179 239 179 239 143 214 c 0,25,26
 102 186 102 186 102 137 c 0,27,28
 102 31 102 31 271 -3 c 1,29,-1
 265 -26 l 1,30,31
 184 -9 184 -9 125 28 c 0,32,33
 46 77 46 77 46 144 c 0,34,35
 46 201 46 201 89 238 c 1,36,37
 45 289 45 289 45 325 c 0,38,39
 45 397 45 397 115 397 c 2,40,-1
 245 397 l 1,41,-1
 245 469 l 1,42,-1
 -1 469 l 1,43,-1
 -28 515 l 1,44,-1
 386 515 l 1,45,-1
 413 469 l 1,0,-1
EndSplineSet
EndChar

StartChar: glyph80
Encoding: 2364 2364 154
Width: 0
GlyphClass: 4
Flags: W
LayerCount: 2
Fore
SplineSet
-73 18 m 256,0,1
 -73 -1 -73 -1 -86 -15.5 c 128,-1,2
 -99 -30 -99 -30 -118 -30 c 256,3,4
 -137 -30 -137 -30 -150 -15.5 c 128,-1,5
 -163 -1 -163 -1 -163 18 c 256,6,7
 -163 37 -163 37 -150 51.5 c 128,-1,8
 -137 66 -137 66 -118 66 c 256,9,10
 -99 66 -99 66 -86 51.5 c 128,-1,11
 -73 37 -73 37 -73 18 c 256,0,1
EndSplineSet
EndChar

StartChar: glyph77
Encoding: 2365 2365 155
Width: 399
GlyphClass: 2
Flags: W
LayerCount: 2
Fore
SplineSet
346 469 m 1,0,-1
 194 469 l 2,1,2
 166 469 166 469 166 436 c 0,3,4
 166 418 166 418 210 374 c 0,5,6
 275 310 275 310 293 288 c 0,7,8
 337 231 337 231 337 183 c 0,9,10
 337 134 337 134 299.5 94.5 c 128,-1,11
 262 55 262 55 213 55 c 0,12,13
 170 55 170 55 122 96 c 0,14,15
 80 133 80 133 58 177 c 1,16,-1
 80 194 l 1,17,18
 111 150 111 150 127 135 c 0,19,20
 157 108 157 108 195 108 c 0,21,22
 231 108 231 108 257 138.5 c 128,-1,23
 283 169 283 169 283 205 c 0,24,25
 283 247 283 247 237 302 c 1,26,27
 195 346 195 346 152 390 c 0,28,29
 106 438 106 438 106 463 c 0,30,31
 106 486 106 486 127 500.5 c 128,-1,32
 148 515 148 515 172 515 c 2,33,-1
 319 515 l 1,34,-1
 346 469 l 1,0,-1
EndSplineSet
EndChar

StartChar: glyph545
Encoding: 2366 2366 156
Width: 166
GlyphClass: 2
Flags: W
LayerCount: 2
Fore
SplineSet
195 469 m 1,0,-1
 123 469 l 1,1,-1
 123 1 l 1,2,-1
 68 35 l 1,3,-1
 70 469 l 1,4,-1
 0 469 l 1,5,-1
 -27 515 l 1,6,-1
 168 515 l 1,7,-1
 195 469 l 1,0,-1
EndSplineSet
PairPos2: "'abvm' Above Base Mark in Devanagari lookup 1 subtable" glyph562 dx=0 dy=0 dh=0 dv=0 dx=-80 dy=0 dh=0 dv=0
PairPos2: "'abvm' Above Base Mark in Devanagari lookup 1 subtable" glyph85 dx=0 dy=0 dh=0 dv=0 dx=-80 dy=0 dh=0 dv=0
PairPos2: "'abvm' Above Base Mark in Devanagari lookup 1 subtable" glyph561 dx=0 dy=0 dh=0 dv=0 dx=-80 dy=0 dh=0 dv=0
PairPos2: "'abvm' Above Base Mark in Devanagari lookup 1 subtable" glyph557 dx=0 dy=0 dh=0 dv=0 dx=-80 dy=0 dh=0 dv=0
EndChar

StartChar: glyph468
Encoding: 2367 2367 157
Width: 171
GlyphClass: 2
Flags: W
LayerCount: 2
Fore
SplineSet
628 583 m 1,0,-1
 612 564 l 1,1,2
 378 673 378 673 222 673 c 0,3,4
 169 673 169 673 133 649 c 1,5,6
 90 622 90 622 90 571 c 0,7,8
 90 536 90 536 100 515 c 1,9,-1
 171 515 l 1,10,-1
 198 469 l 1,11,-1
 122 469 l 1,12,-1
 122 1 l 1,13,-1
 67 35 l 1,14,-1
 69 469 l 1,15,-1
 0 469 l 1,16,-1
 -27 515 l 1,17,-1
 74 515 l 1,18,19
 43 560 43 560 43 604 c 0,20,21
 43 658 43 658 94 691 c 0,22,23
 139 720 139 720 196 720 c 0,24,25
 358 720 358 720 628 583 c 1,0,-1
EndSplineSet
Substitution2: "Single Substitution lookup 7 subtable" glyph464
Substitution2: "Single Substitution lookup 6 subtable" glyph465
Substitution2: "Single Substitution lookup 5 subtable" glyph466
Substitution2: "Single Substitution lookup 4 subtable" glyph467
EndChar

StartChar: glyph546
Encoding: 2368 2368 158
Width: 171
GlyphClass: 2
Flags: W
LayerCount: 2
Fore
SplineSet
198 469 m 1,0,-1
 123 469 l 1,1,-1
 123 1 l 1,2,-1
 68 35 l 1,3,-1
 70 469 l 1,4,-1
 0 469 l 1,5,-1
 -27 515 l 1,6,-1
 82 515 l 1,7,8
 74 578 74 578 49 621 c 0,9,10
 16 679 16 679 -38 679 c 0,11,12
 -65 679 -65 679 -79.5 658 c 128,-1,13
 -94 637 -94 637 -94 609 c 0,14,15
 -94 585 -94 585 -80 555 c 1,16,-1
 -99 548 l 1,17,18
 -137 596 -137 596 -137 637 c 0,19,20
 -137 681 -137 681 -111 708.5 c 128,-1,21
 -85 736 -85 736 -41 736 c 0,22,23
 27 736 27 736 68 656 c 0,24,25
 96 600 96 600 108 515 c 1,26,-1
 171 515 l 1,27,-1
 198 469 l 1,0,-1
EndSplineSet
Substitution2: "Single Substitution lookup 2 subtable" glyph547
Substitution2: "Single Substitution lookup 1 subtable" glyph548
Substitution2: "Single Substitution lookup 0 subtable" glyph551
PairPos2: "'abvm' Above Base Mark in Devanagari lookup 1 subtable" glyph562 dx=0 dy=0 dh=0 dv=0 [ddx={} ddy={} ddh={} ddv={}] dx=70 dy=0 dh=0 dv=0
PairPos2: "'abvm' Above Base Mark in Devanagari lookup 1 subtable" glyph85 dx=0 dy=0 dh=0 dv=0 dx=20 dy=0 dh=0 dv=0
PairPos2: "'abvm' Above Base Mark in Devanagari lookup 1 subtable" glyph561 dx=0 dy=0 dh=0 dv=0 dx=85 dy=-15 dh=0 dv=0
PairPos2: "'abvm' Above Base Mark in Devanagari lookup 1 subtable" glyph564 dx=0 dy=0 dh=0 dv=0 dx=0 dy=475 dh=0 dv=0
PairPos2: "'abvm' Above Base Mark in Devanagari lookup 1 subtable" glyph565 dx=0 dy=0 dh=0 dv=0 dx=0 dy=475 dh=0 dv=0
PairPos2: "'abvm' Above Base Mark in Devanagari lookup 1 subtable" glyph563 dx=0 dy=0 dh=0 dv=0 dx=0 dy=475 dh=0 dv=0
EndChar

StartChar: glyph469
Encoding: 2369 2369 159
Width: 0
GlyphClass: 4
Flags: W
AnchorPoint: "Anchor-8" 0 0 mark 0
AnchorPoint: "Anchor-6" 0 0 mark 0
LayerCount: 2
Fore
SplineSet
39 -100 m 0,0,1
 39 -142 39 -142 7.5 -166 c 128,-1,2
 -24 -190 -24 -190 -67 -190 c 0,3,4
 -185 -190 -185 -190 -325 -58 c 1,5,-1
 -308 -35 l 1,6,7
 -247 -92 -247 -92 -210 -113 c 0,8,9
 -157 -142 -157 -142 -89 -142 c 0,10,11
 -58 -142 -58 -142 -29.5 -123.5 c 128,-1,12
 -1 -105 -1 -105 -1 -76 c 0,13,14
 -1 -40 -1 -40 -47 -30 c 1,15,16
 -82 -73 -82 -73 -97 -73 c 0,17,18
 -105 -73 -105 -73 -122.5 -50.5 c 128,-1,19
 -140 -28 -140 -28 -140 -19 c 0,20,21
 -140 -8 -140 -8 -114 0 c 0,22,23
 -92 7 -92 7 -78 7 c 0,24,25
 -32 7 -32 7 3.5 -24 c 128,-1,26
 39 -55 39 -55 39 -100 c 0,0,1
EndSplineSet
PairPos2: "'blwm' Below Base Mark in Devanagari lookup 3 subtable" glyph479 dx=0 dy=0 dh=0 dv=0 dx=160 dy=-5 dh=0 dv=0
EndChar

StartChar: glyph471
Encoding: 2370 2370 160
Width: 0
GlyphClass: 4
Flags: W
AnchorPoint: "Anchor-8" 0 0 mark 0 {12-14 1,0,-1} {}
AnchorPoint: "Anchor-6" 0 0 mark 0 {12-14 1,0,-1} {}
LayerCount: 2
Fore
SplineSet
159 -184 m 1,0,-1
 139 -207 l 1,1,2
 57 -117 57 -117 40 -101 c 0,3,4
 -30 -37 -30 -37 -82 -37 c 0,5,6
 -138 -37 -138 -37 -138 -98 c 0,7,8
 -138 -140 -138 -140 -100 -140 c 0,9,10
 -84 -140 -84 -140 -59.5 -129 c 128,-1,11
 -35 -118 -35 -118 -23 -106 c 1,12,-1
 5 -153 l 1,13,14
 -34 -178 -34 -178 -68 -178 c 0,15,16
 -107 -178 -107 -178 -142.5 -146 c 128,-1,17
 -178 -114 -178 -114 -178 -75 c 0,18,19
 -178 -35 -178 -35 -154 -12 c 128,-1,20
 -130 11 -130 11 -89 11 c 0,21,22
 -74 11 -74 11 -59 7 c 0,23,24
 -13 -7 -13 -7 159 -184 c 1,0,-1
EndSplineSet
PairPos2: "'blwm' Below Base Mark in Devanagari lookup 3 subtable" glyph479 dx=0 dy=0 dh=0 dv=0 dx=160 dy=-5 dh=0 dv=0
EndChar

StartChar: glyph473
Encoding: 2371 2371 161
Width: 0
GlyphClass: 4
Flags: W
AnchorPoint: "Anchor-8" 0 5 mark 0 {11-16 -1,0,1,0,0,2} {13-13 1}
AnchorPoint: "Anchor-6" 0 5 mark 0 {11-16 -1,0,1,0,0,2} {13-13 1}
LayerCount: 2
Fore
SplineSet
2 -171 m 1,0,1
 -26 -182 -26 -182 -76 -182 c 0,2,3
 -122 -182 -122 -182 -164 -152 c 0,4,5
 -210 -118 -210 -118 -210 -74 c 0,6,7
 -210 -23 -210 -23 -169 -6 c 1,8,9
 -128 5 -128 5 -87 15 c 1,10,-1
 -36 -30 l 1,11,12
 -170 -45 -170 -45 -170 -97 c 0,13,14
 -170 -134 -170 -134 -117 -134 c 0,15,16
 -74 -134 -74 -134 -31 -116 c 1,17,-1
 2 -171 l 1,0,1
EndSplineSet
PairPos2: "'blwm' Below Base Mark in Devanagari lookup 3 subtable" glyph479 dx=0 dy=0 dh=0 dv=0 dx=160 dy=-5 dh=0 dv=0
EndChar

StartChar: glyph475
Encoding: 2372 2372 162
Width: 0
GlyphClass: 4
Flags: W
AnchorPoint: "Anchor-8" 0 5 mark 0 {12-13 1,1} {11-11 1}
AnchorPoint: "Anchor-6" 0 5 mark 0 {12-13 1,1} {11-11 1}
LayerCount: 2
Fore
SplineSet
17 -278 m 1,0,1
 -11 -289 -11 -289 -61 -289 c 0,2,3
 -106 -289 -106 -289 -148 -263 c 0,4,5
 -195 -234 -195 -234 -195 -191 c 0,6,7
 -195 -159 -195 -159 -175 -137 c 1,8,9
 -210 -106 -210 -106 -210 -74 c 0,10,11
 -210 -24 -210 -24 -169 -6 c 0,12,13
 -169 -5 -169 -5 -87 15 c 1,14,-1
 -36 -30 l 1,15,16
 -170 -45 -170 -45 -170 -97 c 0,17,18
 -170 -124 -170 -124 -117 -124 c 0,19,20
 -74 -124 -74 -124 -31 -106 c 1,21,-1
 2 -161 l 1,22,23
 -26 -172 -26 -172 -76 -172 c 0,24,25
 -100 -172 -100 -172 -116 -168 c 1,26,27
 -155 -183 -155 -183 -155 -214 c 0,28,29
 -155 -241 -155 -241 -102 -241 c 0,30,31
 -59 -241 -59 -241 -16 -223 c 1,32,-1
 17 -278 l 1,0,1
EndSplineSet
PairPos2: "'blwm' Below Base Mark in Devanagari lookup 3 subtable" glyph479 dx=0 dy=0 dh=0 dv=0 dx=160 dy=-5 dh=0 dv=0
EndChar

StartChar: glyph557
Encoding: 2373 2373 163
Width: 0
GlyphClass: 4
Flags: W
AnchorPoint: "Anchor-4" 80 0 mark 0 {14-14 -2} {11-17 -2,-1,-1,-1,-1,-1,-1}
AnchorPoint: "Anchor-2" 0 0 mark 0
AnchorPoint: "Anchor-1" 0 0 mark 0
LayerCount: 2
Fore
SplineSet
48 671 m 1,0,1
 33 632 33 632 -2 604 c 0,2,3
 -40 574 -40 574 -79 574 c 0,4,5
 -127 574 -127 574 -169 612 c 1,6,7
 -205 643 -205 643 -228 692 c 1,8,-1
 -208 703 l 1,9,10
 -155 622 -155 622 -100 622 c 0,11,12
 -67 622 -67 622 -37 652 c 0,13,14
 -13 676 -13 676 1 712 c 1,15,-1
 48 671 l 1,0,1
EndSplineSet
PairPos2: "'abvm' Above Base Mark in Devanagari lookup 1 subtable" glyph562 dx=5 dy=0 dh=0 dv=0 [ddx={} ddy={} ddh={} ddv={}] dx=-90 dy=103 dh=0 dv=0
PairPos2: "'abvm' Above Base Mark in Devanagari lookup 1 subtable" glyph85 dx=0 dy=0 dh=0 dv=0 dx=-105 dy=98 dh=0 dv=0
PairPos2: "'abvm' Above Base Mark in Devanagari lookup 1 subtable" glyph561 dx=0 dy=0 dh=0 dv=0 dx=-40 dy=-5 dh=0 dv=0
PairPos2: "'abvm' Above Base Mark in Devanagari lookup 1 subtable" glyph564 dx=0 dy=0 dh=0 dv=0 dx=0 dy=475 dh=0 dv=0
PairPos2: "'abvm' Above Base Mark in Devanagari lookup 1 subtable" glyph565 dx=0 dy=0 dh=0 dv=0 dx=0 dy=475 dh=0 dv=0
PairPos2: "'abvm' Above Base Mark in Devanagari lookup 1 subtable" glyph563 dx=0 dy=0 dh=0 dv=0 dx=0 dy=475 dh=0 dv=0
EndChar

StartChar: glyph558
Encoding: 2374 2374 164
Width: 0
GlyphClass: 4
Flags: W
AnchorPoint: "Anchor-4" 0 0 mark 0 {12-17 1,0,0,0,1,1} {}
AnchorPoint: "Anchor-0" 0 0 mark 0 {12-17 1,0,0,0,1,1} {}
LayerCount: 2
Fore
SplineSet
-50 572 m 0,0,1
 -50 537 -50 537 -76 511 c 1,2,-1
 -99 511 l 1,3,4
 -88 531 -88 531 -88 551 c 0,5,6
 -88 602 -88 602 -157 602 c 2,7,-1
 -310 602 l 2,8,9
 -395 602 -395 602 -395 683 c 0,10,11
 -395 711 -395 711 -374.5 730 c 128,-1,12
 -354 749 -354 749 -326 749 c 1,13,-1
 -316 731 l 1,14,15
 -335 731 -335 731 -348.5 719 c 128,-1,16
 -362 707 -362 707 -362 688 c 0,17,18
 -362 647 -362 647 -323 647 c 2,19,-1
 -144 647 l 2,20,21
 -108 647 -108 647 -81 628 c 0,22,23
 -50 606 -50 606 -50 572 c 0,0,1
EndSplineSet
PairPos2: "'abvm' Above Base Mark in Devanagari lookup 1 subtable" glyph562 dx=0 dy=0 dh=0 dv=0 [ddx={} ddy={} ddh={} ddv={}] dx=-15 dy=85 dh=0 dv=0
PairPos2: "'abvm' Above Base Mark in Devanagari lookup 1 subtable" glyph85 dx=0 dy=0 dh=0 dv=0 dx=-11 dy=70 dh=0 dv=0
PairPos2: "'abvm' Above Base Mark in Devanagari lookup 1 subtable" glyph561 dx=0 dy=0 dh=0 dv=0 dx=-20 dy=75 dh=0 dv=0
PairPos2: "'abvm' Above Base Mark in Devanagari lookup 1 subtable" glyph557 dx=0 dy=0 dh=0 dv=0 dx=-5 dy=75 dh=0 dv=0
PairPos2: "'abvm' Above Base Mark in Devanagari lookup 1 subtable" glyph564 dx=0 dy=0 dh=0 dv=0 dx=0 dy=475 dh=0 dv=0
PairPos2: "'abvm' Above Base Mark in Devanagari lookup 1 subtable" glyph565 dx=0 dy=0 dh=0 dv=0 dx=0 dy=475 dh=0 dv=0
PairPos2: "'abvm' Above Base Mark in Devanagari lookup 1 subtable" glyph563 dx=0 dy=0 dh=0 dv=0 dx=0 dy=475 dh=0 dv=0
EndChar

StartChar: glyph559
Encoding: 2375 2375 165
Width: 0
GlyphClass: 4
Flags: W
AnchorPoint: "Anchor-4" 0 0 mark 0 {11-17 -1,0,1,0,1,0,1} {15-15 -2}
AnchorPoint: "Anchor-0" 0 0 mark 0 {11-17 -1,0,1,0,1,0,1} {15-15 -2}
LayerCount: 2
Fore
SplineSet
-55 513 m 1,0,-1
 -74 506 l 1,1,2
 -117 580 -117 580 -134 603 c 0,3,4
 -182 669 -182 669 -215 669 c 0,5,6
 -220 669 -220 669 -262 655 c 1,7,8
 -268 663 -268 663 -285 696.5 c 128,-1,9
 -302 730 -302 730 -302 736 c 0,10,11
 -302 749 -302 749 -257 749 c 0,12,13
 -239 749 -239 749 -213 736 c 128,-1,14
 -187 723 -187 723 -164 691 c 0,15,16
 -98 600 -98 600 -55 513 c 1,0,-1
EndSplineSet
PairPos2: "'abvm' Above Base Mark in Devanagari lookup 1 subtable" glyph564 dx=0 dy=0 dh=0 dv=0 dx=0 dy=475 dh=0 dv=0
PairPos2: "'abvm' Above Base Mark in Devanagari lookup 1 subtable" glyph565 dx=0 dy=0 dh=0 dv=0 dx=0 dy=475 dh=0 dv=0
PairPos2: "'abvm' Above Base Mark in Devanagari lookup 1 subtable" glyph563 dx=0 dy=0 dh=0 dv=0 dx=0 dy=475 dh=0 dv=0
EndChar

StartChar: glyph560
Encoding: 2376 2376 166
Width: 0
GlyphClass: 4
Flags: W
AnchorPoint: "Anchor-4" 0 0 mark 0 {11-15 -1,1,0,-1,-1} {11-13 -1,-1,-1}
AnchorPoint: "Anchor-0" 0 0 mark 0 {11-15 -1,1,0,-1,-1} {11-13 -1,-1,-1}
LayerCount: 2
Fore
SplineSet
-48 487 m 1,0,-1
 -82 483 l 1,1,2
 -141 544 -141 544 -158 559 c 0,3,4
 -213 606 -213 606 -249 606 c 0,5,6
 -265 606 -265 606 -290 592 c 1,7,8
 -296 603 -296 603 -311 639 c 128,-1,9
 -326 675 -326 675 -326 683 c 0,10,11
 -326 692 -326 692 -304 692 c 0,12,13
 -262 692 -262 692 -179 612 c 0,14,15
 -116 551 -116 551 -74 494 c 1,16,-1
 -68 494 l 1,17,18
 -81 535 -81 535 -94 577 c 1,19,20
 -111 627 -111 627 -132 651 c 0,21,22
 -161 683 -161 683 -208 683 c 1,23,24
 -218 732 -218 732 -218 765 c 0,25,26
 -218 775 -218 775 -208 775 c 0,27,28
 -199 775 -199 775 -176 764 c 0,29,30
 -118 735 -118 735 -72 569 c 1,31,-1
 -67 550 l 2,32,33
 -62 528 -62 528 -48 487 c 1,0,-1
EndSplineSet
PairPos2: "'abvm' Above Base Mark in Devanagari lookup 1 subtable" glyph564 dx=0 dy=0 dh=0 dv=0 dx=0 dy=475 dh=0 dv=0
PairPos2: "'abvm' Above Base Mark in Devanagari lookup 1 subtable" glyph565 dx=0 dy=0 dh=0 dv=0 dx=0 dy=475 dh=0 dv=0
PairPos2: "'abvm' Above Base Mark in Devanagari lookup 1 subtable" glyph563 dx=0 dy=0 dh=0 dv=0 dx=0 dy=475 dh=0 dv=0
EndChar

StartChar: glyph552
Encoding: 2377 2377 167
Width: 166
GlyphClass: 2
Flags: W
LayerCount: 2
Fore
SplineSet
195 469 m 1,0,-1
 123 469 l 1,1,-1
 123 1 l 1,2,-1
 68 35 l 1,3,-1
 70 469 l 1,4,-1
 0 469 l 1,5,-1
 -27 515 l 1,6,-1
 168 515 l 1,7,-1
 195 469 l 1,0,-1
150 671 m 1,8,9
 135 632 135 632 99 603 c 128,-1,10
 63 574 63 574 23 574 c 0,11,12
 -24 574 -24 574 -67 611 c 1,13,14
 -102 643 -102 643 -126 692 c 1,15,-1
 -106 703 l 1,16,17
 -53 622 -53 622 2 622 c 0,18,19
 36 622 36 622 65 652 c 1,20,21
 90 676 90 676 103 712 c 1,22,-1
 150 671 l 1,8,9
EndSplineSet
PairPos2: "'abvm' Above Base Mark in Devanagari lookup 1 subtable" glyph562 dx=5 dy=0 dh=0 dv=0 [ddx={} ddy={} ddh={} ddv={}] dx=-90 dy=103 dh=0 dv=0
PairPos2: "'abvm' Above Base Mark in Devanagari lookup 1 subtable" glyph85 dx=0 dy=0 dh=0 dv=0 dx=-105 dy=98 dh=0 dv=0
PairPos2: "'abvm' Above Base Mark in Devanagari lookup 1 subtable" glyph561 dx=0 dy=0 dh=0 dv=0 dx=-40 dy=-5 dh=0 dv=0
PairPos2: "'abvm' Above Base Mark in Devanagari lookup 1 subtable" glyph564 dx=0 dy=0 dh=0 dv=0 dx=0 dy=475 dh=0 dv=0
PairPos2: "'abvm' Above Base Mark in Devanagari lookup 1 subtable" glyph565 dx=0 dy=0 dh=0 dv=0 dx=0 dy=475 dh=0 dv=0
PairPos2: "'abvm' Above Base Mark in Devanagari lookup 1 subtable" glyph563 dx=0 dy=0 dh=0 dv=0 dx=0 dy=475 dh=0 dv=0
EndChar

StartChar: glyph553
Encoding: 2378 2378 168
Width: 166
GlyphClass: 2
Flags: W
LayerCount: 2
Fore
SplineSet
195 469 m 1,0,-1
 123 469 l 1,1,-1
 123 1 l 1,2,-1
 68 35 l 1,3,-1
 70 469 l 1,4,-1
 0 469 l 1,5,-1
 -27 515 l 1,6,-1
 83 515 l 1,7,8
 92 531 92 531 92 551 c 0,9,10
 92 602 92 602 23 602 c 2,11,-1
 -130 602 l 2,12,13
 -215 602 -215 602 -215 683 c 0,14,15
 -215 711 -215 711 -194.5 730 c 128,-1,16
 -174 749 -174 749 -146 749 c 1,17,-1
 -136 731 l 1,18,19
 -155 731 -155 731 -168.5 719 c 128,-1,20
 -182 707 -182 707 -182 688 c 0,21,22
 -182 647 -182 647 -143 647 c 2,23,-1
 36 647 l 2,24,25
 72 647 72 647 99 628 c 0,26,27
 130 606 130 606 130 572 c 0,28,29
 130 545 130 545 108 515 c 1,30,-1
 168 515 l 1,31,-1
 195 469 l 1,0,-1
EndSplineSet
PairPos2: "'abvm' Above Base Mark in Devanagari lookup 1 subtable" glyph562 dx=0 dy=0 dh=0 dv=0 [ddx={} ddy={} ddh={} ddv={}] dx=-15 dy=85 dh=0 dv=0
PairPos2: "'abvm' Above Base Mark in Devanagari lookup 1 subtable" glyph85 dx=0 dy=0 dh=0 dv=0 dx=-11 dy=70 dh=0 dv=0
PairPos2: "'abvm' Above Base Mark in Devanagari lookup 1 subtable" glyph561 dx=0 dy=0 dh=0 dv=0 dx=-20 dy=75 dh=0 dv=0
PairPos2: "'abvm' Above Base Mark in Devanagari lookup 1 subtable" glyph557 dx=0 dy=0 dh=0 dv=0 dx=-5 dy=75 dh=0 dv=0
PairPos2: "'abvm' Above Base Mark in Devanagari lookup 1 subtable" glyph564 dx=0 dy=0 dh=0 dv=0 dx=0 dy=475 dh=0 dv=0
PairPos2: "'abvm' Above Base Mark in Devanagari lookup 1 subtable" glyph565 dx=0 dy=0 dh=0 dv=0 dx=0 dy=475 dh=0 dv=0
PairPos2: "'abvm' Above Base Mark in Devanagari lookup 1 subtable" glyph563 dx=0 dy=0 dh=0 dv=0 dx=0 dy=475 dh=0 dv=0
EndChar

StartChar: glyph554
Encoding: 2379 2379 169
Width: 166
GlyphClass: 2
Flags: W
LayerCount: 2
Fore
SplineSet
195 469 m 1,0,-1
 123 469 l 1,1,-1
 123 1 l 1,2,-1
 68 35 l 1,3,-1
 70 469 l 1,4,-1
 0 469 l 1,5,-1
 -27 515 l 1,6,-1
 71 515 l 1,7,8
 -18 669 -18 669 -65 669 c 0,9,10
 -71 669 -71 669 -112 655 c 1,11,12
 -119 665 -119 665 -135.5 697 c 128,-1,13
 -152 729 -152 729 -152 736 c 0,14,15
 -152 749 -152 749 -107 749 c 0,16,17
 -88 749 -88 749 -63 736 c 0,18,19
 -2 705 -2 705 94 515 c 1,20,-1
 168 515 l 1,21,-1
 195 469 l 1,0,-1
EndSplineSet
EndChar

StartChar: glyph555
Encoding: 2380 2380 170
Width: 166
GlyphClass: 2
Flags: W
LayerCount: 2
Fore
SplineSet
195 469 m 1,0,-1
 123 469 l 1,1,-1
 123 1 l 1,2,-1
 68 35 l 1,3,-1
 70 469 l 1,4,-1
 0 469 l 1,5,-1
 -27 515 l 1,6,-1
 38 515 l 1,7,8
 -50 606 -50 606 -99 606 c 0,9,10
 -115 606 -115 606 -140 592 c 1,11,12
 -147 604 -147 604 -161.5 639.5 c 128,-1,13
 -176 675 -176 675 -176 683 c 0,14,15
 -176 692 -176 692 -154 692 c 0,16,17
 -117 692 -117 692 -45 627 c 0,18,19
 9 578 9 578 60 515 c 1,20,-1
 75 515 l 1,21,22
 46 607 46 607 35 626 c 0,23,24
 3 683 3 683 -58 683 c 1,25,26
 -68 732 -68 732 -68 765 c 0,27,28
 -68 775 -68 775 -58 775 c 256,29,30
 -48 775 -48 775 -26 764 c 0,31,32
 36 732 36 732 84 550 c 1,33,34
 86 538 86 538 92 515 c 1,35,-1
 168 515 l 1,36,-1
 195 469 l 1,0,-1
EndSplineSet
EndChar

StartChar: glyph81
Encoding: 2381 2381 171
Width: 0
GlyphClass: 4
Flags: W
AnchorPoint: "Anchor-8" -50 -5 mark 0
AnchorPoint: "Anchor-6" -50 -5 mark 0
LayerCount: 2
Fore
SplineSet
136 -212 m 1,0,-1
 122 -229 l 1,1,2
 -10 -84 -10 -84 -55 -84 c 0,3,4
 -88 -84 -88 -84 -103 -88 c 1,5,6
 -140 -41 -140 -41 -140 -27 c 0,7,8
 -140 -20 -140 -20 -113 -20 c 0,9,10
 -73 -20 -73 -20 -51 -30 c 0,11,12
 -13 -46 -13 -46 48 -111 c 1,13,14
 92 -162 92 -162 136 -212 c 1,0,-1
EndSplineSet
EndChar

StartChar: glyph78
Encoding: 2384 2384 172
Width: 846
GlyphClass: 2
Flags: W
LayerCount: 2
Fore
SplineSet
554 642 m 1,0,-1
 509 595 l 1,1,-1
 464 642 l 1,2,-1
 509 689 l 1,3,-1
 554 642 l 1,0,-1
677 596 m 1,4,5
 663 549 663 549 624 512 c 0,6,7
 581 472 581 472 535 472 c 0,8,9
 450 472 450 472 361 620 c 1,10,-1
 383 635 l 1,11,12
 449 525 449 525 519 525 c 0,13,14
 593 525 593 525 635 625 c 1,15,-1
 677 596 l 1,4,5
807 276 m 0,16,17
 807 226 807 226 783 192 c 0,18,19
 755 153 755 153 707 153 c 0,20,21
 655 153 655 153 600 233 c 1,22,23
 542 123 542 123 486 123 c 0,24,25
 441 123 441 123 382 206 c 1,26,-1
 376 206 l 1,27,-1
 376 195 l 1,28,29
 379 141 379 141 342 108.5 c 128,-1,30
 305 76 305 76 250 76 c 0,31,32
 140 76 140 76 56 267 c 1,33,-1
 79 281 l 1,34,35
 143 129 143 129 235 129 c 0,36,37
 275 129 275 129 301.5 158.5 c 128,-1,38
 328 188 328 188 328 229 c 0,39,40
 328 287 328 287 277 304 c 1,41,42
 210 274 210 274 196 274 c 1,43,44
 188 277 188 277 171.5 295.5 c 128,-1,45
 155 314 155 314 155 322 c 0,46,47
 155 337 155 337 182 339 c 0,48,49
 228 342 228 342 239 345 c 0,50,51
 275 356 275 356 291 392 c 0,52,53
 297 406 297 406 297 424 c 0,54,55
 297 488 297 488 239 488 c 0,56,57
 214 488 214 488 184 471 c 0,58,59
 134 443 134 443 133 443 c 0,60,61
 126 443 126 443 102 495 c 1,62,63
 165 529 165 529 205 529 c 0,64,65
 251 529 251 529 298 484.5 c 128,-1,66
 345 440 345 440 345 394 c 0,67,68
 345 345 345 345 299 322 c 1,69,70
 326 307 326 307 375.5 248.5 c 128,-1,71
 425 190 425 190 440 183 c 1,72,73
 452 176 452 176 463 176 c 0,74,75
 505 176 505 176 542 237 c 1,76,-1
 604 349 l 1,77,78
 645 410 645 410 698 410 c 0,79,80
 744 410 744 410 777 365 c 0,81,82
 807 323 807 323 807 276 c 0,16,17
768 306 m 0,83,84
 768 328 768 328 757 346 c 1,85,86
 745 368 745 368 725 368 c 0,87,88
 685 368 685 368 656 331 c 0,89,90
 640 310 640 310 615 258 c 1,91,92
 642 207 642 207 689 207 c 0,93,94
 721 207 721 207 746 241 c 0,95,96
 768 272 768 272 768 306 c 0,83,84
EndSplineSet
EndChar

StartChar: glyph563
Encoding: 2385 2385 173
Width: 0
GlyphClass: 4
Flags: W
AnchorPoint: "Anchor-4" 0 0 mark 0 {12-17 1,1,-1,0,1,1} {11-17 -4,0,0,0,0,0,-1}
AnchorPoint: "Anchor-2" 0 0 mark 0
AnchorPoint: "Anchor-0" 0 0 mark 0 {12-17 1,1,-1,0,1,1} {11-17 -4,0,0,0,0,0,-1}
LayerCount: 2
Fore
SplineSet
-48 553 m 1,0,-1
 -98 553 l 1,1,-1
 -98 768 l 1,2,-1
 -48 768 l 1,3,-1
 -48 553 l 1,0,-1
EndSplineSet
EndChar

StartChar: glyph479
Encoding: 2386 2386 174
Width: 0
GlyphClass: 4
Flags: W
AnchorPoint: "Anchor-10" 0 0 mark 0
AnchorPoint: "Anchor-9" 0 -120 mark 0
AnchorPoint: "Anchor-7" 0 0 mark 0
LayerCount: 2
Fore
SplineSet
-43 -252 m 1,0,-1
 -442 -252 l 1,1,-1
 -469 -206 l 1,2,-1
 -70 -206 l 1,3,-1
 -43 -252 l 1,0,-1
EndSplineSet
EndChar

StartChar: glyph564
Encoding: 2387 2387 175
Width: 0
GlyphClass: 4
Flags: W
AnchorPoint: "Anchor-5" 0 0 mark 0 {12-13 1,1} {11-12 -2,-1}
AnchorPoint: "Anchor-3" 0 0 mark 0 {12-13 1,1} {11-12 -2,-1}
AnchorPoint: "Anchor-1" 0 0 mark 0 {12-13 1,1} {11-12 -2,-1}
LayerCount: 2
Fore
SplineSet
-36 559 m 1,0,-1
 -104 559 l 1,1,-1
 -282 738 l 1,2,-1
 -216 738 l 1,3,-1
 -36 559 l 1,0,-1
EndSplineSet
EndChar

StartChar: glyph565
Encoding: 2388 2388 176
Width: 0
GlyphClass: 4
Flags: W
AnchorPoint: "Anchor-5" 0 0 mark 0 {11-17 -1,0,0,-2,0,0,-2} {11-17 -2,-1,0,0,0,0,-1}
AnchorPoint: "Anchor-3" 0 0 mark 0 {11-17 -1,0,0,-2,0,0,-2} {11-17 -2,-1,0,0,0,0,-1}
AnchorPoint: "Anchor-1" 0 0 mark 0 {11-17 -1,0,0,-2,0,0,-2} {11-17 -2,-1,0,0,0,0,-1}
LayerCount: 2
Fore
SplineSet
122 738 m 1,0,-1
 -56 559 l 1,1,-1
 -124 559 l 1,2,-1
 56 738 l 1,3,-1
 122 738 l 1,0,-1
EndSplineSet
EndChar

StartChar: glyph164
Encoding: 2392 2392 177
Width: 584
GlyphClass: 3
Flags: W
AnchorPoint: "Anchor-9" 600 0 basechar 0
AnchorPoint: "Anchor-8" 393 0 basechar 0
AnchorPoint: "Anchor-1" 380 0 basechar 0
AnchorPoint: "Anchor-0" 380 0 basechar 0
LayerCount: 2
Fore
SplineSet
625 469 m 1,0,-1
 348 469 l 1,1,-1
 348 301 l 1,2,3
 401 348 401 348 438 348 c 0,4,5
 486 348 486 348 515 292 c 1,6,7
 540 246 540 246 540 194 c 0,8,9
 540 139 540 139 491 60 c 1,10,-1
 445 104 l 1,11,12
 500 185 500 185 500 244 c 0,13,14
 500 295 500 295 452 295 c 0,15,16
 416 295 416 295 348 234 c 1,17,-1
 348 1 l 1,18,-1
 292 35 l 1,19,-1
 296 186 l 1,20,21
 240 130 240 130 190 130 c 0,22,23
 135 130 135 130 96 178 c 128,-1,24
 57 226 57 226 57 282 c 0,25,26
 57 327 57 327 88.5 354.5 c 128,-1,27
 120 382 120 382 165 382 c 0,28,29
 240 382 240 382 300 285 c 1,30,31
 294 314 294 314 294 328 c 2,32,-1
 294 469 l 1,33,-1
 0 469 l 1,34,-1
 -26 515 l 1,35,-1
 598 515 l 1,36,-1
 625 469 l 1,0,-1
295 256 m 1,37,38
 266 296 266 296 246 310 c 0,39,40
 218 329 218 329 176 329 c 0,41,42
 142 329 142 329 119 306 c 128,-1,43
 96 283 96 283 96 249 c 0,44,45
 96 221 96 221 114 199 c 128,-1,46
 132 177 132 177 159 177 c 0,47,48
 221 177 221 177 295 256 c 1,37,38
199 46 m 256,49,50
 199 27 199 27 186 12.5 c 128,-1,51
 173 -2 173 -2 154 -2 c 256,52,53
 135 -2 135 -2 122 12.5 c 128,-1,54
 109 27 109 27 109 46 c 256,55,56
 109 65 109 65 122 79.5 c 128,-1,57
 135 94 135 94 154 94 c 256,58,59
 173 94 173 94 186 79.5 c 128,-1,60
 199 65 199 65 199 46 c 256,49,50
EndSplineSet
Ligature2: "'nukt' Nukta Forms in Devanagari lookup 8 subtable" glyph128 glyph80
EndChar

StartChar: glyph165
Encoding: 2393 2393 178
Width: 596
GlyphClass: 3
Flags: W
AnchorPoint: "Anchor-9" 650 0 basechar 0
AnchorPoint: "Anchor-8" 600 0 basechar 0 {17-17 1} {}
AnchorPoint: "Anchor-5" 580 0 basechar 0
AnchorPoint: "Anchor-4" 590 0 basechar 0 {17-17 1} {}
LayerCount: 2
Fore
SplineSet
624 469 m 1,0,-1
 553 469 l 1,1,-1
 553 1 l 1,2,-1
 500 35 l 1,3,-1
 502 92 l 1,4,5
 403 16 403 16 324 16 c 0,6,7
 249 16 249 16 170 94 c 0,8,9
 103 160 103 160 71 241 c 0,10,11
 57 276 57 276 57 281 c 0,12,13
 57 287 57 287 63.5 296.5 c 128,-1,14
 70 306 70 306 75 306 c 0,15,16
 95 306 95 306 131 285 c 1,17,18
 146 309 146 309 146 373 c 0,19,20
 146 442 146 442 143 469 c 1,21,-1
 -2 469 l 1,22,-1
 -29 515 l 1,23,-1
 597 515 l 1,24,-1
 624 469 l 1,0,-1
501 274 m 1,25,26
 474 312 474 312 452 328 c 0,27,28
 423 348 423 348 382 348 c 0,29,30
 348 348 348 348 325 325 c 128,-1,31
 302 302 302 302 302 268 c 0,32,33
 302 240 302 240 319.5 223 c 128,-1,34
 337 206 337 206 365 206 c 0,35,36
 416 206 416 206 501 274 c 1,25,26
504 308 m 1,37,38
 499 330 499 330 498 360 c 0,39,40
 498 381 498 381 499 416 c 0,41,42
 500 457 500 457 500 469 c 1,43,-1
 196 469 l 1,44,45
 196 442 196 442 198 387.5 c 128,-1,46
 200 333 200 333 200 306 c 0,47,48
 200 238 200 238 134 188 c 1,49,50
 163 137 163 137 207 103 c 0,51,52
 258 63 258 63 310 63 c 0,53,54
 360 63 360 63 412 92 c 0,55,56
 439 107 439 107 500 154 c 1,57,-1
 500 204 l 1,58,59
 460 178 460 178 451 173 c 0,60,61
 424 159 424 159 396 159 c 0,62,63
 341 159 341 159 302 202 c 128,-1,64
 263 245 263 245 263 301 c 0,65,66
 263 346 263 346 294.5 373.5 c 128,-1,67
 326 401 326 401 371 401 c 0,68,69
 418 401 418 401 450 373 c 0,70,71
 464 361 464 361 504 308 c 1,37,38
146 36 m 256,72,73
 146 17 146 17 133 2.5 c 128,-1,74
 120 -12 120 -12 101 -12 c 256,75,76
 82 -12 82 -12 69 2.5 c 128,-1,77
 56 17 56 17 56 36 c 256,78,79
 56 55 56 55 69 69.5 c 128,-1,80
 82 84 82 84 101 84 c 256,81,82
 120 84 120 84 133 69.5 c 128,-1,83
 146 55 146 55 146 36 c 256,72,73
EndSplineSet
Ligature2: "'nukt' Nukta Forms in Devanagari lookup 8 subtable" glyph129 glyph80
EndChar

StartChar: glyph166
Encoding: 2394 2394 179
Width: 415
GlyphClass: 3
Flags: W
AnchorPoint: "Anchor-9" 500 0 basechar 0
AnchorPoint: "Anchor-8" 400 0 basechar 0 {17-17 1} {}
AnchorPoint: "Anchor-5" 410 0 basechar 0
AnchorPoint: "Anchor-4" 410 0 basechar 0
LayerCount: 2
Fore
SplineSet
443 469 m 1,0,-1
 372 469 l 1,1,-1
 372 1 l 1,2,-1
 317 35 l 1,3,-1
 319 469 l 1,4,-1
 176 469 l 1,5,-1
 176 213 l 2,6,7
 176 176 176 176 145 176 c 0,8,9
 125 176 125 176 89 218.5 c 128,-1,10
 53 261 53 261 53 282 c 256,11,12
 53 303 53 303 77 303 c 0,13,14
 82 303 82 303 92 302 c 0,15,16
 101 302 101 302 105 302 c 0,17,18
 122 302 122 302 122 314 c 2,19,-1
 122 469 l 1,20,-1
 -1 469 l 1,21,-1
 -28 515 l 1,22,-1
 416 515 l 1,23,-1
 443 469 l 1,0,-1
169 56 m 256,24,25
 169 37 169 37 156 22.5 c 128,-1,26
 143 8 143 8 124 8 c 256,27,28
 105 8 105 8 92 22.5 c 128,-1,29
 79 37 79 37 79 56 c 256,30,31
 79 75 79 75 92 89.5 c 128,-1,32
 105 104 105 104 124 104 c 256,33,34
 143 104 143 104 156 89.5 c 128,-1,35
 169 75 169 75 169 56 c 256,24,25
EndSplineSet
Ligature2: "'nukt' Nukta Forms in Devanagari lookup 8 subtable" glyph130 glyph80
EndChar

StartChar: glyph171
Encoding: 2395 2395 180
Width: 508
GlyphClass: 3
Flags: W
AnchorPoint: "Anchor-9" 530 0 basechar 0
AnchorPoint: "Anchor-8" 500 0 basechar 0 {17-17 -1} {}
AnchorPoint: "Anchor-5" 520 0 basechar 0
AnchorPoint: "Anchor-4" 520 0 basechar 0
LayerCount: 2
Fore
SplineSet
534 469 m 1,0,-1
 463 469 l 1,1,-1
 463 1 l 1,2,-1
 407 35 l 1,3,-1
 409 318 l 1,4,-1
 270 318 l 1,5,6
 341 247 341 247 341 194 c 0,7,8
 341 157 341 157 315.5 130.5 c 128,-1,9
 290 104 290 104 253 104 c 0,10,11
 184 104 184 104 127 184 c 0,12,13
 97 226 97 226 53 326 c 1,14,-1
 82 338 l 1,15,16
 145 161 145 161 234 161 c 0,17,18
 259 161 259 161 274 179 c 128,-1,19
 289 197 289 197 289 223 c 0,20,21
 289 283 289 283 182 352 c 1,22,-1
 189 371 l 1,23,-1
 409 371 l 1,24,-1
 409 469 l 1,25,-1
 1 469 l 1,26,-1
 -26 515 l 1,27,-1
 507 515 l 1,28,-1
 534 469 l 1,0,-1
346 26 m 256,29,30
 346 7 346 7 333 -7.5 c 128,-1,31
 320 -22 320 -22 301 -22 c 256,32,33
 282 -22 282 -22 269 -7.5 c 128,-1,34
 256 7 256 7 256 26 c 256,35,36
 256 45 256 45 269 59.5 c 128,-1,37
 282 74 282 74 301 74 c 256,38,39
 320 74 320 74 333 59.5 c 128,-1,40
 346 45 346 45 346 26 c 256,29,30
EndSplineSet
Ligature2: "'nukt' Nukta Forms in Devanagari lookup 8 subtable" glyph135 glyph80
EndChar

StartChar: glyph176
Encoding: 2396 2396 181
Width: 474
GlyphClass: 3
Flags: W
AnchorPoint: "Anchor-9" 1320 -100 basechar 0
AnchorPoint: "Anchor-8" 1100 -350 basechar 0
AnchorPoint: "Anchor-1" 430 0 basechar 0
AnchorPoint: "Anchor-0" 430 0 basechar 0 {11-11 -1} {}
LayerCount: 2
Fore
SplineSet
519 469 m 1,0,-1
 395 469 l 1,1,-1
 395 361 l 2,2,3
 395 353 395 353 386 347 c 1,4,5
 375 338 375 338 346 338 c 0,6,7
 333 338 333 338 301.5 341 c 128,-1,8
 270 344 270 344 255 344 c 0,9,10
 186 344 186 344 186 295 c 0,11,12
 186 236 186 236 229 236 c 0,13,14
 250 236 250 236 290 244.5 c 128,-1,15
 330 253 330 253 351 253 c 0,16,17
 384 253 384 253 418 211 c 128,-1,18
 452 169 452 169 452 135 c 0,19,20
 452 84 452 84 415.5 52 c 128,-1,21
 379 20 379 20 327 20 c 0,22,23
 182 20 182 20 57 208 c 1,24,-1
 82 228 l 1,25,26
 132 149 132 149 173 116 c 1,27,28
 229 73 229 73 309 73 c 0,29,30
 347 73 347 73 379.5 97 c 128,-1,31
 412 121 412 121 412 158 c 0,32,33
 412 200 412 200 384 200 c 0,34,35
 362 200 362 200 318.5 191.5 c 128,-1,36
 275 183 275 183 253 183 c 0,37,38
 214 183 214 183 175 233 c 0,39,40
 138 280 138 280 138 320 c 0,41,42
 138 350 138 350 158 372 c 128,-1,43
 178 394 178 394 208 394 c 2,44,-1
 341 394 l 1,45,-1
 341 469 l 1,46,-1
 1 469 l 1,47,-1
 -26 515 l 1,48,-1
 492 515 l 1,49,-1
 519 469 l 1,0,-1
342 -61 m 256,50,51
 342 -80 342 -80 329 -94.5 c 128,-1,52
 316 -109 316 -109 297 -109 c 256,53,54
 278 -109 278 -109 265 -94.5 c 128,-1,55
 252 -80 252 -80 252 -61 c 256,56,57
 252 -42 252 -42 265 -27.5 c 128,-1,58
 278 -13 278 -13 297 -13 c 256,59,60
 316 -13 316 -13 329 -27.5 c 128,-1,61
 342 -42 342 -42 342 -61 c 256,50,51
EndSplineSet
Ligature2: "'nukt' Nukta Forms in Devanagari lookup 8 subtable" glyph140 glyph80
EndChar

StartChar: glyph177
Encoding: 2397 2397 182
Width: 432
GlyphClass: 3
Flags: W
AnchorPoint: "Anchor-9" 1200 -100 basechar 0
AnchorPoint: "Anchor-8" 1000 -350 basechar 0
AnchorPoint: "Anchor-1" 400 0 basechar 0
AnchorPoint: "Anchor-0" 400 0 basechar 0 {11-13 -1,0,-1} {}
LayerCount: 2
Fore
SplineSet
461 469 m 1,0,-1
 355 469 l 1,1,2
 355 472 355 472 356 429 c 0,3,4
 357 394 357 394 356 373 c 0,5,6
 355 344 355 344 350 338.5 c 128,-1,7
 345 333 345 333 308 332 c 1,8,-1
 210 332 l 1,9,10
 159 328 159 328 135 307 c 0,11,12
 105 280 105 280 105 217 c 0,13,14
 105 165 105 165 137 126 c 128,-1,15
 169 87 169 87 221 80 c 1,16,17
 201 128 201 128 201 162 c 0,18,19
 201 265 201 265 297 265 c 0,20,21
 346 265 346 265 374 219 c 1,22,23
 399 180 399 180 399 129 c 0,24,25
 399 80 399 80 361.5 50 c 128,-1,26
 324 20 324 20 273 20 c 0,27,28
 241 20 241 20 209 37 c 0,29,30
 57 117 57 117 57 269 c 0,31,32
 57 357 57 357 143 379 c 0,33,34
 172 386 172 386 301 386 c 1,35,-1
 301 469 l 1,36,-1
 -2 469 l 1,37,-1
 -29 515 l 1,38,-1
 434 515 l 1,39,-1
 461 469 l 1,0,-1
369 157 m 0,40,41
 369 181 369 181 351.5 196.5 c 128,-1,42
 334 212 334 212 309 212 c 0,43,44
 273 212 273 212 255 179 c 0,45,46
 240 153 240 153 240 114 c 0,47,48
 240 105 240 105 247 76 c 1,49,50
 253 73 253 73 260 73 c 0,51,52
 298 73 298 73 332 95 c 1,53,54
 369 121 369 121 369 157 c 0,40,41
322 -61 m 256,55,56
 322 -80 322 -80 309 -94.5 c 128,-1,57
 296 -109 296 -109 277 -109 c 256,58,59
 258 -109 258 -109 245 -94.5 c 128,-1,60
 232 -80 232 -80 232 -61 c 256,61,62
 232 -42 232 -42 245 -27.5 c 128,-1,63
 258 -13 258 -13 277 -13 c 256,64,65
 296 -13 296 -13 309 -27.5 c 128,-1,66
 322 -42 322 -42 322 -61 c 256,55,56
EndSplineSet
Ligature2: "'nukt' Nukta Forms in Devanagari lookup 8 subtable" glyph141 glyph80
EndChar

StartChar: glyph185
Encoding: 2398 2398 183
Width: 570
GlyphClass: 3
Flags: W
AnchorPoint: "Anchor-9" 600 0 basechar 0
AnchorPoint: "Anchor-8" 380 0 basechar 0
AnchorPoint: "Anchor-1" 360 0 basechar 0
AnchorPoint: "Anchor-0" 360 0 basechar 0
LayerCount: 2
Fore
SplineSet
603 469 m 1,0,-1
 325 469 l 1,1,-1
 325 297 l 1,2,3
 387 352 387 352 438 352 c 0,4,5
 486 352 486 352 515 296 c 1,6,7
 540 250 540 250 540 198 c 256,8,9
 540 146 540 146 491 64 c 1,10,-1
 445 108 l 1,11,12
 500 189 500 189 500 248 c 0,13,14
 500 299 500 299 452 299 c 0,15,16
 431 299 431 299 386 272 c 0,17,18
 349 250 349 250 325 230 c 1,19,-1
 325 1 l 1,20,-1
 269 35 l 1,21,-1
 273 202 l 1,22,23
 227 179 227 179 200 179 c 0,24,25
 166 179 166 179 118 219 c 0,26,27
 67 262 67 262 67 306 c 2,28,-1
 67 469 l 1,29,-1
 -1 469 l 1,30,-1
 -28 515 l 1,31,-1
 576 515 l 1,32,-1
 603 469 l 1,0,-1
271 268 m 1,33,-1
 271 469 l 1,34,-1
 121 469 l 1,35,-1
 121 301 l 2,36,37
 121 226 121 226 172 226 c 0,38,39
 215 226 215 226 271 268 c 1,33,-1
183 57 m 256,40,41
 183 38 183 38 170 23.5 c 128,-1,42
 157 9 157 9 138 9 c 256,43,44
 119 9 119 9 106 23.5 c 128,-1,45
 93 38 93 38 93 57 c 256,46,47
 93 76 93 76 106 90.5 c 128,-1,48
 119 105 119 105 138 105 c 256,49,50
 157 105 157 105 170 90.5 c 128,-1,51
 183 76 183 76 183 57 c 256,40,41
EndSplineSet
Ligature2: "'nukt' Nukta Forms in Devanagari lookup 8 subtable" glyph149 glyph80
EndChar

StartChar: glyph189
Encoding: 2399 2399 184
Width: 412
GlyphClass: 3
Flags: W
AnchorPoint: "Anchor-9" 500 0 basechar 0
AnchorPoint: "Anchor-8" 410 0 basechar 0 {17-17 1} {}
AnchorPoint: "Anchor-5" 410 0 basechar 0
AnchorPoint: "Anchor-4" 410 0 basechar 0 {11-17 -1,0,0,0,0,0,1} {}
LayerCount: 2
Fore
SplineSet
438 469 m 1,0,-1
 367 469 l 1,1,-1
 367 1 l 1,2,-1
 311 35 l 1,3,-1
 315 204 l 1,4,5
 264 153 264 153 211 153 c 0,6,7
 141 153 141 153 94 201 c 0,8,9
 52 243 52 243 33 315 c 1,10,11
 153 339 153 339 153 401 c 0,12,13
 153 415 153 415 126 469 c 1,14,-1
 0 469 l 1,15,-1
 -27 515 l 1,16,-1
 411 515 l 1,17,-1
 438 469 l 1,0,-1
313 271 m 1,18,-1
 313 469 l 1,19,-1
 166 469 l 1,20,21
 201 396 201 396 201 365 c 0,22,23
 201 311 201 311 95 272 c 1,24,25
 95 194 95 194 160 194 c 256,26,27
 225 194 225 194 313 271 c 1,18,-1
214 57 m 256,28,29
 214 38 214 38 201 23.5 c 128,-1,30
 188 9 188 9 169 9 c 256,31,32
 150 9 150 9 137 23.5 c 128,-1,33
 124 38 124 38 124 57 c 256,34,35
 124 76 124 76 137 90.5 c 128,-1,36
 150 105 150 105 169 105 c 256,37,38
 188 105 188 105 201 90.5 c 128,-1,39
 214 76 214 76 214 57 c 256,28,29
EndSplineSet
Ligature2: "'nukt' Nukta Forms in Devanagari lookup 8 subtable" glyph153 glyph80
EndChar

StartChar: glyph108
Encoding: 2400 2400 185
Width: 613
GlyphClass: 2
Flags: W
AnchorPoint: "Anchor-10" 853 86 basechar 0
AnchorPoint: "Anchor-3" 853 1247 basechar 0
AnchorPoint: "Anchor-2" 0 0 basechar 0
LayerCount: 2
Fore
SplineSet
647 470 m 1,0,-1
 352 470 l 1,1,-1
 352 302 l 1,2,3
 367 305 367 305 390 320 c 128,-1,4
 413 335 413 335 423 347 c 1,5,6
 423 351 423 351 422 359 c 1,7,8
 422 368 422 368 422 372 c 0,9,10
 422 419 422 419 440 419 c 0,11,12
 455 419 455 419 489.5 399 c 128,-1,13
 524 379 524 379 524 366 c 0,14,15
 524 356 524 356 500 338 c 0,16,17
 481 323 481 323 466 316 c 1,18,-1
 533 234 l 1,19,20
 432 194 432 194 432 151 c 0,21,22
 432 120 432 120 473 120 c 0,23,24
 489 120 489 120 516 140 c 1,25,-1
 561 100 l 1,26,-1
 501 68 l 1,27,28
 459 42 459 42 459 21 c 0,29,30
 459 -7 459 -7 494 -7 c 0,31,32
 524 -7 524 -7 568 33 c 1,33,-1
 597 -6 l 1,34,35
 548 -44 548 -44 524 -44 c 0,36,37
 493 -44 493 -44 453 -26 c 1,38,39
 407 -4 407 -4 407 23 c 0,40,41
 407 44 407 44 423 62 c 0,42,43
 425 63 425 63 456 90 c 1,44,45
 379 118 379 118 379 166 c 0,46,47
 379 195 379 195 407 222 c 0,48,49
 430 245 430 245 461 258 c 1,50,-1
 430 296 l 1,51,52
 405 275 405 275 352 275 c 1,53,-1
 352 3 l 1,54,-1
 297 36 l 1,55,-1
 298 213 l 1,56,-1
 134 88 l 1,57,-1
 92 127 l 1,58,-1
 291 269 l 1,59,60
 212 329 212 329 175 329 c 0,61,62
 141 329 141 329 96 314 c 1,63,-1
 58 367 l 1,64,65
 129 382 129 382 157 382 c 0,66,67
 194 382 194 382 234 353 c 1,68,69
 266 324 266 324 298 296 c 1,70,-1
 298 470 l 1,71,-1
 0 470 l 1,72,-1
 -27 516 l 1,73,-1
 620 516 l 1,74,-1
 647 470 l 1,0,-1
EndSplineSet
EndChar

StartChar: glyph109
Encoding: 2401 2401 186
Width: 558
GlyphClass: 2
Flags: W
AnchorPoint: "Anchor-10" 748 -242 basechar 0
AnchorPoint: "Anchor-3" 748 1247 basechar 0
AnchorPoint: "Anchor-2" 0 0 basechar 0
LayerCount: 2
Fore
SplineSet
596 469 m 1,0,-1
 408 469 l 1,1,-1
 408 392 l 1,2,3
 451 382 451 382 482 355 c 0,4,5
 519 324 519 324 519 284 c 0,6,7
 519 247 519 247 451 203 c 128,-1,8
 383 159 383 159 383 129 c 0,9,10
 383 112 383 112 395 98.5 c 128,-1,11
 407 85 407 85 424 85 c 0,12,13
 476 85 476 85 523 156 c 1,14,-1
 563 118 l 1,15,16
 534 78 534 78 488 65 c 1,17,18
 455 59 455 59 421 52 c 1,19,20
 392 45 392 45 392 15 c 0,21,22
 392 -14 392 -14 434 -14 c 0,23,24
 454 -14 454 -14 488 1 c 0,25,26
 519 15 519 15 537 30 c 1,27,-1
 563 -14 l 1,28,29
 548 -29 548 -29 518.5 -41 c 128,-1,30
 489 -53 489 -53 467 -53 c 0,31,32
 390 -53 390 -53 354 11 c 0,33,34
 345 25 345 25 345 34 c 0,35,36
 345 66 345 66 367 82 c 1,37,38
 329 110 329 110 329 145 c 0,39,40
 329 183 329 183 397 226.5 c 128,-1,41
 465 270 465 270 465 308 c 0,42,43
 465 360 465 360 410 360 c 0,44,45
 345 360 345 360 280 208 c 1,46,-1
 234 235 l 1,47,48
 246 268 246 268 263 292 c 1,49,50
 251 313 251 313 232 331 c 0,51,52
 208 353 208 353 189 353 c 0,53,54
 153 353 153 353 132 325.5 c 128,-1,55
 111 298 111 298 111 261 c 0,56,57
 111 209 111 209 143 148 c 0,58,59
 171 94 171 94 212 53 c 1,60,-1
 183 27 l 1,61,62
 143 73 143 73 103 151 c 1,63,64
 57 238 57 238 57 287 c 0,65,66
 57 333 57 333 85.5 369.5 c 128,-1,67
 114 406 114 406 159 406 c 0,68,69
 196 406 196 406 228 377 c 0,70,71
 237 368 237 368 278 318 c 1,72,73
 315 375 315 375 354 389 c 1,74,-1
 354 469 l 1,75,-1
 -1 469 l 1,76,-1
 -28 515 l 1,77,-1
 569 515 l 1,78,-1
 596 469 l 1,0,-1
EndSplineSet
EndChar

StartChar: glyph477
Encoding: 2402 2402 187
Width: 0
GlyphClass: 4
Flags: W
LayerCount: 2
Fore
SplineSet
132 -95 m 1,0,1
 95 -118 95 -118 69 -118 c 0,2,3
 32 -118 32 -118 -2 -94 c 0,4,5
 -40 -67 -40 -67 -40 -31 c 0,6,7
 -40 -3 -40 -3 -6 12 c 1,8,9
 26 22 26 22 59 33 c 128,-1,10
 92 44 92 44 92 66 c 0,11,12
 92 83 92 83 78.5 93.5 c 128,-1,13
 65 104 65 104 48 104 c 0,14,15
 2 104 2 104 -49 18 c 1,16,-1
 -85 46 l 1,17,18
 -77 56 -77 56 -63 78 c 1,19,20
 -83 109 -83 109 -123 109 c 0,21,22
 -144 109 -144 109 -157.5 94 c 128,-1,23
 -171 79 -171 79 -171 57 c 0,24,25
 -171 26 -171 26 -147 -2 c 0,26,27
 -133 -18 -133 -18 -96 -45 c 1,28,-1
 -110 -60 l 1,29,30
 -168 -20 -168 -20 -183 -5 c 0,31,32
 -218 31 -218 31 -218 76 c 0,33,34
 -218 103 -218 103 -193.5 125 c 128,-1,35
 -169 147 -169 147 -142 147 c 0,36,37
 -109 147 -109 147 -88 134 c 0,38,39
 -74 126 -74 126 -47 96 c 1,40,41
 -5 145 -5 145 36 145 c 0,42,43
 68 145 68 145 96.5 113 c 128,-1,44
 125 81 125 81 125 48 c 0,45,46
 125 17 125 17 91 0 c 0,47,48
 88 -1 88 -1 26 -21 c 0,49,50
 -8 -31 -8 -31 -8 -49 c 0,51,52
 -8 -79 -8 -79 35 -79 c 0,53,54
 66 -79 66 -79 105 -55 c 1,55,-1
 132 -95 l 1,0,1
EndSplineSet
EndChar

StartChar: glyph478
Encoding: 2403 2403 188
Width: 0
GlyphClass: 4
Flags: W
LayerCount: 2
Fore
SplineSet
133 -217 m 1,0,1
 109 -226 109 -226 69 -226 c 0,2,3
 33 -226 33 -226 -1 -205 c 0,4,5
 -39 -181 -39 -181 -39 -147 c 0,6,7
 -39 -110 -39 -110 -7 -91 c 1,8,9
 -40 -60 -40 -60 -40 -31 c 0,10,11
 -40 -3 -40 -3 -6 12 c 1,12,13
 26 22 26 22 59 33 c 128,-1,14
 92 44 92 44 92 66 c 0,15,16
 92 83 92 83 78.5 93.5 c 128,-1,17
 65 104 65 104 48 104 c 0,18,19
 2 104 2 104 -49 18 c 1,20,-1
 -85 46 l 1,21,22
 -77 56 -77 56 -63 78 c 1,23,24
 -83 109 -83 109 -123 109 c 0,25,26
 -144 109 -144 109 -157.5 94 c 128,-1,27
 -171 79 -171 79 -171 57 c 0,28,29
 -171 26 -171 26 -147 -2 c 0,30,31
 -133 -18 -133 -18 -96 -45 c 1,32,-1
 -110 -60 l 1,33,34
 -168 -20 -168 -20 -183 -5 c 0,35,36
 -218 31 -218 31 -218 76 c 0,37,38
 -218 103 -218 103 -193.5 125 c 128,-1,39
 -169 147 -169 147 -142 147 c 0,40,41
 -109 147 -109 147 -88 134 c 0,42,43
 -74 126 -74 126 -47 96 c 1,44,45
 -5 145 -5 145 36 145 c 0,46,47
 68 145 68 145 96.5 113 c 128,-1,48
 125 81 125 81 125 48 c 0,49,50
 125 17 125 17 91 0 c 0,51,52
 88 -1 88 -1 26 -21 c 0,53,54
 -8 -31 -8 -31 -8 -49 c 0,55,56
 -8 -79 -8 -79 35 -79 c 0,57,58
 66 -79 66 -79 105 -55 c 1,59,-1
 132 -95 l 1,60,61
 95 -118 95 -118 69 -118 c 0,62,63
 61 -118 61 -118 51 -117 c 1,64,65
 20 -130 20 -130 14 -133 c 0,66,67
 -7 -146 -7 -146 -7 -165 c 0,68,69
 -7 -187 -7 -187 36 -187 c 0,70,71
 69 -187 69 -187 106 -173 c 1,72,-1
 133 -217 l 1,0,1
EndSplineSet
EndChar

StartChar: glyph64
Encoding: 2404 2404 189
Width: 293
GlyphClass: 2
Flags: W
LayerCount: 2
Fore
SplineSet
293 -3 m 1,0,-1
 237 34 l 1,1,-1
 237 520 l 1,2,-1
 293 483 l 1,3,-1
 293 -3 l 1,0,-1
EndSplineSet
EndChar

StartChar: glyph65
Encoding: 2405 2405 190
Width: 470
GlyphClass: 2
Flags: W
LayerCount: 2
Fore
SplineSet
469 -3 m 1,0,-1
 415 34 l 1,1,-1
 415 520 l 1,2,-1
 469 483 l 1,3,-1
 469 -3 l 1,0,-1
307 -3 m 1,4,-1
 253 34 l 1,5,-1
 253 520 l 1,6,-1
 307 483 l 1,7,-1
 307 -3 l 1,4,-1
EndSplineSet
EndChar

StartChar: glyph66
Encoding: 2406 2406 191
Width: 417
GlyphClass: 2
Flags: W
LayerCount: 2
Fore
SplineSet
356 261 m 0,0,1
 356 209 356 209 313 156 c 0,2,3
 267 100 267 100 216 100 c 0,4,5
 158 100 158 100 120.5 142.5 c 128,-1,6
 83 185 83 185 83 244 c 0,7,8
 83 300 83 300 127.5 353 c 128,-1,9
 172 406 172 406 226 406 c 256,10,11
 280 406 280 406 318 361 c 128,-1,12
 356 316 356 316 356 261 c 0,0,1
308 236 m 0,13,14
 308 280 308 280 278 319.5 c 128,-1,15
 248 359 248 359 205 359 c 0,16,17
 131 359 131 359 131 271 c 0,18,19
 131 218 131 218 164 182.5 c 128,-1,20
 197 147 197 147 249 147 c 0,21,22
 278 147 278 147 295 178 c 1,23,24
 308 204 308 204 308 236 c 0,13,14
EndSplineSet
EndChar

StartChar: glyph67
Encoding: 2407 2407 192
Width: 417
GlyphClass: 2
Flags: W
LayerCount: 2
Fore
SplineSet
345 -41 m 0,0,1
 345 -70 345 -70 324 -89 c 1,2,-1
 264 -49 l 1,3,4
 285 -36 285 -36 285 -19 c 0,5,6
 285 6 285 6 208 85 c 0,7,8
 157 136 157 136 105 181 c 1,9,10
 157 227 157 227 199 291 c 1,11,12
 87 355 87 355 87 416 c 0,13,14
 87 455 87 455 115.5 488.5 c 128,-1,15
 144 522 144 522 182 522 c 0,16,17
 221 522 221 522 264 477 c 128,-1,18
 307 432 307 432 307 393 c 0,19,20
 307 349 307 349 254 274 c 1,21,-1
 170 166 l 1,22,23
 266 83 266 83 317 22 c 0,24,25
 345 -11 345 -11 345 -41 c 0,0,1
253 414 m 0,26,27
 253 439 253 439 239.5 457 c 128,-1,28
 226 475 226 475 202 475 c 0,29,30
 179 475 179 475 160.5 449.5 c 128,-1,31
 142 424 142 424 142 400 c 0,32,33
 142 358 142 358 214 314 c 1,34,35
 229 331 229 331 241 361.5 c 128,-1,36
 253 392 253 392 253 414 c 0,26,27
EndSplineSet
EndChar

StartChar: glyph68
Encoding: 2408 2408 193
Width: 417
GlyphClass: 2
Flags: W
LayerCount: 2
Fore
SplineSet
364 -53 m 1,0,-1
 332 -73 l 1,1,-1
 197 171 l 1,2,3
 114 171 114 171 114 242 c 0,4,5
 114 300 114 300 152 300 c 1,6,7
 161 296 161 296 204 240 c 1,8,9
 257 252 257 252 287 292 c 128,-1,10
 317 332 317 332 317 387 c 0,11,12
 317 477 317 477 240 477 c 0,13,14
 177 477 177 477 102 442 c 1,15,-1
 59 494 l 1,16,17
 141 530 141 530 217 530 c 0,18,19
 272 530 272 530 316 473 c 0,20,21
 357 419 357 419 357 363 c 0,22,23
 357 301 357 301 325 252 c 128,-1,24
 293 203 293 203 236 181 c 1,25,-1
 364 -53 l 1,0,-1
EndSplineSet
EndChar

StartChar: glyph69
Encoding: 2409 2409 194
Width: 417
GlyphClass: 2
Flags: W
LayerCount: 2
Fore
SplineSet
363 198 m 0,0,1
 363 151 363 151 328 115 c 128,-1,2
 293 79 293 79 245 69 c 1,3,-1
 332 -57 l 1,4,-1
 305 -80 l 1,5,-1
 232 35 l 2,6,7
 225 46 225 46 220 52 c 0,8,9
 205 66 205 66 176 70 c 1,10,11
 144 76 144 76 134 83 c 0,12,13
 116 96 116 96 116 136 c 0,14,15
 116 186 116 186 149 186 c 0,16,17
 164 186 164 186 206 125 c 1,18,19
 253 127 253 127 283.5 151 c 128,-1,20
 314 175 314 175 314 220 c 0,21,22
 314 245 314 245 295 271.5 c 128,-1,23
 276 298 276 298 252 298 c 0,24,25
 246 298 246 298 217 291.5 c 128,-1,26
 188 285 188 285 149 285 c 0,27,28
 127 285 127 285 112.5 300 c 128,-1,29
 98 315 98 315 98 338 c 0,30,31
 98 348 98 348 137 348 c 0,32,33
 151 348 151 348 178 344.5 c 128,-1,34
 205 341 205 341 218 341 c 0,35,36
 241 341 241 341 260 367 c 128,-1,37
 279 393 279 393 279 416 c 0,38,39
 279 469 279 469 203 469 c 2,40,-1
 156 469 l 2,41,42
 130 469 130 469 80 465 c 1,43,-1
 51 520 l 1,44,45
 74 522 74 522 138 522 c 2,46,-1
 177 522 l 2,47,48
 212 522 212 522 237 512 c 0,49,50
 269 499 269 499 298.5 460 c 128,-1,51
 328 421 328 421 328 387 c 0,52,53
 328 368 328 368 315.5 346 c 128,-1,54
 303 324 303 324 287 313 c 1,55,56
 327 275 327 275 337 262 c 0,57,58
 363 229 363 229 363 198 c 0,0,1
EndSplineSet
EndChar

StartChar: glyph70
Encoding: 2410 2410 195
Width: 417
GlyphClass: 2
Flags: W
LayerCount: 2
Fore
SplineSet
416 463 m 1,0,-1
 264 295 l 1,1,2
 376 201 376 201 376 157 c 256,3,4
 376 113 376 113 335 85 c 0,5,6
 299 60 299 60 253 60 c 0,7,8
 203 60 203 60 168 94.5 c 128,-1,9
 133 129 133 129 133 179 c 0,10,11
 133 238 133 238 204 309 c 1,12,13
 173 345 173 345 106 399 c 2,14,-1
 0 483 l 1,15,-1
 29 511 l 1,16,-1
 223 331 l 1,17,-1
 395 523 l 1,18,-1
 416 463 l 1,0,-1
316 170 m 0,19,20
 316 211 316 211 245 272 c 1,21,22
 173 195 173 195 173 155 c 0,23,24
 173 133 173 133 191 117 c 128,-1,25
 209 101 209 101 232 101 c 0,26,27
 259 101 259 101 287.5 122 c 128,-1,28
 316 143 316 143 316 170 c 0,19,20
EndSplineSet
EndChar

StartChar: glyph71
Encoding: 2411 2411 196
Width: 417
GlyphClass: 2
Flags: W
LayerCount: 2
Fore
SplineSet
398 -64 m 1,0,-1
 362 -80 l 1,1,-1
 268 178 l 1,2,3
 224 141 224 141 183 141 c 0,4,5
 130 141 130 141 76.5 197.5 c 128,-1,6
 23 254 23 254 23 307 c 0,7,8
 23 401 23 401 59 521 c 1,9,-1
 116 475 l 1,10,11
 71 330 71 330 71 278 c 0,12,13
 71 241 71 241 96 217.5 c 128,-1,14
 121 194 121 194 158 194 c 0,15,16
 179 194 179 194 205.5 207.5 c 128,-1,17
 232 221 232 221 241 238 c 1,18,19
 226 283 226 283 226 302 c 0,20,21
 226 330 226 330 253 330 c 0,22,23
 266 330 266 330 290.5 305.5 c 128,-1,24
 315 281 315 281 315 269 c 0,25,26
 315 238 315 238 291 205 c 1,27,-1
 398 -64 l 1,0,-1
EndSplineSet
EndChar

StartChar: glyph72
Encoding: 2412 2412 197
Width: 417
GlyphClass: 2
Flags: W
LayerCount: 2
Fore
SplineSet
387 -59 m 1,0,-1
 357 -74 l 1,1,-1
 293 65 l 1,2,3
 283 63 283 63 269 63 c 0,4,5
 200 63 200 63 134 111 c 1,6,7
 63 164 63 164 63 230 c 0,8,9
 63 252 63 252 76 276 c 128,-1,10
 89 300 89 300 108 312 c 1,11,12
 39 377 39 377 39 431 c 0,13,14
 39 522 39 522 190 522 c 0,15,16
 229 522 229 522 274 513 c 1,17,-1
 298 460 l 1,18,19
 248 469 248 469 213 469 c 0,20,21
 93 469 93 469 93 400 c 0,22,23
 93 375 93 375 112 353.5 c 128,-1,24
 131 332 131 332 156 332 c 0,25,26
 170 332 170 332 201 337.5 c 128,-1,27
 232 343 232 343 251 343 c 0,28,29
 274 343 274 343 288 326.5 c 128,-1,30
 302 310 302 310 302 286 c 0,31,32
 302 272 302 272 264 272 c 0,33,34
 250 272 250 272 222.5 276 c 128,-1,35
 195 280 195 280 181 280 c 0,36,37
 158 280 158 280 137.5 252.5 c 128,-1,38
 117 225 117 225 117 201 c 0,39,40
 117 162 117 162 146.5 136 c 128,-1,41
 176 110 176 110 215 110 c 0,42,43
 243 110 243 110 261 122 c 1,44,45
 249 141 249 141 249 177 c 0,46,47
 249 182 249 182 257 187.5 c 128,-1,48
 265 193 265 193 270 193 c 0,49,50
 283 193 283 193 315 170 c 128,-1,51
 347 147 347 147 347 135 c 0,52,53
 347 101 347 101 319 82 c 1,54,-1
 387 -59 l 1,0,-1
EndSplineSet
EndChar

StartChar: glyph73
Encoding: 2413 2413 198
Width: 417
GlyphClass: 2
Flags: W
LayerCount: 2
Fore
SplineSet
402 269 m 0,0,1
 402 188 402 188 366 130 c 1,2,3
 324 60 324 60 248 60 c 0,4,5
 122 60 122 60 57 238 c 0,6,7
 15 355 15 355 5 522 c 1,8,-1
 32 534 l 1,9,10
 64 123 64 123 245 123 c 0,11,12
 355 123 355 123 363 269 c 1,13,14
 339 247 339 247 306 247 c 0,15,16
 254 247 254 247 218 291 c 0,17,18
 184 332 184 332 184 385 c 0,19,20
 184 419 184 419 205 444.5 c 128,-1,21
 226 470 226 470 259 470 c 0,22,23
 285 470 285 470 323 446 c 1,24,25
 372 413 372 413 389 369 c 0,26,27
 402 334 402 334 402 269 c 0,0,1
356 335 m 1,28,29
 346 422 346 422 298 422 c 0,30,31
 267 422 267 422 249.5 401 c 128,-1,32
 232 380 232 380 232 348 c 0,33,34
 232 320 232 320 246.5 300 c 128,-1,35
 261 280 261 280 288 280 c 0,36,37
 330 280 330 280 356 335 c 1,28,29
EndSplineSet
EndChar

StartChar: glyph74
Encoding: 2414 2414 199
Width: 417
GlyphClass: 2
Flags: W
LayerCount: 2
Fore
SplineSet
391 127 m 1,0,1
 307 26 307 26 214 26 c 0,2,3
 154 26 154 26 99 65 c 0,4,5
 39 107 39 107 39 165 c 0,6,7
 39 193 39 193 60 224 c 0,8,9
 124 318 124 318 305 535 c 1,10,-1
 330 477 l 1,11,-1
 104 183 l 2,12,13
 88 162 88 162 88 143 c 0,14,15
 88 113 88 113 123 89 c 0,16,17
 155 67 155 67 187 67 c 0,18,19
 249 67 249 67 353 171 c 1,20,-1
 391 127 l 1,0,1
EndSplineSet
EndChar

StartChar: glyph75
Encoding: 2415 2415 200
Width: 417
GlyphClass: 2
Flags: W
LayerCount: 2
Fore
SplineSet
374 10 m 0,0,1
 374 -21 374 -21 325 -67 c 1,2,-1
 274 -24 l 1,3,4
 320 13 320 13 320 28 c 0,5,6
 320 47 320 47 283 92 c 1,7,8
 256 123 256 123 230 153 c 2,9,-1
 103 300 l 2,10,11
 51 360 51 360 51 399 c 0,12,13
 51 454 51 454 90 492 c 128,-1,14
 129 530 129 530 184 530 c 0,15,16
 231 530 231 530 271.5 490.5 c 128,-1,17
 312 451 312 451 312 405 c 0,18,19
 312 349 312 349 262 311 c 128,-1,20
 212 273 212 273 156 277 c 1,21,22
 181 244 181 244 283 136 c 2,23,-1
 325 92 l 2,24,25
 349 66 349 66 361.5 45 c 128,-1,26
 374 24 374 24 374 10 c 0,0,1
258 435 m 0,27,28
 258 483 258 483 210 483 c 0,29,30
 164 483 164 483 134.5 451.5 c 128,-1,31
 105 420 105 420 105 373 c 0,32,33
 105 346 105 346 120 318 c 1,34,-1
 132 318 l 1,35,36
 184 316 184 316 221 349 c 128,-1,37
 258 382 258 382 258 435 c 0,27,28
EndSplineSet
EndChar

StartChar: glyph76
Encoding: 2416 2416 201
Width: 214
GlyphClass: 2
Flags: W
LayerCount: 2
Fore
SplineSet
214 337 m 256,0,1
 214 291 214 291 183 257 c 128,-1,2
 152 223 152 223 107 223 c 256,3,4
 62 223 62 223 31 257 c 128,-1,5
 0 291 0 291 0 337 c 256,6,7
 0 383 0 383 31 417 c 128,-1,8
 62 451 62 451 107 451 c 256,9,10
 152 451 152 451 183 417 c 128,-1,11
 214 383 214 383 214 337 c 256,0,1
184 337 m 256,12,13
 184 370 184 370 162 394.5 c 128,-1,14
 140 419 140 419 107 419 c 256,15,16
 74 419 74 419 52 394.5 c 128,-1,17
 30 370 30 370 30 337 c 256,18,19
 30 304 30 304 52 279.5 c 128,-1,20
 74 255 74 255 107 255 c 256,21,22
 140 255 140 255 162 279.5 c 128,-1,23
 184 304 184 304 184 337 c 256,12,13
EndSplineSet
EndChar

StartChar: glyph666
Encoding: 8204 8204 202
Width: 0
GlyphClass: 2
Flags: W
LayerCount: 2
Fore
SplineSet
18 -136 m 1,0,-1
 -18 -136 l 1,1,-1
 -18 580 l 1,2,-1
 18 580 l 1,3,-1
 18 -136 l 1,0,-1
EndSplineSet
EndChar

StartChar: glyph667
Encoding: 8205 8205 203
Width: 0
GlyphClass: 2
Flags: W
LayerCount: 2
Fore
SplineSet
108 559 m 1,0,-1
 85 534 l 1,1,-1
 18 602 l 1,2,-1
 18 -136 l 1,3,-1
 -18 -136 l 1,4,-1
 -18 602 l 1,5,-1
 -85 534 l 1,6,-1
 -108 559 l 1,7,-1
 -24 643 l 1,8,-1
 -108 726 l 1,9,-1
 -85 750 l 1,10,-1
 0 666 l 1,11,-1
 85 750 l 1,12,-1
 108 726 l 1,13,-1
 24 643 l 1,14,-1
 108 559 l 1,0,-1
EndSplineSet
EndChar

StartChar: Eth
Encoding: 8211 8211 204
Width: 393
GlyphClass: 2
Flags: W
LayerCount: 2
Fore
SplineSet
400 174 m 1,0,-1
 -7 174 l 1,1,-1
 -7 202 l 1,2,-1
 400 202 l 1,3,-1
 400 174 l 1,0,-1
EndSplineSet
EndChar

StartChar: Ntilde
Encoding: 8212 8212 205
Width: 786
GlyphClass: 2
Flags: W
LayerCount: 2
Fore
SplineSet
793 174 m 1,0,-1
 -7 174 l 1,1,-1
 -7 202 l 1,2,-1
 793 202 l 1,3,-1
 793 174 l 1,0,-1
EndSplineSet
EndChar

StartChar: Ocircumflex
Encoding: 8216 8216 206
Width: 261
GlyphClass: 2
Flags: W
LayerCount: 2
Fore
SplineSet
115 527 m 1,0,-1
 68 430 l 1,1,2
 48 448 48 448 29 467 c 0,3,4
 0 496 0 496 0 513 c 0,5,6
 0 549 0 549 68 716 c 1,7,-1
 97 679 l 1,8,9
 72 599 72 599 72 580 c 0,10,11
 72 564 72 564 87 549 c 1,12,-1
 115 527 l 1,0,-1
EndSplineSet
EndChar

StartChar: Otilde
Encoding: 8217 8217 207
Width: 261
GlyphClass: 2
Flags: W
LayerCount: 2
Fore
SplineSet
263 620 m 0,0,1
 263 592 263 592 195 417 c 1,2,-1
 166 454 l 1,3,4
 191 534 191 534 191 553 c 0,5,6
 191 569 191 569 176 584 c 1,7,-1
 148 606 l 1,8,-1
 196 703 l 1,9,-1
 234 667 l 1,10,11
 263 636 263 636 263 620 c 0,0,1
EndSplineSet
EndChar

StartChar: Eacute
Encoding: 8230 8230 208
Width: 481
GlyphClass: 2
Flags: W
LayerCount: 2
Fore
SplineSet
434 60 m 256,0,1
 434 40 434 40 421 26.5 c 128,-1,2
 408 13 408 13 389 13 c 256,3,4
 370 13 370 13 357.5 27 c 128,-1,5
 345 41 345 41 345 60 c 256,6,7
 345 79 345 79 357.5 93 c 128,-1,8
 370 107 370 107 389 107 c 256,9,10
 408 107 408 107 421 93.5 c 128,-1,11
 434 80 434 80 434 60 c 256,0,1
294 60 m 256,12,13
 294 40 294 40 281 26.5 c 128,-1,14
 268 13 268 13 249 13 c 256,15,16
 230 13 230 13 217.5 27 c 128,-1,17
 205 41 205 41 205 60 c 256,18,19
 205 79 205 79 217.5 93 c 128,-1,20
 230 107 230 107 249 107 c 256,21,22
 268 107 268 107 281 93.5 c 128,-1,23
 294 80 294 80 294 60 c 256,12,13
154 60 m 256,24,25
 154 40 154 40 141 26.5 c 128,-1,26
 128 13 128 13 109 13 c 256,27,28
 90 13 90 13 77.5 27 c 128,-1,29
 65 41 65 41 65 60 c 256,30,31
 65 79 65 79 77.5 93 c 128,-1,32
 90 107 90 107 109 107 c 256,33,34
 128 107 128 107 141 93.5 c 128,-1,35
 154 80 154 80 154 60 c 256,24,25
EndSplineSet
EndChar

StartChar: multiply
Encoding: 8722 8722 209
Width: 417
GlyphClass: 2
Flags: W
LayerCount: 2
Fore
SplineSet
365 240 m 1,0,-1
 58 240 l 1,1,-1
 58 276 l 1,2,-1
 365 276 l 1,3,-1
 365 240 l 1,0,-1
EndSplineSet
EndChar

StartChar: glyph668
Encoding: 9676 9676 210
Width: 589
GlyphClass: 2
Flags: W
LayerCount: 2
Fore
SplineSet
497 374 m 1,0,-1
 449 340 l 1,1,2
 423 381 423 381 387 401 c 1,3,-1
 421 449 l 1,4,5
 469 420 469 420 497 374 c 1,0,-1
530 248 m 256,6,7
 530 219 530 219 523 195 c 1,8,-1
 467 205 l 1,9,10
 471 225 471 225 471 248 c 256,11,12
 471 271 471 271 467 291 c 1,13,-1
 523 301 l 1,14,15
 530 277 530 277 530 248 c 256,6,7
340 485 m 1,16,-1
 330 427 l 1,17,18
 317 432 317 432 297 432 c 2,19,-1
 285 432 l 2,20,21
 262 432 262 432 244 427 c 1,22,-1
 234 485 l 1,23,24
 261 491 261 491 287 491 c 256,25,26
 313 491 313 491 340 485 c 1,16,-1
497 122 m 1,27,28
 464 76 464 76 421 47 c 1,29,-1
 387 95 l 1,30,31
 424 117 424 117 449 156 c 1,32,-1
 497 122 l 1,27,28
187 401 m 1,33,34
 149 378 149 378 126 340 c 1,35,-1
 78 374 l 1,36,37
 106 419 106 419 153 449 c 1,38,-1
 187 401 l 1,33,34
108 205 m 1,39,-1
 50 195 l 1,40,41
 45 210 45 210 45 231 c 2,42,-1
 45 253 l 2,43,44
 45 269 45 269 50 301 c 1,45,-1
 108 291 l 1,46,47
 103 279 103 279 103 260 c 2,48,-1
 103 236 l 2,49,50
 103 217 103 217 108 205 c 1,39,-1
340 12 m 1,51,52
 307 5 307 5 287 5 c 256,53,54
 267 5 267 5 234 12 c 1,55,-1
 244 69 l 1,56,57
 266 64 266 64 284 64 c 2,58,-1
 298 64 l 2,59,60
 318 64 318 64 330 69 c 1,61,-1
 340 12 l 1,51,52
187 95 m 1,62,-1
 153 47 l 1,63,64
 106 77 106 77 78 122 c 1,65,-1
 126 156 l 1,66,67
 147 120 147 120 187 95 c 1,62,-1
EndSplineSet
EndChar

StartChar: glyph52
Encoding: 65538 -1 211
Width: 1024
GlyphClass: 2
Flags: W
LayerCount: 2
Fore
SplineSet
532 2723 m 1,0,-1
 492 2723 l 1,1,-1
 512 2743 l 1,2,-1
 532 2723 l 1,0,-1
532 -996 m 1,3,-1
 512 -1016 l 1,4,-1
 492 -996 l 1,5,-1
 532 -996 l 1,3,-1
EndSplineSet
EndChar

StartChar: glyph53
Encoding: 65539 -1 212
Width: 392
GlyphClass: 2
Flags: W
LayerCount: 2
Fore
SplineSet
431 469 m 1,0,-1
 337 469 l 1,1,-1
 337 353 l 2,2,3
 337 297 337 297 297 281 c 1,4,5
 238 265 238 265 178 249 c 1,6,7
 97 223 97 223 97 178 c 0,8,9
 97 120 97 120 185 120 c 0,10,11
 270 120 270 120 358 181 c 1,12,-1
 386 128 l 1,13,14
 357 109 357 109 309 94 c 128,-1,15
 261 79 261 79 228 79 c 0,16,17
 164 79 164 79 116 105 c 0,18,19
 57 138 57 138 57 197 c 0,20,21
 57 263 57 263 137 292 c 1,22,23
 86 324 86 324 77 366 c 0,24,25
 74 378 74 378 74 469 c 1,26,-1
 -3 469 l 1,27,-1
 -30 515 l 1,28,-1
 404 515 l 1,29,-1
 431 469 l 1,0,-1
283 339 m 1,30,-1
 283 469 l 1,31,-1
 130 469 l 1,32,-1
 279 339 l 1,33,-1
 283 339 l 1,30,-1
257 324 m 1,34,-1
 128 430 l 1,35,-1
 128 365 l 2,36,37
 128 341 128 341 137 328 c 0,38,39
 142 321 142 321 165 302 c 1,40,41
 196 308 196 308 257 324 c 1,34,-1
EndSplineSet
EndChar

StartChar: glyph54
Encoding: 65540 -1 213
Width: 400
GlyphClass: 2
Flags: W
LayerCount: 2
Fore
SplineSet
427 469 m 1,0,-1
 344 469 l 1,1,2
 356 417 356 417 356 399 c 0,3,4
 356 354 356 354 283 300 c 1,5,6
 381 265 381 265 381 188 c 0,7,8
 381 140 381 140 326 112 c 0,9,10
 281 89 281 89 228 89 c 0,11,12
 162 89 162 89 117 111 c 0,13,14
 57 139 57 139 57 197 c 0,15,16
 57 263 57 263 137 292 c 1,17,18
 90 321 90 321 79 369 c 0,19,20
 74 389 74 389 74 469 c 1,21,-1
 -3 469 l 1,22,-1
 -30 515 l 1,23,-1
 400 515 l 1,24,-1
 427 469 l 1,0,-1
302 428 m 0,25,26
 302 445 302 445 287 469 c 1,27,-1
 131 469 l 1,28,-1
 278 371 l 1,29,-1
 296 397 l 1,30,31
 302 408 302 408 302 428 c 0,25,26
260 351 m 1,32,-1
 128 437 l 1,33,-1
 128 376 l 2,34,35
 128 349 128 349 135.5 334.5 c 128,-1,36
 143 320 143 320 165 302 c 1,37,38
 237 324 237 324 260 351 c 1,32,-1
327 216 m 0,39,40
 327 263 327 263 258 286 c 1,41,42
 229 272 229 272 202 261 c 0,43,44
 170 247 170 247 137 233 c 1,45,46
 97 212 97 212 97 185 c 0,47,48
 97 130 97 130 185 130 c 0,49,50
 236 130 236 130 276 148 c 0,51,52
 327 171 327 171 327 216 c 0,39,40
EndSplineSet
EndChar

StartChar: glyph55
Encoding: 65541 -1 214
Width: 437
GlyphClass: 2
Flags: W
LayerCount: 2
Fore
SplineSet
426 345 m 256,0,1
 426 328 426 328 414.5 315.5 c 128,-1,2
 403 303 403 303 386 303 c 256,3,4
 369 303 369 303 358 315.5 c 128,-1,5
 347 328 347 328 347 345 c 256,6,7
 347 362 347 362 358 374.5 c 128,-1,8
 369 387 369 387 386 387 c 256,9,10
 403 387 403 387 414.5 374.5 c 128,-1,11
 426 362 426 362 426 345 c 256,0,1
468 469 m 1,12,-1
 329 469 l 1,13,-1
 329 401 l 2,14,15
 329 383 329 383 314 383 c 2,16,-1
 193 383 l 2,17,18
 154 383 154 383 154 350 c 0,19,20
 154 322 154 322 180 322 c 0,21,22
 198 322 198 322 234 327.5 c 128,-1,23
 270 333 270 333 288 333 c 0,24,25
 311 333 311 333 339 293 c 128,-1,26
 367 253 367 253 367 229 c 0,27,28
 367 148 367 148 248 148 c 0,29,30
 191 148 191 148 124 204 c 0,31,32
 61 256 61 256 37 313 c 1,33,-1
 59 329 l 1,34,35
 93 266 93 266 130 236 c 0,36,37
 175 201 175 201 240 201 c 0,38,39
 327 201 327 201 327 249 c 0,40,41
 327 280 327 280 297 280 c 0,42,43
 282 280 282 280 253 274.5 c 128,-1,44
 224 269 224 269 209 269 c 0,45,46
 179 269 179 269 144.5 311 c 128,-1,47
 110 353 110 353 110 384 c 0,48,49
 110 431 110 431 171 431 c 2,50,-1
 275 431 l 1,51,-1
 275 469 l 1,52,-1
 -5 469 l 1,53,-1
 -32 515 l 1,54,-1
 442 515 l 1,55,-1
 468 469 l 1,12,-1
EndSplineSet
EndChar

